<svg width="65" height="65" viewBox="0 0 65 65" fill="none" xmlns="http://www.w3.org/2000/svg">
<g clip-path="url(#clip0_555_1409)">
<path d="M64.5294 47.3535V2.35352H0.529449V47.3535H26.3781L23.5656 58.6035H15.6544V62.3535H49.4044V58.6035H41.4933L38.6808 47.3535H64.5294ZM4.27945 6.10352H60.7794V43.6035H4.27945V6.10352ZM37.6281 58.6035H27.4308L30.2433 47.3535H34.8156L37.6281 58.6035Z" fill="#303030"/>
<path d="M23.9311 20.7818L26.5827 18.1301L23.9311 15.4785L26.5827 12.8269L23.9311 10.1753L21.2795 12.8269L18.6278 10.1753L15.9762 12.8269L18.6278 15.4785L15.9762 18.1301L18.6278 20.7818L21.2795 18.1301L23.9311 20.7818Z" fill="#303030"/>
<path d="M46.4311 10.1753L43.7794 12.8269L41.1278 10.1753L38.4762 12.8269L41.1278 15.4785L38.4762 18.1301L41.1278 20.7818L43.7794 18.1301L46.4311 20.7818L49.0827 18.1301L46.4311 15.4785L49.0827 12.8269L46.4311 10.1753Z" fill="#303030"/>
<path d="M32.5294 24.8535C25.2923 24.8535 19.4044 30.7414 19.4044 37.9785V39.8535H23.1544V37.9785C23.1544 32.8091 27.3601 28.6035 32.5294 28.6035C37.6988 28.6035 41.9044 32.8091 41.9044 37.9785V39.8535H45.6544V37.9785C45.6544 30.7414 39.7666 24.8535 32.5294 24.8535Z" fill="#303030"/>
</g>
<defs>
<clipPath id="clip0_555_1409">
<rect width="64" height="64" fill="white" transform="translate(0.529449 0.353516)"/>
</clipPath>
</defs>
</svg>
