<svg width="107" height="32" viewBox="0 0 107 32" fill="none" xmlns="http://www.w3.org/2000/svg">
<mask id="mask0_657_1637" style="mask-type:alpha" maskUnits="userSpaceOnUse" x="0" y="0" width="107" height="32">
<path d="M4.57125 31.1603C2.5319 31.1603 0.871948 29.5079 0.871948 27.4851V3.76985C0.871948 1.74627 2.5319 0.100082 4.57125 0.100082H102.72C104.758 0.100082 106.477 1.74627 106.477 3.76985V27.4851C106.477 29.5079 104.758 31.1603 102.72 31.1603H4.57125Z" fill="white"/>
</mask>
<g mask="url(#mask0_657_1637)">
<path d="M4.57131 30.851C2.70176 30.851 1.18261 29.3359 1.18261 27.4864V3.77112C1.18261 1.92145 2.70112 0.411951 4.57131 0.411951H102.72C104.595 0.411951 106.166 1.92769 106.166 3.77112V27.4864C106.166 29.3297 104.595 30.851 102.72 30.851H4.57131Z" fill="white" stroke="#306FD5" stroke-width="0.621205"/>
<path fill-rule="evenodd" clip-rule="evenodd" d="M42.4617 24.564H40.6747L39.6959 21.5287H36.2935L35.3611 24.564H33.6213L36.9922 14.2303H39.0743L42.4617 24.564ZM39.4008 20.2552L38.5156 17.5568C38.422 17.2812 38.2465 16.632 37.9876 15.6101H37.9561C37.8531 16.0497 37.687 16.6988 37.4588 17.5568L36.5894 20.2552H39.4008ZM51.1305 20.7467C51.1305 22.014 50.7835 23.0157 50.0895 23.751C49.4679 24.4056 48.696 24.7325 47.7746 24.7325C46.78 24.7325 46.0655 24.38 45.6304 23.6749H45.5989V27.6002H43.9213V19.5657C43.9213 18.769 43.9001 17.9513 43.8592 17.1127H45.3345L45.4282 18.2938H45.4596C46.0191 17.4039 46.8681 16.9597 48.0075 16.9597C48.8982 16.9597 49.6418 17.3068 50.2367 18.0018C50.8331 18.6975 51.1305 19.6123 51.1305 20.7467ZM49.4215 20.8073C49.4215 20.082 49.2562 19.4841 48.9242 19.0136C48.5614 18.5228 48.0744 18.2774 47.4638 18.2774C47.0499 18.2774 46.6738 18.4141 46.3378 18.6836C46.001 18.9553 45.7807 19.3102 45.6776 19.7497C45.6257 19.9547 45.5997 20.1224 45.5997 20.2544V21.4968C45.5997 22.0388 45.7681 22.4962 46.1049 22.8697C46.4416 23.2432 46.8791 23.4296 47.4173 23.4296C48.0492 23.4296 48.541 23.1888 48.8927 22.709C49.2452 22.2283 49.4215 21.5947 49.4215 20.8073ZM59.8151 20.7467C59.8151 22.014 59.4681 23.0157 58.7733 23.751C58.1525 24.4056 57.3806 24.7325 56.4591 24.7325C55.4646 24.7325 54.7501 24.38 54.3157 23.6749H54.2843V27.6002H52.6067V19.5657C52.6067 18.769 52.5854 17.9513 52.5445 17.1127H54.0199L54.1135 18.2938H54.145C54.7037 17.4039 55.5527 16.9597 56.6928 16.9597C57.5828 16.9597 58.3264 17.3068 58.9228 18.0018C59.5169 18.6975 59.8151 19.6123 59.8151 20.7467ZM58.106 20.8073C58.106 20.082 57.94 19.4841 57.608 19.0136C57.2452 18.5228 56.7597 18.2774 56.1483 18.2774C55.7337 18.2774 55.3583 18.4141 55.0216 18.6836C54.6848 18.9553 54.4652 19.3102 54.3622 19.7497C54.311 19.9547 54.2843 20.1224 54.2843 20.2544V21.4968C54.2843 22.0388 54.4526 22.4962 54.7878 22.8697C55.1246 23.2424 55.5621 23.4296 56.1019 23.4296C56.7338 23.4296 57.2255 23.1888 57.5773 22.709C57.9298 22.2283 58.106 21.5947 58.106 20.8073ZM69.5249 21.6661C69.5249 22.5451 69.2157 23.2603 68.5949 23.8124C67.9127 24.4157 66.9629 24.717 65.7425 24.717C64.6157 24.717 63.7124 24.5027 63.0286 24.0733L63.4173 22.6934C64.1538 23.1329 64.9619 23.3535 65.8424 23.3535C66.4743 23.3535 66.9661 23.2121 67.3194 22.931C67.6711 22.65 67.8466 22.2726 67.8466 21.802C67.8466 21.3827 67.7018 21.0294 67.4114 20.7429C67.1227 20.4563 66.6403 20.19 65.9668 19.9438C64.1334 19.269 63.2175 18.2806 63.2175 16.9807C63.2175 16.1312 63.5385 15.4347 64.1814 14.8927C64.8219 14.3499 65.6764 14.0789 66.745 14.0789C67.6978 14.0789 68.4894 14.2427 69.1213 14.5696L68.7019 15.9192C68.1117 15.6024 67.4445 15.444 66.6978 15.444C66.1076 15.444 65.6465 15.5876 65.316 15.8734C65.0367 16.1289 64.8966 16.4402 64.8966 16.8091C64.8966 17.2175 65.0564 17.5553 65.3774 17.8209C65.6567 18.0662 66.1643 18.3318 66.9008 18.6183C67.8017 18.9763 68.4635 19.3948 68.8892 19.8747C69.3133 20.353 69.5249 20.9517 69.5249 21.6661ZM75.0715 18.3551H73.2224V21.9728C73.2224 22.893 73.5482 23.3527 74.2012 23.3527C74.501 23.3527 74.7497 23.3271 74.9464 23.2758L74.9928 24.533C74.6623 24.6549 74.2272 24.7162 73.6882 24.7162C73.0257 24.7162 72.5079 24.5167 72.1342 24.1183C71.762 23.7192 71.5747 23.0499 71.5747 22.1095V18.3535H70.4731V17.1111H71.5747V15.7468L73.2224 15.2561V17.1111H75.0715V18.3551ZM83.4146 20.777C83.4146 21.9224 83.0825 22.8627 82.42 23.5981C81.7252 24.3552 80.803 24.7325 79.6534 24.7325C78.5455 24.7325 77.6634 24.3699 77.0056 23.6447C76.3478 22.9194 76.0189 22.0039 76.0189 20.9005C76.0189 19.7458 76.3572 18.8 77.0363 18.0647C77.7138 17.3286 78.6281 16.9605 79.7777 16.9605C80.8856 16.9605 81.7771 17.3231 82.4499 18.0492C83.0935 18.7534 83.4146 19.6627 83.4146 20.777ZM81.674 20.8306C81.674 20.1434 81.5253 19.554 81.224 19.0625C80.8722 18.4677 80.3694 18.1711 79.7179 18.1711C79.0436 18.1711 78.5313 18.4685 78.1796 19.0625C77.8782 19.5548 77.7295 20.1535 77.7295 20.8617C77.7295 21.5489 77.8782 22.1382 78.1796 22.629C78.5424 23.2238 79.0491 23.5204 79.703 23.5204C80.3435 23.5204 80.8463 23.2176 81.209 22.6135C81.5182 22.1126 81.674 21.517 81.674 20.8306ZM88.8675 18.5686C88.7015 18.5384 88.5244 18.5228 88.3387 18.5228C87.7486 18.5228 87.2922 18.7426 86.9712 19.1829C86.6918 19.5711 86.5518 20.0619 86.5518 20.6543V24.564H84.875L84.8907 19.4593C84.8907 18.6005 84.8695 17.8185 84.8278 17.1135H86.289L86.3503 18.5391H86.3968C86.5738 18.0492 86.8532 17.6547 87.2356 17.3588C87.6093 17.0925 88.013 16.9597 88.4481 16.9597C88.6031 16.9597 88.7432 16.9706 88.8675 16.99V18.5686ZM96.3702 20.4858C96.3702 20.7825 96.3505 21.0325 96.3088 21.2367H91.2761C91.2958 21.9728 91.5389 22.5358 92.0063 22.9241C92.4304 23.2712 92.9789 23.4451 93.6524 23.4451C94.3976 23.4451 95.0774 23.3278 95.6888 23.0926L95.9516 24.2418C95.2371 24.5493 94.3936 24.7023 93.4203 24.7023C92.2494 24.7023 91.3304 24.3621 90.6615 23.6827C89.9943 23.0033 89.6599 22.0909 89.6599 20.9463C89.6599 19.8227 89.9707 18.887 90.5931 18.1408C91.2446 17.3441 92.1251 16.9457 93.233 16.9457C94.3212 16.9457 95.1451 17.3441 95.7045 18.1408C96.1475 18.7736 96.3702 19.5564 96.3702 20.4858ZM94.7705 20.0564C94.7816 19.5657 94.6722 19.1417 94.4448 18.7837C94.1544 18.3233 93.7083 18.0934 93.1079 18.0934C92.5595 18.0934 92.1133 18.3178 91.7726 18.7682C91.4933 19.1262 91.3272 19.5556 91.2761 20.0556H94.7705V20.0564ZM38.8461 7.87305C38.8461 8.78699 38.5683 9.47498 38.0136 9.937C37.4998 10.3633 36.7696 10.5768 35.8238 10.5768C35.3548 10.5768 34.9535 10.5567 34.6175 10.5163V5.52256C35.0558 5.45268 35.5279 5.41696 36.0378 5.41696C36.9387 5.41696 37.6178 5.61031 38.0757 5.99701C38.5888 6.43418 38.8461 7.05927 38.8461 7.87305ZM37.9766 7.89557C37.9766 7.30309 37.8177 6.84884 37.4998 6.53202C37.1819 6.21598 36.7176 6.05758 36.1062 6.05758C35.8466 6.05758 35.6255 6.07466 35.4421 6.11038V9.90671C35.5436 9.92225 35.7293 9.92923 35.9992 9.92923C36.6303 9.92923 37.1174 9.75607 37.4604 9.40975C37.8035 9.06343 37.9766 8.5587 37.9766 7.89557ZM43.4563 8.67129C43.4563 9.23426 43.2934 9.69551 42.9677 10.0574C42.6262 10.4293 42.1737 10.6149 41.6087 10.6149C41.0642 10.6149 40.6307 10.4371 40.3073 10.0799C39.9847 9.72346 39.8234 9.27386 39.8234 8.73186C39.8234 8.16501 39.9894 7.69989 40.323 7.33881C40.6566 6.97774 41.1052 6.79681 41.6701 6.79681C42.2146 6.79681 42.6521 6.97463 42.9834 7.33105C43.2981 7.67737 43.4563 8.12463 43.4563 8.67129ZM42.601 8.6977C42.601 8.35992 42.527 8.07028 42.3799 7.82879C42.2068 7.53682 41.9605 7.39084 41.6402 7.39084C41.309 7.39084 41.0572 7.53682 40.884 7.82879C40.7361 8.07028 40.6629 8.36458 40.6629 8.71245C40.6629 9.05023 40.7369 9.33987 40.884 9.58136C41.0627 9.87333 41.3113 10.0193 41.6324 10.0193C41.9471 10.0193 42.1942 9.871 42.372 9.57359C42.5246 9.32744 42.601 9.03548 42.601 8.6977ZM49.6379 6.87135L48.4772 10.5318H47.7219L47.2411 8.9423C47.1191 8.5455 47.02 8.15104 46.9429 7.75968H46.9279C46.8563 8.16191 46.7572 8.5556 46.6297 8.9423L46.119 10.5318H45.355L44.2636 6.87135H45.1111L45.5305 8.6115C45.632 9.02305 45.7154 9.41519 45.7822 9.78636H45.7972C45.8586 9.48041 45.9601 9.09061 46.1033 8.61927L46.6297 6.87213H47.3017L47.8061 8.582C47.928 8.99898 48.0272 9.40043 48.1035 9.78713H48.1263C48.1822 9.41053 48.2664 9.00907 48.3781 8.582L48.8282 6.87213H49.6379V6.87135ZM53.9129 10.5318H53.0882V8.43524C53.0882 7.78918 52.8396 7.46616 52.3407 7.46616C52.096 7.46616 51.8985 7.55468 51.7451 7.7325C51.5932 7.91032 51.5161 8.11998 51.5161 8.35992V10.531H50.6915V7.91731C50.6915 7.59583 50.6812 7.24718 50.6616 6.8698H51.3863L51.4248 7.44209H51.4476C51.5436 7.26427 51.6868 7.11751 51.8749 7.00025C52.0984 6.86359 52.3486 6.79448 52.6224 6.79448C52.9686 6.79448 53.2566 6.90474 53.4856 7.12605C53.7704 7.39705 53.9129 7.80161 53.9129 8.33895V10.5318ZM56.1869 10.5318H55.363V5.19177H56.1869V10.5318ZM61.0418 8.67129C61.0418 9.23426 60.8789 9.69551 60.5532 10.0574C60.2117 10.4293 59.7584 10.6149 59.1943 10.6149C58.649 10.6149 58.2154 10.4371 57.8928 10.0799C57.5702 9.72346 57.4089 9.27386 57.4089 8.73186C57.4089 8.16501 57.5749 7.69989 57.9085 7.33881C58.2422 6.97774 58.6907 6.79681 59.2549 6.79681C59.8001 6.79681 60.2369 6.97463 60.5689 7.33105C60.8837 7.67737 61.0418 8.12463 61.0418 8.67129ZM60.1857 8.6977C60.1857 8.35992 60.1117 8.07028 59.9646 7.82879C59.7923 7.53682 59.5452 7.39084 59.2257 7.39084C58.8937 7.39084 58.6419 7.53682 58.4696 7.82879C58.3216 8.07028 58.2485 8.36458 58.2485 8.71245C58.2485 9.05023 58.3224 9.33987 58.4696 9.58136C58.6482 9.87333 58.8968 10.0193 59.2179 10.0193C59.5326 10.0193 59.7789 9.871 59.9567 9.57359C60.1102 9.32744 60.1857 9.03548 60.1857 8.6977ZM65.0328 10.5318H64.2923L64.2309 10.1102H64.2081C63.9548 10.4464 63.5936 10.6149 63.1246 10.6149C62.7745 10.6149 62.4912 10.5038 62.278 10.2833C62.0844 10.083 61.9876 9.83372 61.9876 9.53787C61.9876 9.09061 62.1765 8.74972 62.5565 8.51366C62.9358 8.27761 63.4693 8.16191 64.1562 8.16734V8.09901C64.1562 7.6168 63.8997 7.37608 63.3859 7.37608C63.02 7.37608 62.6974 7.46693 62.4188 7.64708L62.2512 7.11285C62.5959 6.90241 63.0215 6.79681 63.5236 6.79681C64.493 6.79681 64.9793 7.30154 64.9793 8.311V9.65901C64.9793 10.0247 64.9974 10.3159 65.0328 10.5318ZM64.1767 9.27386V8.70934C63.267 8.69381 62.8122 8.93997 62.8122 9.44702C62.8122 9.63804 62.8642 9.78092 62.9704 9.87643C63.0766 9.97194 63.212 10.0193 63.3733 10.0193C63.5543 10.0193 63.7234 9.96262 63.8777 9.85003C64.0327 9.73666 64.1279 9.59301 64.1633 9.41674C64.1719 9.37714 64.1767 9.32899 64.1767 9.27386ZM69.7185 10.5318H68.9867L68.9482 9.94399H68.9254C68.6917 10.3913 68.2935 10.6149 67.734 10.6149C67.2871 10.6149 66.9149 10.4417 66.6199 10.0954C66.3248 9.74908 66.1776 9.29949 66.1776 8.74739C66.1776 8.15492 66.3374 7.67504 66.6584 7.30853C66.9692 6.96686 67.3501 6.79603 67.8033 6.79603C68.3014 6.79603 68.65 6.96143 68.8482 7.293H68.864V5.19177H69.6894V9.54564C69.6894 9.90206 69.6988 10.2305 69.7185 10.5318ZM68.864 8.98811V8.37778C68.864 8.27217 68.8561 8.18676 68.8412 8.12153C68.7947 7.92585 68.6948 7.76123 68.5429 7.62845C68.3895 7.49567 68.2046 7.42889 67.9913 7.42889C67.6837 7.42889 67.4429 7.54924 67.2659 7.79074C67.0904 8.03223 67.0015 8.3405 67.0015 8.71711C67.0015 9.07896 67.0857 9.37248 67.2548 9.59844C67.4335 9.83916 67.6742 9.95952 67.9756 9.95952C68.2463 9.95952 68.4627 9.85935 68.6271 9.65823C68.7861 9.47265 68.864 9.24901 68.864 8.98811ZM76.7711 8.67129C76.7711 9.23426 76.6082 9.69551 76.2825 10.0574C75.941 10.4293 75.4893 10.6149 74.9236 10.6149C74.3799 10.6149 73.9463 10.4371 73.6221 10.0799C73.2995 9.72346 73.1382 9.27386 73.1382 8.73186C73.1382 8.16501 73.3042 7.69989 73.6379 7.33881C73.9715 6.97774 74.42 6.79681 74.9857 6.79681C75.5295 6.79681 75.9677 6.97463 76.2982 7.33105C76.613 7.67737 76.7711 8.12463 76.7711 8.67129ZM75.9166 8.6977C75.9166 8.35992 75.8426 8.07028 75.6955 7.82879C75.5216 7.53682 75.2761 7.39084 74.9551 7.39084C74.6246 7.39084 74.3728 7.53682 74.1989 7.82879C74.051 8.07028 73.9778 8.36458 73.9778 8.71245C73.9778 9.05023 74.0517 9.33987 74.1989 9.58136C74.3775 9.87333 74.6261 10.0193 74.9472 10.0193C75.2619 10.0193 75.5098 9.871 75.6876 9.57359C75.8395 9.32744 75.9166 9.03548 75.9166 8.6977ZM81.2051 10.5318H80.3812V8.43524C80.3812 7.78918 80.1326 7.46616 79.6329 7.46616C79.3882 7.46616 79.1907 7.55468 79.0381 7.7325C78.8854 7.91032 78.8091 8.11998 78.8091 8.35992V10.531H77.9837V7.91731C77.9837 7.59583 77.9742 7.24718 77.9546 6.8698H78.6785L78.717 7.44209H78.7398C78.8366 7.26427 78.9798 7.11751 79.1671 7.00025C79.3914 6.86359 79.6408 6.79448 79.9154 6.79448C80.2608 6.79448 80.5488 6.90474 80.7778 7.12605C81.0634 7.39705 81.2051 7.80161 81.2051 8.33895V10.5318ZM86.7548 7.48091H85.8468V9.25911C85.8468 9.71104 86.0081 9.937 86.3275 9.937C86.4755 9.937 86.5982 9.92457 86.695 9.89895L86.7162 10.5163C86.5534 10.5768 86.3393 10.6071 86.0757 10.6071C85.75 10.6071 85.4966 10.5093 85.3133 10.3136C85.1291 10.1179 85.0379 9.78869 85.0379 9.32667V7.48091H84.4957V6.87135H85.0379V6.20045L85.846 5.95974V6.87058H86.754V7.48091H86.7548ZM91.1203 10.5318H90.2949V8.45077C90.2949 7.79462 90.0462 7.46616 89.5481 7.46616C89.1657 7.46616 88.9045 7.6564 88.7613 8.03689C88.7369 8.11687 88.7227 8.21471 88.7227 8.32963V10.531H87.8989V5.19177H88.7227V7.39783H88.7385C88.9981 6.99637 89.3703 6.79603 89.8527 6.79603C90.1942 6.79603 90.4766 6.9063 90.7009 7.1276C90.9802 7.40326 91.1203 7.81326 91.1203 8.35526V10.5318ZM95.6235 8.52842C95.6235 8.6744 95.6125 8.79709 95.5928 8.89726H93.1197C93.1307 9.25911 93.2487 9.53477 93.4777 9.72579C93.687 9.89662 93.9569 9.98204 94.2874 9.98204C94.6533 9.98204 94.9869 9.92457 95.2875 9.80888L95.4165 10.3742C95.0648 10.5248 94.6509 10.6001 94.1717 10.6001C93.5973 10.6001 93.1449 10.4332 92.8175 10.0993C92.4886 9.76539 92.3258 9.31735 92.3258 8.75516C92.3258 8.20306 92.4776 7.74337 92.7837 7.37686C93.1032 6.9855 93.5352 6.78982 94.0805 6.78982C94.6139 6.78982 95.0192 6.9855 95.293 7.37686C95.5141 7.68746 95.6235 8.07183 95.6235 8.52842ZM94.8366 8.31798C94.8429 8.07649 94.7886 7.86839 94.6769 7.6929C94.5337 7.46693 94.3157 7.35356 94.0207 7.35356C93.7516 7.35356 93.532 7.46383 93.3644 7.68513C93.2275 7.8614 93.1465 8.07183 93.1197 8.31798H94.8366Z" fill="#0F2852"/>
<path fill-rule="evenodd" clip-rule="evenodd" d="M23.957 15.4631C23.9829 18.4627 26.6157 19.4543 26.648 19.4651C26.6322 19.535 26.2357 20.8962 25.2482 22.2783C24.4236 23.4951 23.5596 24.6847 22.1873 24.7064C20.8544 24.7367 20.4059 23.9323 18.8771 23.9323C17.3341 23.9323 16.8565 24.6847 15.5779 24.7367C14.2709 24.7841 13.2724 23.4377 12.4179 22.2318C10.7097 19.7695 9.37989 15.293 11.1629 12.2469C12.0268 10.7529 13.6021 9.79083 15.2859 9.76521C16.5945 9.73881 17.8086 10.6372 18.6127 10.6372C19.4011 10.6372 20.9024 9.56255 22.4501 9.72328C23.0977 9.74191 24.9405 9.97564 26.1294 11.6862C26.0334 11.7429 23.9341 12.9605 23.957 15.4631ZM21.4391 8.10352C20.7215 8.93902 19.5735 9.57808 18.4553 9.49577C18.309 8.3683 18.8755 7.1694 19.5097 6.43795C20.2265 5.60788 21.4713 4.97193 22.4667 4.92845C22.5973 6.10018 22.1268 7.25482 21.4391 8.10352Z" fill="#0F2852"/>
</g>
</svg>
