<svg width="40" height="41" viewBox="0 0 40 41" fill="none" xmlns="http://www.w3.org/2000/svg">
<rect x="2" y="2.35913" width="36" height="36" rx="18" fill="#F8BBD0"/>
<rect x="2" y="2.35913" width="36" height="36" rx="18" stroke="#FCE4EC" stroke-width="4"/>
<path d="M12 16.2591C12.4 15.4591 13 14.6591 13.6 14.0591C15.3 12.3591 17.5 11.3591 20 11.3591C22.3 11.3591 24.4 12.2591 26 13.6591C27.6 15.0591 28.7 17.0591 28.9 19.3591" stroke="#880E4F" stroke-width="1.5" stroke-linecap="round" stroke-linejoin="round"/>
<path d="M16.9 16.2591L12 16.2591L12 11.3591" stroke="#880E4F" stroke-width="1.5" stroke-linecap="round" stroke-linejoin="round"/>
<path d="M27.9 24.4591C27.5 25.2591 26.9 26.0591 26.3 26.6591C24.7 28.3591 22.4 29.3591 19.9 29.3591C17.6 29.3591 15.5 28.4591 13.9 27.0591C12.3 25.5591 11.2 23.5591 11 21.3591" stroke="#880E4F" stroke-width="1.5" stroke-linecap="round" stroke-linejoin="round"/>
<path d="M23.1001 24.4591L28.0001 24.4591L28.0001 29.3591" stroke="#880E4F" stroke-width="1.5" stroke-linecap="round" stroke-linejoin="round"/>
</svg>
