<svg width="33" height="32" viewBox="0 0 33 32" fill="none" xmlns="http://www.w3.org/2000/svg">
<g id="Field Edit">
<rect x="0.896484" width="32" height="32" rx="16" fill="#303030"/>
<path id="Vector" d="M20.74 9.06629C20.9429 8.86338 21.1838 8.70242 21.4489 8.59261C21.714 8.48279 21.9982 8.42627 22.2851 8.42627C22.5721 8.42627 22.8562 8.48279 23.1213 8.59261C23.3865 8.70242 23.6274 8.86338 23.8303 9.06629C24.0332 9.2692 24.1941 9.51009 24.304 9.77521C24.4138 10.0403 24.4703 10.3245 24.4703 10.6114C24.4703 10.8984 24.4138 11.1825 24.304 11.4477C24.1941 11.7128 24.0332 11.9537 23.8303 12.1566L13.4005 22.5863L9.15137 23.7452L10.3102 19.496L20.74 9.06629Z" fill="white"/>
</g>
</svg>
