<svg width="56" height="56" viewBox="0 0 56 56" fill="none" xmlns="http://www.w3.org/2000/svg">
<rect width="56" height="56" rx="28" fill="#9BD0FF"/>
<path d="M30.8656 20.5871C31.9879 20.8057 33.0192 21.3535 33.8278 22.1604C34.6363 22.9674 35.1851 23.9968 35.4041 25.1169M30.8656 16C33.1972 16.2585 35.3714 17.3007 37.0313 18.9553C38.6912 20.6099 39.738 22.7786 40 25.1055M38.851 34.2568V37.6971C38.8523 38.0165 38.7868 38.3326 38.6586 38.6253C38.5304 38.9179 38.3424 39.1806 38.1066 39.3965C37.8708 39.6124 37.5924 39.7768 37.2893 39.8791C36.9861 39.9814 36.6649 40.0194 36.3462 39.9907C32.8106 39.6073 29.4145 38.4014 26.4306 36.4701C23.6544 34.7094 21.3008 32.3602 19.5367 29.5894C17.5949 26.5977 16.3865 23.1915 16.0093 19.6468C15.9806 19.3296 16.0184 19.01 16.1202 18.7083C16.222 18.4065 16.3857 18.1292 16.6008 17.8941C16.8159 17.6589 17.0777 17.471 17.3695 17.3423C17.6613 17.2137 17.9768 17.1471 18.2958 17.1468H21.7427C22.3003 17.1413 22.8409 17.3384 23.2637 17.7013C23.6865 18.0642 23.9626 18.5682 24.0407 19.1192C24.1862 20.2202 24.456 21.3013 24.845 22.3417C24.9996 22.7522 25.033 23.1983 24.9414 23.6271C24.8497 24.056 24.6368 24.4496 24.3279 24.7614L22.8687 26.2178C24.5044 29.0889 26.8861 31.466 29.7626 33.0985L31.2218 31.6421C31.5342 31.3338 31.9286 31.1213 32.3583 31.0298C32.788 30.9384 33.2349 30.9718 33.6461 31.1261C34.6886 31.5143 35.7717 31.7836 36.8748 31.9288C37.4329 32.0074 37.9426 32.288 38.307 32.7172C38.6714 33.1464 38.865 33.6944 38.851 34.2568Z" stroke="#0C1D3E" stroke-width="2" stroke-linecap="round" stroke-linejoin="round"/>
</svg>
