<svg width="64" height="65" viewBox="0 0 64 65" fill="none" xmlns="http://www.w3.org/2000/svg">
<g clip-path="url(#clip0_888_153)">
<path d="M51.5905 15.0314V14.2002C51.5905 11.4574 49.6268 9.21321 47.2268 9.21321H42.3177C39.9177 9.21321 37.9541 11.4574 37.9541 14.2002V15.0314H51.5905Z" fill="#9BD0FF"/>
<path d="M55.9999 15.0313H29.0908V61.5768H60.3635V20.0183C60.3635 17.2755 58.3999 15.0313 55.9999 15.0313Z" fill="#9BD0FF"/>
<path d="M62.9091 61.5769H1.09091C0.488068 61.5769 0 62.1355 0 62.8236C0 63.5118 0.488068 64.0704 1.09091 64.0704H62.9091C63.5119 64.0704 64 63.5118 64 62.8236C64 62.1355 63.5119 61.5769 62.9091 61.5769Z" fill="#9BD0FF"/>
<path d="M29.0913 61.577V5.05741C29.0913 2.31455 27.1276 0.0703888 24.7276 0.0703888H8.00035C5.60036 0.0703888 3.63672 2.31455 3.63672 5.05741V61.577H29.0913Z" fill="#306FD5"/>
<path d="M10.9088 52.8497H21.8179C22.4207 52.8497 22.9088 52.2911 22.9088 51.6029C22.9088 50.9138 22.4207 50.3562 21.8179 50.3562H10.9088C10.3059 50.3562 9.81787 50.914 9.81787 51.6029C9.81787 52.2911 10.3059 52.8497 10.9088 52.8497Z" fill="#0C1D3E"/>
<path d="M10.9088 44.538H21.8179C22.4207 44.538 22.9088 43.9794 22.9088 43.2912C22.9088 42.6023 22.4207 42.0445 21.8179 42.0445H10.9088C10.3059 42.0445 9.81787 42.6023 9.81787 43.2912C9.81787 43.9794 10.3059 44.538 10.9088 44.538Z" fill="#0C1D3E"/>
<path d="M10.9088 36.2263H21.8179C22.4207 36.2263 22.9088 35.6677 22.9088 34.9796C22.9088 34.2906 22.4207 33.7328 21.8179 33.7328H10.9088C10.3059 33.7328 9.81787 34.2906 9.81787 34.9796C9.81787 35.6677 10.3059 36.2263 10.9088 36.2263Z" fill="#0C1D3E"/>
<path d="M10.9088 27.9146H21.8179C22.4207 27.9146 22.9088 27.356 22.9088 26.6679C22.9088 25.9789 22.4207 25.4211 21.8179 25.4211H10.9088C10.3059 25.4211 9.81787 25.9789 9.81787 26.6679C9.81787 27.356 10.3059 27.9146 10.9088 27.9146Z" fill="#0C1D3E"/>
<path d="M10.9088 19.603H21.8179C22.4207 19.603 22.9088 19.0444 22.9088 18.3562C22.9088 17.6673 22.4207 17.1095 21.8179 17.1095H10.9088C10.3059 17.1095 9.81787 17.6673 9.81787 18.3562C9.81787 19.0444 10.3059 19.603 10.9088 19.603Z" fill="#0C1D3E"/>
<path d="M10.9088 11.2912H21.8179C22.4207 11.2912 22.9088 10.7326 22.9088 10.0444C22.9088 9.35548 22.4207 8.79768 21.8179 8.79768H10.9088C10.3059 8.79768 9.81787 9.35548 9.81787 10.0444C9.81787 10.7326 10.3059 11.2912 10.9088 11.2912Z" fill="#0C1D3E"/>
<path d="M34.9088 52.8498H39.9997C40.6025 52.8498 41.0906 52.2912 41.0906 51.603C41.0906 50.9139 40.6025 50.3563 39.9997 50.3563H34.9088C34.3059 50.3563 33.8179 50.9141 33.8179 51.603C33.8179 52.2912 34.3059 52.8498 34.9088 52.8498Z" fill="#0C1D3E"/>
<path d="M34.9088 44.538H39.9997C40.6025 44.538 41.0906 43.9794 41.0906 43.2913C41.0906 42.6023 40.6025 42.0445 39.9997 42.0445H34.9088C34.3059 42.0445 33.8179 42.6023 33.8179 43.2913C33.8179 43.9794 34.3059 44.538 34.9088 44.538Z" fill="#0C1D3E"/>
<path d="M34.9088 36.2263H39.9997C40.6025 36.2263 41.0906 35.6676 41.0906 34.9795C41.0906 34.2905 40.6025 33.7327 39.9997 33.7327H34.9088C34.3059 33.7327 33.8179 34.2905 33.8179 34.9795C33.8179 35.6676 34.3059 36.2263 34.9088 36.2263Z" fill="#0C1D3E"/>
<path d="M34.9088 27.9147H39.9997C40.6025 27.9147 41.0906 27.3561 41.0906 26.668C41.0906 25.979 40.6025 25.4212 39.9997 25.4212H34.9088C34.3059 25.4212 33.8179 25.979 33.8179 26.668C33.8179 27.3561 34.3059 27.9147 34.9088 27.9147Z" fill="#0C1D3E"/>
<path d="M46.545 52.8498H51.6359C52.2389 52.8498 52.7268 52.2912 52.7268 51.603C52.7268 50.9139 52.2389 50.3563 51.6359 50.3563H46.545C45.942 50.3563 45.4541 50.9141 45.4541 51.603C45.4541 52.2912 45.942 52.8498 46.545 52.8498Z" fill="#0C1D3E"/>
<path d="M46.545 44.538H51.6359C52.2389 44.538 52.7268 43.9794 52.7268 43.2913C52.7268 42.6023 52.2389 42.0445 51.6359 42.0445H46.545C45.942 42.0445 45.4541 42.6023 45.4541 43.2913C45.4541 43.9794 45.942 44.538 46.545 44.538Z" fill="#0C1D3E"/>
<path d="M46.545 36.2263H51.6359C52.2389 36.2263 52.7268 35.6676 52.7268 34.9795C52.7268 34.2905 52.2389 33.7327 51.6359 33.7327H46.545C45.942 33.7327 45.4541 34.2905 45.4541 34.9795C45.4541 35.6676 45.942 36.2263 46.545 36.2263Z" fill="#0C1D3E"/>
<path d="M46.545 27.9147H51.6359C52.2389 27.9147 52.7268 27.3561 52.7268 26.668C52.7268 25.979 52.2389 25.4212 51.6359 25.4212H46.545C45.942 25.4212 45.4541 25.979 45.4541 26.668C45.4541 27.3561 45.942 27.9147 46.545 27.9147Z" fill="#0C1D3E"/>
</g>
<defs>
<clipPath id="clip0_888_153">
<rect width="64" height="64" fill="white" transform="translate(0 0.0703888)"/>
</clipPath>
</defs>
</svg>
