<svg width="83" height="79" viewBox="0 0 83 79" fill="none" xmlns="http://www.w3.org/2000/svg">
<g filter="url(#filter0_d_6635_1557)">
<rect x="1.5" y="1.7829" width="76" height="72" rx="4" fill="white"/>
<rect x="2" y="2.2829" width="75" height="71" rx="3.5" stroke="#D7D7D7"/>
<path d="M26.2326 56.1521C26.2126 56.1521 26.1929 56.1481 26.1745 56.1405C26.156 56.1328 26.1393 56.1216 26.1252 56.1074C26.1111 56.0933 26.1 56.0765 26.0924 56.0581C26.0847 56.0396 26.0809 56.0198 26.081 55.9998V53.7893C26.0793 53.679 26.0701 53.569 26.0537 53.46C26.0399 53.3579 26.0063 53.2593 25.9547 53.17C25.9038 53.0849 25.8308 53.0152 25.7435 52.9683C25.6299 52.9135 25.5046 52.8878 25.3786 52.8934C25.2482 52.8898 25.1189 52.9185 25.0024 52.9772C24.9025 53.0292 24.8165 53.1045 24.7518 53.1967C24.6873 53.2898 24.6402 53.3939 24.6128 53.5038C24.5831 53.6172 24.5666 53.7337 24.564 53.8508V55.9998C24.564 56.0198 24.5602 56.0396 24.5526 56.0581C24.545 56.0765 24.5339 56.0933 24.5197 56.1074C24.5057 56.1216 24.489 56.1328 24.4705 56.1405C24.452 56.1481 24.4323 56.1521 24.4123 56.1521H23.5095C23.4692 56.1521 23.4307 56.1361 23.4022 56.1077C23.3738 56.0792 23.3578 56.0407 23.3578 56.0004V53.8508C23.3548 53.5349 23.2861 53.2948 23.1516 53.1307C23.0849 53.0497 23.0002 52.9854 22.9043 52.9427C22.8084 52.9001 22.7039 52.8804 22.599 52.8852C22.3359 52.8852 22.132 52.9655 21.9874 53.1263C21.8427 53.287 21.7695 53.5285 21.7678 53.8508L21.771 55.9998C21.7711 56.0198 21.7672 56.0396 21.7596 56.0581C21.752 56.0765 21.7409 56.0933 21.7268 56.1074C21.7127 56.1216 21.696 56.1328 21.6775 56.1405C21.6591 56.1481 21.6393 56.1521 21.6194 56.1521H20.6816C20.6414 56.1521 20.6028 56.1361 20.5744 56.1077C20.546 56.0792 20.53 56.0407 20.53 56.0004V51.9442C20.53 51.904 20.546 51.8655 20.5744 51.837C20.6028 51.8086 20.6414 51.7926 20.6816 51.7926H21.5426C21.5758 51.7927 21.6082 51.8038 21.6345 51.8241C21.6609 51.8444 21.6799 51.8728 21.6885 51.9049L21.7818 52.2583C21.8913 52.0722 22.0564 51.9251 22.2538 51.8376C22.4711 51.7476 22.7055 51.7066 22.9405 51.7176C23.1753 51.7286 23.405 51.7912 23.6129 51.9011C23.8254 52.0321 23.9842 52.2346 24.0608 52.4721C24.2125 52.2387 24.4201 52.047 24.6648 51.9144C24.9254 51.7876 25.2127 51.7258 25.5024 51.7342C25.796 51.7257 26.0886 51.772 26.3652 51.8706C26.5801 51.9508 26.7695 52.0873 26.9134 52.2659C27.0559 52.453 27.1541 52.6699 27.2008 52.9004C27.2594 53.182 27.2864 53.4693 27.2814 53.7569V56.0023C27.2816 56.0223 27.2778 56.0422 27.2703 56.0607C27.2627 56.0792 27.2515 56.096 27.2375 56.1101C27.2233 56.1244 27.2066 56.1356 27.188 56.1432C27.1696 56.1508 27.1498 56.1547 27.1298 56.1546L26.2326 56.1521Z" fill="#142334"/>
<path d="M67.4818 56.152C67.4621 56.152 67.4418 56.1481 67.4234 56.1404C67.405 56.1327 67.3885 56.1215 67.3746 56.1073C67.36 56.0932 67.3492 56.0764 67.3416 56.058C67.334 56.0395 67.3302 56.0197 67.3302 55.9997V53.7892C67.3283 53.6789 67.3194 53.5689 67.3029 53.4599C67.2908 53.3582 67.2597 53.2597 67.2103 53.17C67.1595 53.0848 67.0865 53.0151 66.999 52.9682C66.8854 52.9136 66.7598 52.8879 66.6342 52.8933C66.5035 52.8897 66.3747 52.9185 66.2579 52.9771C66.157 53.0287 66.0695 53.104 66.0041 53.1966C65.9394 53.2898 65.8925 53.3938 65.8652 53.5037C65.8354 53.6171 65.8189 53.7336 65.8163 53.8508V55.9997C65.8163 56.0197 65.8125 56.0395 65.8049 56.058C65.7973 56.0764 65.7865 56.0932 65.7719 56.1073C65.7579 56.1215 65.7415 56.1327 65.7231 56.1404C65.7047 56.1481 65.6843 56.152 65.6647 56.152H64.7561C64.7161 56.152 64.6774 56.136 64.6489 56.1076C64.6203 56.0792 64.6045 56.0406 64.6045 56.0004V53.8508C64.6013 53.5348 64.5321 53.2948 64.3983 53.1306C64.3316 53.0496 64.2466 52.9853 64.1508 52.9427C64.055 52.9 63.9503 52.8803 63.8456 52.8851C63.5823 52.8851 63.378 52.9655 63.234 53.1262C63.09 53.2869 63.0164 53.5284 63.0145 53.8508L63.0176 55.9997C63.0176 56.0198 63.0138 56.0396 63.0062 56.0581C62.9986 56.0766 62.9872 56.0934 62.9732 56.1076C62.9593 56.1217 62.9421 56.133 62.9237 56.1406C62.9053 56.1482 62.8857 56.1521 62.8654 56.152H61.9308C61.9111 56.152 61.8914 56.1481 61.873 56.1405C61.8546 56.1328 61.8375 56.1217 61.8236 56.1076C61.8096 56.0935 61.7982 56.0768 61.7906 56.0584C61.783 56.04 61.7791 56.0203 61.7791 56.0004V51.9442C61.7791 51.9242 61.783 51.9045 61.7906 51.8861C61.7982 51.8677 61.8096 51.851 61.8236 51.8369C61.8375 51.8229 61.8546 51.8117 61.873 51.8041C61.8914 51.7964 61.9111 51.7925 61.9308 51.7925H62.7918C62.8248 51.7926 62.8571 51.8037 62.8838 51.824C62.9104 51.8443 62.9288 51.8727 62.9377 51.9048L63.0335 52.2582C63.1426 52.0719 63.307 51.9244 63.5036 51.8363C63.7213 51.7465 63.9554 51.7057 64.1902 51.7169C64.4255 51.7281 64.6546 51.7909 64.8627 51.901C65.074 52.0325 65.2313 52.2349 65.3068 52.472C65.4591 52.2388 65.6666 52.0471 65.9115 51.9143C66.1723 51.7876 66.4597 51.7257 66.749 51.7341C67.0428 51.7256 67.3352 51.7719 67.6119 51.8706C67.827 51.9495 68.0173 52.0849 68.162 52.2627C68.3047 52.4498 68.4024 52.6667 68.4494 52.8971C68.5078 53.1788 68.535 53.4661 68.53 53.7537V55.9991C68.53 56.0191 68.5262 56.0389 68.5185 56.0573C68.5109 56.0758 68.5001 56.0925 68.4856 56.1067C68.4716 56.1208 68.4551 56.1321 68.4367 56.1398C68.4183 56.1474 68.398 56.1514 68.3783 56.1514L67.4818 56.152Z" fill="#142334"/>
<path d="M29.341 51.917L29.4044 52.4341C29.5848 52.2275 29.8013 52.0555 30.0433 51.9265C30.313 51.7909 30.6121 51.7244 30.9138 51.733C31.476 51.733 31.9368 51.8897 32.2964 52.2031C32.6559 52.5166 32.8858 52.9571 32.986 53.5247C33.0594 53.8986 33.0632 54.2827 32.9974 54.6579C32.9411 54.9748 32.8082 55.2732 32.6104 55.5271C32.4088 55.7743 32.1464 55.9649 31.849 56.0804C31.4942 56.2156 31.1164 56.2803 30.7368 56.2707C30.5015 56.2693 30.2681 56.2293 30.0459 56.1521C29.7872 56.0578 29.5559 55.9008 29.3727 55.6953V57.9762C29.3727 58.0164 29.3567 58.055 29.3283 58.0834C29.2999 58.1119 29.2613 58.1279 29.221 58.1279H28.3461C28.3058 58.1279 28.2672 58.1119 28.2386 58.0835C28.2101 58.0551 28.194 58.0165 28.1938 57.9762V51.9354C28.1938 51.9154 28.1978 51.8956 28.2054 51.8772C28.2131 51.8588 28.2243 51.842 28.2385 51.8279C28.2526 51.8138 28.2694 51.8027 28.2879 51.7951C28.3063 51.7875 28.3261 51.7837 28.3461 51.7837H29.19C29.2271 51.7836 29.2629 51.7971 29.2908 51.8217C29.3186 51.8462 29.3365 51.8801 29.341 51.917ZM30.6251 55.1737C30.8058 55.1773 30.9852 55.1429 31.1518 55.0729C31.2968 55.0109 31.4245 54.9144 31.5236 54.7918C31.6231 54.6644 31.6918 54.5156 31.7241 54.3572C31.7607 54.1716 31.7607 53.9806 31.7241 53.795C31.6907 53.5436 31.5674 53.3128 31.377 53.1453C31.1955 52.9926 30.9581 52.9163 30.6645 52.9163C30.4771 52.9108 30.2912 52.9515 30.1233 53.0349C29.9801 53.1078 29.8559 53.213 29.7604 53.342C29.6686 53.4674 29.6056 53.6115 29.5757 53.7639C29.5443 53.9156 29.5419 54.072 29.5687 54.2246C29.5907 54.3449 29.6291 54.4617 29.6829 54.5716C29.7366 54.6835 29.8079 54.7859 29.8942 54.8749C29.9836 54.965 30.0888 55.038 30.2045 55.09C30.3369 55.1483 30.4805 55.1768 30.6251 55.1737Z" fill="#142334"/>
<path d="M37.3956 56.0181L37.3448 55.6571C37.2209 55.78 37.0863 55.8917 36.9426 55.9908C36.7168 56.1442 36.4537 56.2337 36.1812 56.2497C36.048 56.2586 35.9025 56.263 35.7447 56.263C35.4922 56.2652 35.2416 56.2204 35.0055 56.131C34.7797 56.0453 34.5723 55.9171 34.3945 55.7535C34.2118 55.5838 34.0604 55.3832 33.9472 55.1609C33.6743 54.6136 33.5863 53.9923 33.6966 53.3907C33.7555 53.0841 33.8832 52.7947 34.07 52.5445C34.2568 52.2943 34.498 52.0897 34.7752 51.946C35.0899 51.7846 35.4369 51.6961 35.7904 51.6872C36.0741 51.6849 36.3571 51.7173 36.633 51.7836C36.9089 51.8604 37.1546 52.0198 37.3372 52.2404L37.3816 51.8597C37.3838 51.8412 37.3927 51.8242 37.4066 51.8118C37.4205 51.7994 37.4385 51.7925 37.4572 51.7925H38.3346C38.3749 51.7925 38.4134 51.8085 38.4419 51.8369C38.4703 51.8653 38.4863 51.9039 38.4863 51.9441V55.9972C38.4873 56.0368 38.4727 56.0752 38.4457 56.1042C38.4186 56.1331 38.3812 56.1503 38.3416 56.152H37.5485C37.511 56.1527 37.4745 56.1393 37.4462 56.1146C37.4179 56.0899 37.3999 56.0555 37.3956 56.0181ZM36.1171 52.8292C35.9274 52.826 35.7392 52.8651 35.5664 52.9434C35.4107 53.0146 35.2718 53.1177 35.1584 53.2461C35.0482 53.3741 34.9698 53.5262 34.9294 53.6902C34.8861 53.8656 34.8809 54.0482 34.9142 54.2257C34.9552 54.491 35.0833 54.7353 35.2784 54.9198C35.4712 55.1013 35.725 55.192 36.0397 55.192C36.2185 55.1945 36.3962 55.1649 36.5644 55.1045C36.7132 55.0504 36.8495 54.9666 36.9648 54.8583C37.077 54.7504 37.1662 54.6207 37.227 54.4773C37.2877 54.3339 37.3188 54.1797 37.3182 54.0239C37.3318 53.7097 37.2207 53.4028 37.0092 53.1699C36.8011 52.9428 36.5037 52.8292 36.1171 52.8292Z" fill="#142334"/>
<path d="M59.7723 56.0181L59.7216 55.6571C59.5979 55.7802 59.4633 55.8918 59.3193 55.9908C59.2045 56.0687 59.0795 56.1306 58.9482 56.1748C58.8232 56.2161 58.6931 56.2412 58.5618 56.2497C58.4285 56.2586 58.2832 56.263 58.1252 56.263C57.8727 56.2652 57.6221 56.2204 57.3861 56.131C57.1602 56.0454 56.9527 55.9172 56.7751 55.7535C56.5936 55.5835 56.4432 55.3829 56.3309 55.1609C56.0568 54.6139 55.968 53.9927 56.0772 53.3907C56.1355 53.084 56.2631 52.7945 56.4502 52.5442C56.6368 52.2939 56.8785 52.0894 57.1558 51.946C57.4705 51.7846 57.8175 51.6961 58.1709 51.6872C58.4545 51.6849 58.7375 51.7173 59.0135 51.7836C59.2895 51.8601 59.535 52.0196 59.7171 52.2404L59.7622 51.8597C59.7641 51.8412 59.773 51.8242 59.7869 51.8118C59.8009 51.7994 59.8193 51.7925 59.8377 51.7925H60.7152C60.7348 51.7925 60.7545 51.7964 60.7729 51.804C60.7913 51.8117 60.8084 51.8228 60.8224 51.8369C60.8363 51.851 60.8478 51.8677 60.8554 51.8861C60.863 51.9045 60.8668 51.9242 60.8668 51.9441V55.9972C60.8668 56.0171 60.863 56.0368 60.8554 56.0552C60.8478 56.0736 60.8363 56.0903 60.8224 56.1044C60.8084 56.1185 60.7913 56.1296 60.7729 56.1372C60.7545 56.1449 60.7348 56.1488 60.7152 56.1488H59.9214C59.8853 56.1484 59.8497 56.135 59.8225 56.111C59.7952 56.0871 59.7774 56.0541 59.7723 56.0181ZM58.4945 52.8292C58.3048 52.8259 58.1164 52.8649 57.9438 52.9434C57.7883 53.0146 57.6494 53.1177 57.5358 53.2461C57.4254 53.3739 57.3467 53.5261 57.3068 53.6902C57.2636 53.8656 57.2585 54.0482 57.2915 54.2257C57.3328 54.4909 57.4603 54.7351 57.6551 54.9198C57.848 55.1013 58.1018 55.192 58.4165 55.192C58.5954 55.1945 58.773 55.1649 58.9412 55.1045C59.0896 55.0504 59.2261 54.9666 59.3415 54.8583C59.4538 54.7504 59.5433 54.6207 59.6036 54.4773C59.6645 54.3339 59.6956 54.1797 59.6949 54.0239C59.7089 53.7088 59.5979 53.4009 59.3859 53.1674C59.1778 52.9419 58.8809 52.8292 58.4945 52.8292Z" fill="#142334"/>
<path d="M42.5957 56.1521C42.5555 56.1521 42.5169 56.1361 42.4885 56.1076C42.4601 56.0792 42.4441 56.0406 42.4441 56.0004V53.8597C42.4441 53.743 42.4314 53.6256 42.4168 53.5082C42.404 53.3958 42.3671 53.2876 42.3083 53.191C42.2462 53.0931 42.1584 53.0141 42.0545 52.9625C41.9104 52.8978 41.753 52.8678 41.5951 52.875C41.2957 52.8695 41.0558 52.9617 40.8757 53.1516C40.6955 53.3415 40.6056 53.6036 40.606 53.9377L40.6022 55.9991C40.6024 56.0194 40.5985 56.0394 40.5908 56.0582C40.5831 56.0769 40.5717 56.0939 40.5573 56.1081C40.543 56.1224 40.5259 56.1336 40.5072 56.1411C40.4884 56.1487 40.4683 56.1524 40.448 56.1521H39.5566C39.5164 56.1521 39.4778 56.1361 39.4494 56.1076C39.4209 56.0792 39.4049 56.0406 39.4049 56.0004V51.9398C39.4049 51.9198 39.4087 51.9 39.4163 51.8815C39.4239 51.8631 39.435 51.8463 39.4491 51.8321C39.4632 51.818 39.4799 51.8068 39.4984 51.7991C39.5169 51.7914 39.5366 51.7875 39.5566 51.7875H40.3655C40.4007 51.7874 40.4349 51.7996 40.4621 51.822C40.4893 51.8443 40.5078 51.8754 40.5146 51.91L40.5781 52.2354C40.7535 52.0484 40.9739 51.9095 41.2183 51.8319C41.4092 51.7723 41.6076 51.7396 41.8077 51.7348C42.0763 51.7304 42.3438 51.769 42.6002 51.849C42.8218 51.9199 43.0221 52.0453 43.1826 52.2139C43.3525 52.4008 43.4762 52.6248 43.5443 52.868C43.6332 53.188 43.6738 53.5195 43.6648 53.8515V56.0004C43.6649 56.0204 43.661 56.0402 43.6535 56.0587C43.6458 56.0771 43.6347 56.0939 43.6206 56.108C43.6066 56.1222 43.5898 56.1334 43.5713 56.1411C43.5529 56.1488 43.5332 56.1527 43.5132 56.1527L42.5957 56.1521Z" fill="#142334"/>
<path d="M48.785 51.7837C48.805 51.7836 48.8248 51.7875 48.8433 51.7951C48.8617 51.8027 48.8785 51.8138 48.8926 51.8279C48.9068 51.842 48.918 51.8588 48.9257 51.8772C48.9334 51.8956 48.9373 51.9154 48.9373 51.9354V56.1312C48.9373 56.5542 48.8813 56.9084 48.7692 57.1939C48.6782 57.4528 48.5255 57.6857 48.3243 57.8725C48.1231 58.0592 47.8794 58.1941 47.6144 58.2655C47.3335 58.3435 47.0431 58.3819 46.7515 58.3797C46.4702 58.3816 46.1898 58.3475 45.9172 58.2782C45.6737 58.2173 45.4444 58.1096 45.2421 57.961C45.0457 57.8126 44.8871 57.62 44.7789 57.3988C44.6766 57.1883 44.615 56.9603 44.5975 56.7269C44.5954 56.7059 44.5979 56.6845 44.6045 56.6645C44.6112 56.6444 44.6219 56.6259 44.6361 56.6102C44.6503 56.5944 44.6677 56.5819 44.687 56.5733C44.7063 56.5646 44.7273 56.5601 44.7485 56.5601H45.6558C45.6916 56.5605 45.7261 56.5734 45.7534 56.5966C45.7808 56.6198 45.7992 56.6517 45.8055 56.687C45.8183 56.7679 45.8478 56.8453 45.8922 56.9142C45.9365 56.9831 45.9948 57.0421 46.0631 57.0873C46.2595 57.2069 46.4869 57.2655 46.7166 57.2554C46.9947 57.2624 47.2648 57.1627 47.4717 56.9769C47.6789 56.7895 47.7827 56.5146 47.7832 56.1521V55.6686C47.6396 55.8555 47.4479 55.9998 47.2286 56.0861C46.99 56.1651 46.7395 56.2023 46.4882 56.1959C46.2404 56.1964 45.9939 56.1603 45.7567 56.0886C45.5286 56.0206 45.3203 55.8985 45.1495 55.7327C44.9624 55.5432 44.8213 55.3134 44.7371 55.0608C44.6254 54.7239 44.572 54.3706 44.5791 54.0158L44.5753 51.9373C44.5753 51.897 44.5912 51.8584 44.6196 51.8298C44.648 51.8013 44.6866 51.7852 44.7269 51.785H45.6323C45.6726 51.7852 45.7112 51.8013 45.7396 51.8298C45.768 51.8584 45.7839 51.897 45.7839 51.9373V54.0158C45.7839 54.148 45.7926 54.2801 45.81 54.4111C45.8242 54.5338 45.8678 54.6513 45.9369 54.7537C46.0137 54.8611 46.118 54.9459 46.2389 54.9992C46.4137 55.0716 46.6024 55.1048 46.7915 55.0963C47.1121 55.0845 47.3458 54.9732 47.4926 54.7626C47.6466 54.5283 47.7253 54.2523 47.7178 53.972V51.9366C47.718 51.8964 47.7341 51.8578 47.7626 51.8294C47.7912 51.8009 47.8298 51.785 47.8701 51.785L48.785 51.7837Z" fill="#142334"/>
<path d="M8.94574 53.0565C8.94574 51.2952 10.3048 49.8696 12.2184 49.8696C13.0096 49.8696 13.7259 50.117 14.269 50.551C14.285 50.564 14.2982 50.5801 14.3078 50.5985C14.3173 50.6168 14.3229 50.6369 14.3244 50.6574C14.3258 50.678 14.323 50.6987 14.3161 50.7182C14.3092 50.7376 14.2983 50.7554 14.2842 50.7705L13.6643 51.4488C13.6387 51.4766 13.6037 51.4939 13.5661 51.4973C13.5284 51.5007 13.4909 51.4899 13.4607 51.4672C13.1271 51.2108 12.7157 51.0764 12.2951 51.0865C11.1658 51.0865 10.3429 51.9671 10.3429 53.0584C10.3429 54.1681 11.1467 55.0583 12.2463 55.0583C12.7552 55.0652 13.2472 54.8756 13.6199 54.5292C13.6346 54.5151 13.652 54.5043 13.6711 54.4971C13.69 54.4899 13.7103 54.4867 13.7306 54.4875C13.7509 54.4884 13.7709 54.4932 13.7892 54.5019C13.8076 54.5106 13.824 54.5229 13.8375 54.538L14.4638 55.2436C14.4905 55.2735 14.5042 55.3129 14.502 55.353C14.4997 55.3931 14.4816 55.4306 14.4517 55.4574C13.8705 55.9701 13.1079 56.274 12.2177 56.274C10.3048 56.2721 8.94574 54.8458 8.94574 53.0565Z" fill="#142334"/>
<path d="M49.9228 53.0565C49.9228 51.2952 51.285 49.8708 53.1954 49.8708C53.9866 49.8708 54.7029 50.1182 55.246 50.5522C55.2621 50.5652 55.2753 50.5813 55.2848 50.5997C55.2943 50.618 55.3 50.638 55.3014 50.6586C55.3028 50.6792 55.3 50.6999 55.2931 50.7194C55.2862 50.7388 55.2753 50.7566 55.2613 50.7717L54.6414 51.4487C54.6157 51.4765 54.5807 51.4938 54.5431 51.4972C54.5055 51.5006 54.4679 51.4899 54.4377 51.4671C54.1042 51.2107 53.6928 51.0763 53.2722 51.0864C52.1428 51.0864 51.3199 51.9671 51.3199 53.0584C51.3199 54.1681 52.1238 55.0582 53.2233 55.0582C53.732 55.065 54.2238 54.8755 54.5963 54.5291C54.611 54.5151 54.6284 54.5042 54.6475 54.497C54.6664 54.4899 54.6867 54.4866 54.707 54.4875C54.7273 54.4883 54.7473 54.4932 54.7656 54.5019C54.784 54.5106 54.8004 54.5228 54.814 54.538L55.4402 55.2435C55.4668 55.2734 55.4808 55.3128 55.4783 55.3529C55.4763 55.393 55.4579 55.4305 55.4281 55.4573C54.8476 55.97 54.0843 56.2739 53.1941 56.2739C51.285 56.272 49.9228 54.8457 49.9228 53.0565Z" fill="#142334"/>
<path d="M15.0494 53.9701C15.0494 52.6923 16.09 51.6784 17.4033 51.6784C18.7167 51.6784 19.7655 52.6935 19.7655 53.9701C19.7655 55.2467 18.7256 56.2625 17.404 56.2625C16.0823 56.2625 15.0494 55.2486 15.0494 53.9701ZM18.5581 53.9701C18.5581 53.283 18.0644 52.7716 17.4033 52.7716C16.7422 52.7716 16.2486 53.283 16.2486 53.9701C16.2486 54.668 16.7422 55.1693 17.4033 55.1693C18.0644 55.1693 18.5581 54.6668 18.5581 53.9701Z" fill="#142334"/>
<path d="M45.1532 17.7114H32.323C28.6853 17.7114 25.7363 20.6603 25.7363 24.2981V37.1283C25.7363 40.7661 28.6853 43.715 32.323 43.715H45.1532C48.791 43.715 51.7399 40.7661 51.7399 37.1283V24.2981C51.7399 20.6603 48.791 17.7114 45.1532 17.7114Z" fill="url(#paint0_linear_6635_1557)"/>
<path d="M34.4 36.9112H31.5006C31.3436 36.9108 31.1931 36.8482 31.0822 36.7371C30.9713 36.6259 30.909 36.4753 30.909 36.3183V31.8535C30.9087 31.7312 30.8599 31.6142 30.7734 31.5279C30.6869 31.4417 30.5697 31.3932 30.4475 31.3932C30.3255 31.3936 30.2086 31.4421 30.1224 31.5284C30.0362 31.6146 29.9876 31.7315 29.9872 31.8535V36.3183C29.9876 36.7195 30.1471 37.1042 30.4309 37.3881C30.7146 37.6718 31.0994 37.8313 31.5006 37.8317H34.4V36.9112Z" fill="white"/>
<path d="M47.0248 29.192H46.5047V30.1138H46.571V36.3183C46.5706 36.4755 46.5081 36.6261 46.3969 36.7372C46.2859 36.8483 46.1353 36.9108 45.9782 36.9112H43.0683V37.8317H45.9782C46.3794 37.8313 46.7641 37.6718 47.0479 37.3881C47.3316 37.1043 47.4912 36.7196 47.4916 36.3183V29.6523C47.4916 29.5913 47.4795 29.5309 47.4559 29.4746C47.4324 29.4184 47.398 29.3673 47.3545 29.3245C47.3111 29.2817 47.2595 29.2479 47.2029 29.2252C47.1464 29.2024 47.0858 29.1912 47.0248 29.192Z" fill="white"/>
<path d="M38.7036 33.35C38.3582 33.3505 38.0161 33.283 37.6968 33.1511C37.3776 33.0192 37.0874 32.8257 36.8431 32.5816C36.3503 32.0878 36.0736 31.4186 36.0736 30.721C36.0736 30.0234 36.3503 29.3543 36.8431 28.8604C37.3369 28.3677 38.006 28.091 38.7036 28.091C39.4012 28.091 40.0704 28.3677 40.5642 28.8604C40.6499 28.9469 40.6981 29.0637 40.6981 29.1855C40.6981 29.3073 40.6499 29.4241 40.5642 29.5105C40.4777 29.5963 40.3609 29.6444 40.2392 29.6444C40.1173 29.6444 40.0006 29.5963 39.9141 29.5105C39.5932 29.1901 39.1584 29.0101 38.7049 29.0101C38.2515 29.0101 37.8166 29.1901 37.4958 29.5105C37.1753 29.8314 36.9953 30.2663 36.9953 30.7197C36.9953 31.1732 37.1753 31.608 37.4958 31.9289C37.8169 32.2487 38.2517 32.4283 38.7049 32.4283C39.1582 32.4283 39.593 32.2487 39.9141 31.9289C39.9568 31.8861 40.0075 31.8522 40.0632 31.829C40.119 31.8059 40.1787 31.7939 40.2392 31.7939C40.2995 31.7939 40.3593 31.8059 40.4151 31.829C40.4708 31.8522 40.5216 31.8861 40.5642 31.9289C40.6499 32.0153 40.6981 32.1321 40.6981 32.2539C40.6981 32.3758 40.6499 32.4925 40.5642 32.579C40.32 32.8235 40.0301 33.0177 39.7108 33.1499C39.3914 33.2822 39.0492 33.3502 38.7036 33.35Z" fill="white"/>
<path d="M38.7348 39.011C38.66 39.0109 38.5864 38.9925 38.5203 38.9577C38.4542 38.9229 38.3975 38.8724 38.3552 38.8108L34.7628 33.5736C34.1523 32.6847 33.8583 31.6163 33.9279 30.5403C33.9974 29.4641 34.4265 28.4426 35.1463 27.6396C35.598 27.1347 36.151 26.7306 36.7693 26.4537C37.3876 26.1769 38.0573 26.0333 38.7348 26.0326C39.412 26.0323 40.0814 26.175 40.6995 26.4512C41.3178 26.7275 41.8706 27.1311 42.322 27.6357C43.0427 28.4379 43.4731 29.4591 43.5438 30.5352C43.6145 31.6114 43.3216 32.68 42.7121 33.5697L39.1197 38.8108C39.0769 38.8732 39.0193 38.924 38.9522 38.9589C38.8851 38.9938 38.8105 39.0118 38.7348 39.011ZM38.7348 26.9531C38.1869 26.9538 37.6453 27.07 37.1453 27.294C36.6453 27.518 36.1981 27.8449 35.8328 28.2533C35.2496 28.9024 34.9019 29.7288 34.8455 30.5996C34.7891 31.4703 35.0274 32.3347 35.5221 33.0536L38.7348 37.7342L41.9463 33.0536C42.441 32.3351 42.6794 31.471 42.6233 30.6004C42.5672 29.7299 42.2197 28.9036 41.6368 28.2546C41.2717 27.846 40.8245 27.5189 40.3246 27.2946C39.8245 27.0704 39.2828 26.954 38.7348 26.9531Z" fill="white"/>
<path d="M45.9716 24.7454H43.1398C43.0259 24.7451 42.9145 24.7121 42.819 24.6503C42.7233 24.5886 42.6473 24.5006 42.6003 24.3969L42.1075 23.3035C41.9872 23.0383 41.7932 22.8133 41.5487 22.6554C41.304 22.4975 41.0191 22.4133 40.728 22.4128H36.7221C36.4354 22.4135 36.1546 22.4953 35.9124 22.6488C35.6701 22.8022 35.4762 23.0211 35.353 23.2801L34.8226 24.406C34.7744 24.5074 34.6986 24.5931 34.6038 24.6531C34.509 24.7132 34.3991 24.7452 34.2869 24.7454H31.498C31.0968 24.7461 30.7123 24.9057 30.4286 25.1894C30.1449 25.4731 29.9853 25.8576 29.9846 26.2588V29.6523C29.9844 29.7128 29.9962 29.7728 30.0193 29.8288C30.0423 29.8848 30.0762 29.9357 30.1189 29.9786C30.1617 30.0214 30.2125 30.0554 30.2684 30.0787C30.3243 30.1019 30.3843 30.1138 30.4449 30.1138H31.0351V29.192H30.9051V26.2588C30.9055 26.1018 30.9681 25.9513 31.0792 25.8404C31.1904 25.7295 31.341 25.6672 31.498 25.6672H34.2869C34.5737 25.6665 34.8543 25.5845 35.0964 25.4308C35.3385 25.2771 35.5321 25.0579 35.6547 24.7987L36.1865 23.674C36.2343 23.5723 36.31 23.4863 36.4049 23.426C36.4997 23.3656 36.6097 23.3335 36.7221 23.3334H40.728C40.8418 23.334 40.9531 23.3671 41.0486 23.4288C41.1443 23.4905 41.2202 23.5783 41.2676 23.6818L41.7603 24.7766C41.8806 25.0417 42.0746 25.2667 42.3192 25.4246C42.5639 25.5825 42.8487 25.6667 43.1398 25.6672H45.9716C46.1287 25.6672 46.2793 25.7295 46.3904 25.8404C46.5016 25.9513 46.5641 26.1018 46.5645 26.2588V27.7046C46.5644 27.7651 46.5761 27.8251 46.5992 27.8811C46.6222 27.9371 46.6561 27.988 46.6988 28.0309C46.7416 28.0738 46.7924 28.1078 46.8484 28.131C46.9043 28.1542 46.9642 28.1662 47.0248 28.1662C47.0854 28.1662 47.1453 28.1542 47.2012 28.131C47.2571 28.1078 47.308 28.0738 47.3507 28.0309C47.3935 27.988 47.4273 27.9371 47.4503 27.8811C47.4735 27.8251 47.4852 27.7651 47.485 27.7046V26.2588C47.4844 25.8576 47.3247 25.4731 47.041 25.1894C46.7573 24.9057 46.3727 24.7461 45.9716 24.7454Z" fill="white"/>
<path d="M34.7341 29.6523C34.7341 29.5302 34.6857 29.4132 34.5993 29.3269C34.513 29.2405 34.396 29.192 34.2739 29.192H30.909V30.1139H34.2739C34.3344 30.1139 34.3944 30.1019 34.4503 30.0787C34.5062 30.0555 34.557 30.0215 34.5998 29.9786C34.6426 29.9357 34.6764 29.8848 34.6995 29.8288C34.7225 29.7729 34.7343 29.7128 34.7341 29.6523Z" fill="url(#paint1_linear_6635_1557)"/>
<path d="M42.7002 29.6522C42.7002 29.5302 42.7487 29.4131 42.835 29.3268C42.9213 29.2405 43.0385 29.192 43.1604 29.192H46.5253V30.1138H43.1604C43.1 30.1138 43.04 30.1019 42.984 30.0786C42.9281 30.0554 42.8774 30.0214 42.8346 29.9785C42.7918 29.9356 42.7579 29.8848 42.7349 29.8288C42.7119 29.7728 42.7 29.7128 42.7002 29.6522Z" fill="url(#paint2_linear_6635_1557)"/>
<path d="M39.2764 37.3701C39.2764 37.248 39.3248 37.131 39.4112 37.0447C39.4975 36.9584 39.6145 36.9099 39.7366 36.9099H43.1028V37.8304H39.7327C39.6114 37.829 39.4956 37.7799 39.4101 37.6939C39.3247 37.6077 39.2767 37.4914 39.2764 37.3701Z" fill="url(#paint3_linear_6635_1557)"/>
<path d="M38.1842 37.3728C38.1842 37.2507 38.1357 37.1337 38.0494 37.0473C37.9631 36.961 37.846 36.9125 37.7239 36.9125H34.3577V37.833H37.7278C37.8491 37.8316 37.965 37.7826 38.0504 37.6965C38.1358 37.6103 38.1838 37.4941 38.1842 37.3728Z" fill="url(#paint4_linear_6635_1557)"/>
</g>
<defs>
<filter id="filter0_d_6635_1557" x="0.5" y="0.782898" width="82" height="78" filterUnits="userSpaceOnUse" color-interpolation-filters="sRGB">
<feFlood flood-opacity="0" result="BackgroundImageFix"/>
<feColorMatrix in="SourceAlpha" type="matrix" values="0 0 0 0 0 0 0 0 0 0 0 0 0 0 0 0 0 0 127 0" result="hardAlpha"/>
<feOffset dx="2" dy="2"/>
<feGaussianBlur stdDeviation="1.5"/>
<feComposite in2="hardAlpha" operator="out"/>
<feColorMatrix type="matrix" values="0 0 0 0 0 0 0 0 0 0 0 0 0 0 0 0 0 0 0.1 0"/>
<feBlend mode="normal" in2="BackgroundImageFix" result="effect1_dropShadow_6635_1557"/>
<feBlend mode="normal" in="SourceGraphic" in2="effect1_dropShadow_6635_1557" result="shape"/>
</filter>
<linearGradient id="paint0_linear_6635_1557" x1="30.6692" y1="20.499" x2="40.9406" y2="33.5008" gradientUnits="userSpaceOnUse">
<stop stop-color="#3A85DB"/>
<stop offset="1" stop-color="#0967D2"/>
</linearGradient>
<linearGradient id="paint1_linear_6635_1557" x1="30.9051" y1="29.6523" x2="34.7302" y2="29.6523" gradientUnits="userSpaceOnUse">
<stop offset="0.1" stop-color="white"/>
<stop offset="0.85" stop-color="white" stop-opacity="0"/>
</linearGradient>
<linearGradient id="paint2_linear_6635_1557" x1="46.5292" y1="29.6522" x2="42.7041" y2="29.6522" gradientUnits="userSpaceOnUse">
<stop offset="0.1" stop-color="white"/>
<stop offset="0.85" stop-color="white" stop-opacity="0"/>
</linearGradient>
<linearGradient id="paint3_linear_6635_1557" x1="43.0683" y1="37.3714" x2="39.2419" y2="37.3714" gradientUnits="userSpaceOnUse">
<stop stop-color="white"/>
<stop offset="0.85" stop-color="white" stop-opacity="0"/>
</linearGradient>
<linearGradient id="paint4_linear_6635_1557" x1="34.4" y1="37.3715" x2="38.2264" y2="37.3715" gradientUnits="userSpaceOnUse">
<stop stop-color="white"/>
<stop offset="0.85" stop-color="white" stop-opacity="0"/>
</linearGradient>
</defs>
</svg>
