<svg width="53" height="40" viewBox="0 0 53 40" fill="none" xmlns="http://www.w3.org/2000/svg">
<path d="M43.374 15.4055V7.32112H38.0476V10.6009L26.6937 0.388035L13.4978 12.2587L15.4268 11.4758L15.9794 12.5759L18.42 11.5833L17.8675 10.4832L22.1399 8.74869C25.9569 7.19834 30.3215 8.57983 31.4522 9.12219C32.6291 9.68503 32.4807 11.1535 31.3652 11C30.2447 10.8516 28.5101 10.5856 26.8677 11.2507C25.8341 11.6703 24.12 12.6936 24.6419 13.7374L27.1184 18.6699C27.804 18.9564 28.3822 19.4476 28.7148 20.1128L38.37 39.3463H43.3689V23.5972H52.4869L43.3689 15.4004L43.374 15.4055Z" fill="#00D7D7"/>
<path d="M22.759 20.2254L19.8016 14.3309L17.3609 15.3236L17.9084 16.4186L14.2449 17.9075L12.06 13.5583L0.885254 23.6075H9.98777V39.3566H31.2527L22.805 22.5279C22.4264 21.7706 22.4367 20.9468 22.759 20.2305V20.2254ZM17.3609 33.4827H14.5519V30.9704H17.3609V33.4827ZM17.3609 30.3461H14.5519V27.839H17.3609V30.3461ZM20.8454 33.4827H18.0568V30.9704H20.8454V33.4827ZM20.8454 30.3461H18.0568V27.839H20.8454V30.3461Z" fill="#041649"/>
</svg>
