<svg width="218" height="66" viewBox="0 0 218 66" fill="none" xmlns="http://www.w3.org/2000/svg">
<g clip-path="url(#clip0_201_17997)">
<path d="M82.0622 25.2929V28.6206H75.5675V48.0336H71.7611V28.6206H65.2329V25.2929H82.0622Z" fill="black"/>
<path d="M95.9366 40.8178C95.9366 45.2014 93.8053 48.3313 88.9813 48.3313C84.1573 48.3313 81.9946 45.3654 81.9946 40.8178V38.7416C81.9946 33.8974 84.5531 31.2595 88.9813 31.2595C93.4095 31.2595 95.9366 33.8951 95.9366 38.7416V40.8178ZM92.459 40.7189V38.8068C92.459 35.9398 91.3117 34.3243 88.9813 34.3243C86.6509 34.3243 85.4701 35.9712 85.4701 38.8068V40.7189C85.4701 43.2893 86.3222 45.3003 88.9813 45.3003C91.4749 45.3003 92.459 43.2893 92.459 40.7189Z" fill="black"/>
<path d="M98.1665 31.5576H100.267V27.9311H103.744V31.5576H107.222V34.5886H103.744V42.1359C103.744 44.048 104.039 44.8703 105.876 44.8703H107.22V48.0339H105.612C101.676 48.0339 100.264 46.6836 100.264 42.7942V34.5886H98.1643V31.5576H98.1665Z" fill="black"/>
<path d="M115.882 38.3125H119.424V36.9284C119.424 34.8523 118.637 34.2906 116.177 34.2906C114.406 34.2906 113.52 34.4883 112.733 35.7735L110.208 33.994C111.389 32.0504 113.16 31.2595 116.407 31.2595C120.607 31.2595 122.871 32.5784 122.871 36.9621V48.037H119.427V46.5203C118.639 47.8055 117.622 48.3336 115.622 48.3336C112.013 48.3336 109.783 46.4889 109.783 43.1927C109.783 39.6651 112.375 38.3147 115.884 38.3147L115.882 38.3125ZM119.424 41.0155H116.143C114.077 41.0155 113.225 41.7412 113.225 43.1905C113.225 44.6397 114.341 45.3317 116.014 45.3317C118.145 45.3317 119.424 44.6734 119.424 41.8064V41.0155Z" fill="black"/>
<path d="M127.1 25.2929H130.609V42.0344C130.609 43.814 130.937 44.9352 133.102 44.9352V48.0336C128.837 48.0336 127.1 46.6495 127.1 42.859V25.2929Z" fill="black"/>
<path d="M149.243 30.796C148.127 29.2479 146.914 28.3244 144.354 28.3244C142.025 28.3244 140.646 29.3782 140.646 31.2903C140.646 33.4652 142.352 34.3236 145.501 35.0156C150.061 36.0042 152.423 37.7186 152.423 41.8057C152.423 45.2007 150.159 48.3306 144.714 48.3306C140.842 48.3306 138.121 47.1443 136.251 44.6053L139.237 42.5292C140.581 44.1447 141.927 45.0007 144.519 45.0007C147.635 45.0007 148.621 43.6167 148.621 41.9697C148.621 40.1565 147.603 39.0375 143.667 38.1792C139.304 37.2557 136.844 35.1482 136.844 31.2903C136.844 27.8615 139.073 24.9945 144.389 24.9945C147.999 24.9945 150.524 26.2146 152.132 28.7198L149.245 30.796H149.243Z" fill="black"/>
<path d="M168.498 45.5295C167.416 47.473 165.479 48.3313 162.659 48.3313C158.065 48.3313 155.442 45.3654 155.442 40.8829V38.6428C155.442 33.8974 158.099 31.2595 162.791 31.2595C165.285 31.2595 167.351 32.183 168.498 33.9288L165.808 35.8072C165.184 34.9174 164.135 34.3243 162.724 34.3243C160.165 34.3243 158.92 35.9712 158.92 38.8068V40.7189C158.92 43.2893 159.839 45.3003 162.724 45.3003C164.101 45.3003 165.217 44.806 165.841 43.6848L168.498 45.5295Z" fill="black"/>
<path d="M184.344 40.8178C184.344 45.2014 182.21 48.3313 177.389 48.3313C172.567 48.3313 170.402 45.3654 170.402 40.8178V38.7416C170.402 33.8974 172.96 31.2595 177.389 31.2595C181.817 31.2595 184.344 33.8951 184.344 38.7416V40.8178ZM180.866 40.7189V38.8068C180.866 35.9398 179.719 34.3243 177.389 34.3243C175.058 34.3243 173.877 35.9712 173.877 38.8068V40.7189C173.877 43.2893 174.729 45.3003 177.389 45.3003C179.882 45.3003 180.866 43.2893 180.866 40.7189Z" fill="black"/>
<path d="M201.828 40.8829C201.828 45.1677 199.728 48.3313 195.365 48.3313C193.462 48.3313 192.216 47.8707 191.395 46.9809V54.2968H187.886V31.5561H191.395V32.875C192.216 31.8527 193.529 31.2595 195.398 31.2595C199.335 31.2595 201.828 33.9288 201.828 38.6428V40.8829ZM198.351 40.7189V38.8068C198.351 35.9398 197.203 34.3243 194.873 34.3243C192.543 34.3243 191.429 35.9061 191.395 38.6091V40.7189C191.395 43.2893 192.216 45.3003 194.873 45.3003C197.367 45.3003 198.351 43.2893 198.351 40.7189Z" fill="black"/>
<path d="M217.769 45.5295C216.622 47.5404 214.784 48.3313 211.896 48.3313C207.204 48.3313 204.713 45.2666 204.713 40.8829V38.6428C204.713 33.7985 207.075 31.2595 211.373 31.2595C215.671 31.2595 218 33.9625 218 38.8405V40.6537H208.191V40.7189C208.191 43.2893 209.175 45.3003 211.767 45.3003C213.701 45.3003 214.488 44.7071 215.146 43.6848L217.769 45.5295ZM208.224 37.9485H214.491C214.359 35.5421 213.375 34.3243 211.375 34.3243C209.376 34.3243 208.39 35.7083 208.226 37.9485H208.224Z" fill="black"/>
<path d="M15.1275 30.7997H10.3884V52.3697H15.1275V30.7997Z" fill="black"/>
<path d="M49.4478 30.7997H44.7087V52.3697H49.4478V30.7997Z" fill="black"/>
<path d="M45.9702 16.0142H41.0544V28.3518H45.9702V16.0142Z" fill="black"/>
<path d="M29.6241 33.0961H25.395V38.0347H29.6241V33.0961Z" fill="black"/>
<path d="M34.5868 33.0961H30.3577V38.0347H34.5868V33.0961Z" fill="black"/>
<path d="M29.6241 38.7027H25.395V43.6413H29.6241V38.7027Z" fill="black"/>
<path d="M34.5868 38.7027H30.3577V43.6413H34.5868V38.7027Z" fill="black"/>
<path d="M10.0148 36.1547L29.8722 21.0782L50.461 36.1547H60.7128L29.8074 13.5242L0 36.1547H10.0148Z" fill="black"/>
<path d="M44.3801 2.0096C35.2018 -2.12241 23.7198 2.49493 15.4204 12.5857C22.9684 4.82494 32.6298 1.6501 40.1689 5.40464C50.5348 10.5657 52.9592 26.8691 45.5834 41.8153C38.2075 56.7616 23.8272 64.6953 13.4612 59.532C10.8446 58.2288 8.73339 56.2156 7.15894 53.6923C9.14714 58.3726 12.381 62.0305 16.7309 63.9898C28.7049 69.3823 44.6016 59.878 52.2368 42.7613C59.872 25.6468 56.3518 7.39987 44.3779 2.0096H44.3801Z" fill="#306FD5"/>
</g>
<defs>
<clipPath id="clip0_201_17997">
<rect width="218" height="65" fill="white" transform="translate(0 0.5)"/>
</clipPath>
</defs>
</svg>
