<svg width="36" height="37" viewBox="0 0 36 37" fill="none" xmlns="http://www.w3.org/2000/svg">
<g filter="url(#filter0_d_5389_398)">
<rect x="2" y="1.5" width="32" height="32" rx="16" fill="white"/>
<rect x="2.5" y="2" width="31" height="31" rx="15.5" stroke="#D1D5DB"/>
<path d="M23 12.5H13V22.5C13 23.9167 14.0833 25 15.5 25H20.5C21.9167 25 23 23.9167 23 22.5V12.5Z" stroke="#374151" stroke-width="1.5" stroke-linecap="round" stroke-linejoin="round"/>
<path d="M15.5 12.5H20.5V11.6667C20.5 10.75 19.75 10 18.8333 10H17.1667C16.25 10 15.5 10.75 15.5 11.6667V12.5Z" stroke="#374151" stroke-width="1.5" stroke-linecap="round" stroke-linejoin="round"/>
<path d="M11.3334 12.5H24.6667" stroke="#374151" stroke-width="1.5" stroke-linecap="round" stroke-linejoin="round"/>
<path d="M19.6666 17.0833V20.4166" stroke="#374151" stroke-width="1.5" stroke-linecap="round" stroke-linejoin="round"/>
<path d="M16.3334 17.0833V20.4166" stroke="#374151" stroke-width="1.5" stroke-linecap="round" stroke-linejoin="round"/>
</g>
<defs>
<filter id="filter0_d_5389_398" x="0" y="0.5" width="36" height="36" filterUnits="userSpaceOnUse" color-interpolation-filters="sRGB">
<feFlood flood-opacity="0" result="BackgroundImageFix"/>
<feColorMatrix in="SourceAlpha" type="matrix" values="0 0 0 0 0 0 0 0 0 0 0 0 0 0 0 0 0 0 127 0" result="hardAlpha"/>
<feOffset dy="1"/>
<feGaussianBlur stdDeviation="1"/>
<feColorMatrix type="matrix" values="0 0 0 0 0.0627451 0 0 0 0 0.0941176 0 0 0 0 0.156863 0 0 0 0.05 0"/>
<feBlend mode="normal" in2="BackgroundImageFix" result="effect1_dropShadow_5389_398"/>
<feBlend mode="normal" in="SourceGraphic" in2="effect1_dropShadow_5389_398" result="shape"/>
</filter>
</defs>
</svg>
