<svg width="28" height="31" viewBox="0 0 28 31" fill="none" xmlns="http://www.w3.org/2000/svg">
<g id="door-closed">
<path id="Vector" d="M3.6001 3.36585C3.6001 2.72933 3.85295 2.11888 4.30304 1.66879C4.75313 1.21871 5.36358 0.965851 6.0001 0.965851H22.0001C22.6366 0.965851 23.2471 1.21871 23.6972 1.66879C24.1472 2.11888 24.4001 2.72933 24.4001 3.36585V29.7659H3.6001V3.36585Z" fill="#9BD0FF"/>
<path id="Vector_2" d="M26.8 30.9659H1.2C0.88174 30.9659 0.576515 30.8395 0.351472 30.6144C0.126428 30.3894 0 30.0841 0 29.7659C0 29.4476 0.126428 29.1424 0.351472 28.9173C0.576515 28.6923 0.88174 28.5659 1.2 28.5659H26.8C27.1183 28.5659 27.4235 28.6923 27.6485 28.9173C27.8736 29.1424 28 29.4476 28 29.7659C28 30.0841 27.8736 30.3894 27.6485 30.6144C27.4235 30.8395 27.1183 30.9659 26.8 30.9659Z" fill="#306FD5"/>
<path id="Vector_3" d="M18.8321 16.9659C18.4078 16.968 18 16.8014 17.6984 16.5029C17.3969 16.2043 17.2263 15.7982 17.2241 15.3739C17.222 14.9495 17.3886 14.5417 17.6871 14.2401C17.9857 13.9386 18.3918 13.768 18.8161 13.7659H18.8321C19.2565 13.7659 19.6635 13.9344 19.9635 14.2345C20.2636 14.5345 20.4321 14.9415 20.4321 15.3659C20.4321 15.7902 20.2636 16.1972 19.9635 16.4972C19.6635 16.7973 19.2565 16.9659 18.8321 16.9659Z" fill="#306FD5"/>
</g>
</svg>
