<svg width="64" height="65" viewBox="0 0 64 65" fill="none" xmlns="http://www.w3.org/2000/svg">
<g clip-path="url(#clip0_888_176)">
<path d="M39.2729 33.3172C37.6729 33.3172 36.2001 33.3172 36.0001 33.3172C35.8001 33.3172 35.6365 33.1302 35.6365 32.9016C35.6365 32.6731 35.6365 30.9899 35.6365 29.1614V25.8367C35.6365 24.0081 34.5237 23.2992 33.1631 24.2607L23.5652 31.0481C22.2044 32.0098 20.9281 32.914 20.7281 33.057C20.5281 33.2 20.3638 33.1302 20.3638 32.9016C20.3638 32.6731 20.3638 30.9899 20.3638 29.1614V25.8367C20.3638 24.0081 19.2365 23.2734 17.8598 24.2034L6.86846 31.6258C5.49104 32.5559 4.36377 34.8133 4.36377 36.6419V60.7458C4.36377 61.0343 4.40667 61.3093 4.46775 61.577H44.5223L45.1179 33.3172H39.2729Z" fill="#9BD0FF"/>
<path d="M12.3634 53.6809H15.9997C16.6019 53.6809 17.0906 53.1223 17.0906 52.4342C17.0906 51.745 16.6019 51.1874 15.9997 51.1874H12.3634C11.7612 51.1874 11.2725 51.7452 11.2725 52.4342C11.2725 53.1223 11.7612 53.6809 12.3634 53.6809Z" fill="#0C1D3E"/>
<path d="M12.3634 45.3692H15.9997C16.6019 45.3692 17.0906 44.8106 17.0906 44.1224C17.0906 43.4334 16.6019 42.8756 15.9997 42.8756H12.3634C11.7612 42.8756 11.2725 43.4334 11.2725 44.1224C11.2725 44.8106 11.7612 45.3692 12.3634 45.3692Z" fill="#0C1D3E"/>
<path d="M22.545 53.6809H26.1814C26.7835 53.6809 27.2723 53.1223 27.2723 52.4342C27.2723 51.745 26.7835 51.1874 26.1814 51.1874H22.545C21.9429 51.1874 21.4541 51.7452 21.4541 52.4342C21.4541 53.1223 21.9429 53.6809 22.545 53.6809Z" fill="#0C1D3E"/>
<path d="M22.545 45.3691H26.1814C26.7835 45.3691 27.2723 44.8105 27.2723 44.1223C27.2723 43.4334 26.7835 42.8756 26.1814 42.8756H22.545C21.9429 42.8756 21.4541 43.4334 21.4541 44.1223C21.4541 44.8105 21.9429 45.3691 22.545 45.3691Z" fill="#0C1D3E"/>
<path d="M32.7271 53.6809H36.3635C36.9656 53.6809 37.4544 53.1223 37.4544 52.4342C37.4544 51.745 36.9656 51.1874 36.3635 51.1874H32.7271C32.125 51.1874 31.6362 51.7452 31.6362 52.4342C31.6362 53.1223 32.125 53.6809 32.7271 53.6809Z" fill="#0C1D3E"/>
<path d="M32.7271 45.3691H36.3635C36.9656 45.3691 37.4544 44.8105 37.4544 44.1223C37.4544 43.4334 36.9656 42.8756 36.3635 42.8756H32.7271C32.125 42.8756 31.6362 43.4334 31.6362 44.1223C31.6362 44.8105 32.125 45.3691 32.7271 45.3691Z" fill="#0C1D3E"/>
<path d="M62.9091 61.5768H1.0902C0.488068 61.5768 0 62.1354 0 62.8236C0 63.5117 0.488068 64.0703 1.0902 64.0703H62.9091C63.5112 64.0703 64 63.5117 64 62.8236C64 62.1354 63.5112 61.5768 62.9091 61.5768Z" fill="#8E9394"/>
<path d="M60.2162 61.5769L58.5426 5.05497C58.4619 2.31373 56.4314 0.0703888 54.0314 0.0703888H50.182C47.782 0.0703888 45.7717 2.31373 45.7129 5.05578L44.5225 61.5769H60.2162Z" fill="#306FD5"/>
</g>
<defs>
<clipPath id="clip0_888_176">
<rect width="64" height="64" fill="white" transform="translate(0 0.0703888)"/>
</clipPath>
</defs>
</svg>
