<svg width="33" height="33" viewBox="0 0 33 33" fill="none" xmlns="http://www.w3.org/2000/svg">
<g id="Scope Icons" clip-path="url(#clip0_6875_4418)">
<path id="Rectangle 26" d="M0.861328 14.8146L0.861328 13.117L31.6389 13.117V14.8146L0.861328 14.8146Z" fill="#306FD5"/>
<path id="Rectangle 27" d="M0.861328 21.3269L0.861328 19.6293H31.6389V21.3269L0.861328 21.3269Z" fill="#306FD5"/>
<path id="Rectangle 22" d="M2.94824 8.30237C2.94824 7.1978 3.84367 6.30237 4.94824 6.30237C6.05281 6.30237 6.94824 7.1978 6.94824 8.30237V27.6293H2.94824V8.30237Z" fill="#9BD0FF"/>
<path id="Rectangle 23" d="M10.9482 8.30237C10.9482 7.1978 11.8437 6.30237 12.9482 6.30237C14.0528 6.30237 14.9482 7.1978 14.9482 8.30237V27.6293H10.9482V8.30237Z" fill="#9BD0FF"/>
<path id="Rectangle 24" d="M18.25 8.30237C18.25 7.1978 19.1454 6.30237 20.25 6.30237C21.3546 6.30237 22.25 7.1978 22.25 8.30237V27.6293H18.25V8.30237Z" fill="#9BD0FF"/>
<path id="Rectangle 25" d="M25.5522 8.30237C25.5522 7.1978 26.4477 6.30237 27.5522 6.30237C28.6568 6.30237 29.5522 7.1978 29.5522 8.30237V27.6293H25.5522V8.30237Z" fill="#9BD0FF"/>
</g>
<defs>
<clipPath id="clip0_6875_4418">
<rect width="32" height="32" fill="white" transform="translate(0.25 0.96582)"/>
</clipPath>
</defs>
</svg>
