<svg width="24" height="17" viewBox="0 0 24 17" fill="none" xmlns="http://www.w3.org/2000/svg">
<rect y="0.5" width="24" height="16" rx="4" fill="#F44336"/>
<path d="M2.71733 12V4.72727H5.4446C6.00331 4.72727 6.47206 4.83144 6.85085 5.03977C7.23201 5.24811 7.51965 5.53456 7.71378 5.89915C7.91027 6.26136 8.00852 6.6733 8.00852 7.13494C8.00852 7.60133 7.91027 8.01562 7.71378 8.37784C7.51728 8.74006 7.22727 9.02533 6.84375 9.23366C6.46023 9.43963 5.98793 9.54261 5.42685 9.54261H3.61932V8.45952H5.24929C5.57599 8.45952 5.84351 8.4027 6.05185 8.28906C6.26018 8.17543 6.41406 8.01918 6.51349 7.82031C6.61529 7.62145 6.66619 7.39299 6.66619 7.13494C6.66619 6.87689 6.61529 6.64962 6.51349 6.45312C6.41406 6.25663 6.259 6.10393 6.0483 5.99503C5.83996 5.88376 5.57126 5.82812 5.24219 5.82812H4.0348V12H2.71733ZM11.6174 12H9.15288V4.72727H11.6671C12.3891 4.72727 13.0094 4.87287 13.5279 5.16406C14.0487 5.45289 14.4488 5.86837 14.7282 6.41051C15.0075 6.95265 15.1472 7.60133 15.1472 8.35653C15.1472 9.11411 15.0063 9.76515 14.7246 10.3097C14.4453 10.8542 14.0416 11.272 13.5137 11.5632C12.9881 11.8544 12.356 12 11.6174 12ZM10.4703 10.8601H11.5534C12.0601 10.8601 12.4827 10.7678 12.8212 10.5831C13.1597 10.3961 13.4142 10.1179 13.5847 9.74858C13.7551 9.37689 13.8404 8.91288 13.8404 8.35653C13.8404 7.80019 13.7551 7.33854 13.5847 6.97159C13.4142 6.60227 13.1621 6.32647 12.8283 6.14418C12.4969 5.95952 12.0849 5.86719 11.5925 5.86719H10.4703V10.8601ZM16.399 12V4.72727H21.0581V5.83168H17.7164V7.80611H20.7385V8.91051H17.7164V12H16.399Z" fill="white"/>
</svg>
