<svg width="57" height="49" viewBox="0 0 57 49" fill="none" xmlns="http://www.w3.org/2000/svg">
<g id="Frame 722">
<g id="Group 719">
<path id="Vector" d="M25.2913 42.203V45.8823C25.2913 46.1783 25.2349 46.3968 25.1221 46.5166C25.0094 46.6364 24.8402 46.6999 24.6076 46.6999C24.1494 46.6999 23.9309 46.4602 23.9168 45.9457V42.203H22.3309V45.9175C22.338 46.5519 22.5494 47.0594 22.9583 47.4259C23.36 47.7924 23.9168 47.9757 24.6146 47.9757C25.0275 47.9845 25.4371 47.9002 25.8129 47.729C26.1582 47.5668 26.4261 47.3201 26.6094 47.003C26.7926 46.6858 26.8842 46.3122 26.8842 45.8893V42.203H25.2913ZM14.9371 45.0717C14.9371 47.1651 16.1847 48.0391 17.6085 48.0391C18.849 48.0391 19.7935 47.2144 19.9063 46.0091H18.3415C18.3063 46.3475 18.0314 46.8127 17.4886 46.7633C16.8402 46.7069 16.6076 46.0091 16.6217 45.0717C16.6217 44.0426 16.9318 43.3801 17.4886 43.366C17.9961 43.3448 18.2851 43.6902 18.3415 44.1342H19.9063C19.7653 42.8867 18.8067 42.1043 17.4605 42.1043C15.945 42.1113 14.9371 43.2884 14.9371 45.0717ZM7.92389 45.0717C7.92389 47.1651 9.17147 48.0391 10.5953 48.0391C11.8358 48.0391 12.7803 47.2144 12.8931 46.0091H11.3283C11.2931 46.3475 11.0182 46.8127 10.4754 46.7633C9.82697 46.7069 9.59438 46.0091 9.60847 45.0717C9.60847 44.0426 9.9186 43.3801 10.4754 43.366C10.9829 43.3448 11.2719 43.6902 11.3283 44.1342H12.8931C12.7521 42.8867 11.7935 42.1043 10.4472 42.1043C8.93182 42.1113 7.92389 43.2884 7.92389 45.0717ZM4.11068 42.203H2.59526L0.374993 47.9193H2.05253L2.41905 46.9043H4.30098L4.67455 47.9193H6.34504L4.11068 42.203ZM2.89129 45.6144L3.35649 44.3246L3.82874 45.6144H2.89129Z" fill="#24476C"/>
<path id="Vector_2" d="M54.7186 45.0436L56.3327 42.1819H54.493L53.6824 43.8313L52.8648 42.1819H51.0322L52.6463 45.0436L50.9899 47.9616H52.8366L53.6824 46.27L54.5212 47.9616H56.375L54.7186 45.0436ZM46.5212 42.2031V45.2268L44.8014 42.2031H43.2648V47.9616H44.8578V44.9308L46.5847 47.9616H48.1142V42.2031H46.5212ZM39.0146 42.1819L38.0913 44.3528L37.1679 42.1819H35.4269L37.2807 45.8753V47.9616H38.9018V45.8753L40.7626 42.1819H39.0146ZM31.4023 46.6506V42.2031H29.8093V47.9405H33.9468V46.6506H31.4023Z" fill="#F5863B"/>
</g>
<g id="Group">
<path id="Vector_3" d="M34.5886 13.0803L34.6393 12.7513L29.0967 15.3581L30.5899 15.4593L29.4004 18.2939H27.2491L26.0597 15.4593L27.5529 15.3581L22.0103 12.7513L22.0609 13.0803C22.5418 15.7883 23.7566 17.155 25.68 17.1803L25.8066 17.9395L25.2245 18.1926C23.959 18.6988 23.0985 19.7111 22.6683 21.179L22.643 21.3056L25.7306 23.3809L25.8319 23.2543C26.5658 22.3938 27.4263 21.8877 28.3374 21.7105C29.2485 21.8877 30.109 22.3938 30.843 23.2543L30.9442 23.3809L34.0318 21.3056L34.0065 21.179C33.8484 20.514 33.534 19.8962 33.0895 19.3768C32.6449 18.8575 32.0831 18.4515 31.4504 18.1926L30.8683 17.9395L30.9948 17.1803C32.893 17.155 34.1078 15.763 34.5886 13.0803ZM28.1856 20.8247C27.2492 20.9259 26.414 21.3815 25.68 22.1914L24.3387 20.4704C24.3134 19.7364 24.6677 19.0784 25.4269 18.471L25.8825 18.1167L25.9837 18.6229L28.2109 20.6476L28.1856 20.8247ZM31.2479 18.471C32.0072 19.0784 32.3615 19.7364 32.3362 20.4704L30.9948 22.1914C30.2609 21.3815 29.4004 20.9259 28.4893 20.8247V20.6476L30.7164 18.6229L30.8177 18.1167L31.2479 18.471Z" fill="#9B9A9B"/>
<path id="Vector_4" d="M33.4749 23.2049L34.0317 22.4456L33.2218 22.9771C32.2095 23.6351 31.3743 24.9006 30.7416 26.6722H25.9076C25.5024 25.2046 24.6322 23.908 23.4274 22.9771L22.6175 22.4456L23.1743 23.2049C24.4904 25.0018 25.0471 26.6722 24.8193 28.1654L24.7941 28.3931H31.8804L31.8551 28.1654C31.6274 26.6722 32.1589 25.0018 33.4749 23.2049ZM21.2002 24.0401L21.2255 23.2555L20.8712 23.9641C19.9348 25.837 19.6058 28.216 19.8589 31.0759V31.1265L19.8842 31.1771C20.7953 32.24 21.9848 33.1258 23.4527 33.8092L24.1613 34.1635L23.6552 33.5561C21.9089 31.4555 21.0737 28.2666 21.2002 24.0401Z" fill="#9B9A9B"/>
<path id="Vector_5" d="M42.6872 16.5978C41.0421 17.686 39.3718 17.8379 37.7267 17.104C38.4451 15.4346 38.8072 13.6337 38.7897 11.8164C38.7723 9.99916 38.3758 8.20553 37.6255 6.55028C38.7137 5.00646 38.4607 2.98177 38.1569 2.12128L37.6002 0.52684L37.8279 2.19721C37.8279 2.22251 38.081 4.32312 37.1193 5.56324C36.7836 4.98108 36.4205 4.41521 36.031 3.86757L35.7526 4.04473C36.1069 4.70275 36.436 5.36078 36.689 5.96818L36.4866 6.09472C35.9298 6.42374 35.2718 6.67682 34.6644 6.95522C33.323 7.512 32.0576 8.06879 31.5514 9.13175H25.1483C24.6422 8.06879 23.3767 7.512 22.0354 6.95522C21.428 6.70213 20.7953 6.42374 20.2132 6.09472L20.0107 5.96818C20.2891 5.33547 20.5928 4.70275 20.9471 4.04473L20.6434 3.86757C20.2385 4.42436 19.8588 4.98115 19.5551 5.56324C18.5934 4.32312 18.8465 2.22251 18.8465 2.19721L19.0743 0.52684L18.5175 2.12128C18.2138 2.98177 17.9607 5.00646 19.049 6.55028C18.2987 8.20553 17.9021 9.99916 17.8847 11.8164C17.8673 13.6337 18.2293 15.4346 18.9477 17.104C17.3027 17.8632 15.6323 17.686 13.9872 16.5978L13.6582 16.37L13.7342 16.7496C14.7718 22.8237 16.5687 27.3539 19.1249 30.1885L19.5045 30.5934L19.4286 30.0366C18.973 26.4934 19.2261 23.8107 20.1625 22.0138L20.8459 20.7484L19.8841 21.8113C18.9472 22.7763 18.2834 23.9729 17.9607 25.2786C17.2383 23.7147 16.7194 22.0647 16.4169 20.3688C17.5185 20.2563 18.5711 19.8556 19.4686 19.2069C20.3661 18.5582 21.0769 17.6845 21.5292 16.6737C22.6175 14.0922 22.0354 10.7768 19.9854 8.01818L19.707 8.22064C21.3267 10.9793 21.5292 13.5354 20.2638 15.8638C18.644 13.4595 18.4163 10.5237 19.6311 7.13238C20.1119 7.58793 20.7193 7.91694 21.428 8.14472C22.5416 8.49904 23.5033 10.5743 23.5033 10.5743L23.5792 10.7515L23.731 10.6756C24.2372 10.4731 26.0088 10.3466 28.2107 10.3466H28.6156C30.8174 10.3466 32.5891 10.4731 33.0952 10.6756L33.2471 10.7515L33.323 10.5743C33.323 10.549 34.2847 8.49904 35.3983 8.14472C36.1069 7.91694 36.7143 7.56262 37.1952 7.13238C38.3847 10.5237 38.1822 13.4595 36.5625 15.8638C35.2971 13.5354 35.4742 10.954 37.1193 8.22064L36.8409 8.01818C34.7909 10.7768 34.1835 14.1175 35.2971 16.6737C36.1576 18.6984 37.9798 20.0144 40.4094 20.3688C40.1563 21.8873 39.6502 23.5576 38.8656 25.2786C38.5319 23.9772 37.8696 22.7834 36.9421 21.8113L35.9804 20.7484L36.6637 22.0138C37.6255 23.8107 37.8785 26.4934 37.3977 30.0366L37.3218 30.5934L37.7014 30.1885C40.2323 27.3539 42.0545 22.8237 43.0921 16.7496L43.0162 16.37L42.6872 16.5978Z" fill="#9B9A9B"/>
<path id="Vector_6" d="M35.4233 23.2302L35.4486 24.0148C35.5752 28.2413 34.74 31.4302 32.9937 33.4802L32.4875 34.0876L33.1962 33.7332C34.5713 33.1402 35.792 32.2398 36.7647 31.1012L36.79 31.0505V30.9999C37.1028 28.5814 36.7529 26.1234 35.7777 23.8882L35.4233 23.2302Z" fill="#9B9A9B"/>
</g>
</g>
</svg>
