<svg width="53" height="43" viewBox="0 0 53 43" fill="none" xmlns="http://www.w3.org/2000/svg">
<g id="Frame 724">
<g id="Group">
<path id="Vector" d="M8.34808 41.9089C7.28616 41.9089 6.43562 41.559 5.79669 40.8591C5.15775 40.1593 4.83829 39.2487 4.83829 38.1276C4.83829 36.9229 5.16393 35.9618 5.81499 35.2445C6.46604 34.5272 7.3523 34.1686 8.47341 34.1686C9.50745 34.1686 10.3405 34.5168 10.9726 35.2132C11.6045 35.9096 11.9204 36.8201 11.9205 37.9448C11.9205 39.1669 11.5966 40.1331 10.949 40.8434C10.3014 41.5538 9.43436 41.9089 8.34808 41.9089ZM8.41077 34.9626C7.62387 34.9626 6.98494 35.2463 6.49397 35.8139C6.00301 36.3814 5.75753 37.1266 5.75753 38.0492C5.75753 38.9719 5.99689 39.7144 6.47567 40.2768C6.95446 40.8391 7.57859 41.1202 8.34814 41.1202C9.1698 41.1202 9.81741 40.8521 10.291 40.3159C10.7645 39.7797 11.0012 39.0294 11.0013 38.0649C11.0013 37.076 10.7714 36.3117 10.3118 35.772C9.85217 35.2324 9.21847 34.9626 8.41083 34.9626H8.41077ZM17.7179 41.7836H16.8614V38.7335C16.8614 37.5983 16.447 37.0308 15.6183 37.0308C15.19 37.0308 14.8358 37.1919 14.5554 37.5139C14.2751 37.836 14.135 38.2426 14.135 38.7335V41.7836H13.2785V36.4354H14.135V37.3233H14.1559C14.5598 36.6478 15.1448 36.31 15.9108 36.31C16.4958 36.31 16.9432 36.4989 17.2531 36.8767C17.5629 37.2544 17.7178 37.8003 17.7179 38.5141V41.7836ZM23.6354 39.3237H19.8593C19.8732 39.9191 20.0334 40.3787 20.3398 40.7025C20.6462 41.0263 21.0675 41.1882 21.6037 41.1882C22.2061 41.1882 22.7597 40.9897 23.2647 40.5928V41.3971C22.7946 41.7383 22.173 41.9089 21.4 41.9089C20.6444 41.9089 20.0508 41.6661 19.6191 41.1803C19.1874 40.6946 18.9714 40.0113 18.9714 39.1304C18.9714 38.2982 19.2073 37.6201 19.6792 37.0961C20.151 36.5721 20.7367 36.31 21.4366 36.31C22.1364 36.31 22.678 36.5364 23.0609 36.989C23.4438 37.4416 23.6353 38.0701 23.6354 38.8745V39.3237ZM22.7579 38.5977C22.7544 38.1033 22.6352 37.7185 22.4002 37.4434C22.1652 37.1683 21.8387 37.0308 21.4209 37.0308C21.017 37.0308 20.674 37.1753 20.392 37.4643C20.11 37.7533 19.9359 38.1311 19.8697 38.5977H22.7579ZM25.0508 41.7836V34.294H27.119C29.7583 34.294 31.078 35.511 31.078 37.9448C31.078 39.1008 30.7115 40.0296 29.9786 40.7313C29.2456 41.4329 28.2645 41.7837 27.0355 41.7837H25.0508V41.7836ZM25.9282 35.0879V40.9897H27.046C28.0278 40.9897 28.7921 40.7268 29.3388 40.2011C29.8854 39.6753 30.1588 38.9302 30.1588 37.9657C30.1588 36.0472 29.1386 35.0879 27.0982 35.0879H25.9282ZM35.2249 37.3024C35.0752 37.1875 34.8593 37.1301 34.5773 37.1301C34.2117 37.1301 33.9062 37.3024 33.6607 37.6471C33.4152 37.9918 33.2925 38.4619 33.2925 39.0573V41.7836H32.4359V36.4354H33.2925V37.5374H33.3134C33.4353 37.1614 33.6216 36.868 33.8722 36.6573C34.1229 36.4467 34.4032 36.3414 34.7131 36.3414C34.9359 36.3414 35.1065 36.3657 35.2249 36.4145V37.3024ZM36.5933 35.0775C36.4401 35.0775 36.3095 35.0252 36.2016 34.9208C36.0936 34.8163 36.0396 34.684 36.0396 34.5238C36.0396 34.3636 36.0936 34.2304 36.2016 34.1243C36.3095 34.0181 36.4401 33.9649 36.5933 33.9649C36.75 33.9649 36.8832 34.0181 36.9929 34.1243C37.1026 34.2304 37.1575 34.3636 37.1575 34.5238C37.1575 34.677 37.1026 34.8076 36.9929 34.9155C36.8832 35.0235 36.75 35.0775 36.5933 35.0775ZM37.0112 41.7836H36.1546V36.4354H37.0112V41.7836ZM42.9495 36.4354L40.8186 41.7836H39.9777L37.9513 36.4354H38.8913L40.2493 40.3212C40.3503 40.6068 40.413 40.8557 40.4373 41.0681H40.4583C40.4931 40.7999 40.5488 40.558 40.6254 40.3421L42.046 36.4354H42.9495ZM48.1619 39.3237H44.3858C44.3997 39.9191 44.5599 40.3787 44.8663 40.7025C45.1727 41.0263 45.594 41.1882 46.1303 41.1882C46.7327 41.1882 47.2863 40.9897 47.7912 40.5928V41.3971C47.3211 41.7383 46.6996 41.9089 45.9266 41.9089C45.171 41.9089 44.5773 41.6661 44.1456 41.1803C43.7139 40.6946 43.4979 40.0113 43.4979 39.1304C43.4979 38.2982 43.7339 37.6201 44.2057 37.0961C44.6775 36.5721 45.2633 36.31 45.9631 36.31C46.6629 36.31 47.2045 36.5364 47.5874 36.989C47.9704 37.4416 48.1619 38.0701 48.1619 38.8745V39.3237ZM47.2845 38.5977C47.281 38.1033 47.1618 37.7185 46.9267 37.4434C46.6917 37.1683 46.3652 37.0308 45.9474 37.0308C45.5435 37.0308 45.2006 37.1753 44.9185 37.4643C44.6365 37.7533 44.4624 38.1311 44.3963 38.5977H47.2845Z" fill="#094AB1"/>
</g>
<g id="Group 718">
<g id="Vector_2">
<path d="M22.1891 7.39846L29.8131 11.964L34.356 10.0518C35.2793 9.65292 36.2747 9.44782 37.2805 9.44916C37.4485 9.44916 37.6142 9.4571 37.7787 9.46731C37.2328 7.33746 36.0798 5.41207 34.4601 3.92517C32.8404 2.43827 30.8236 1.4539 28.655 1.09171C26.4863 0.729526 24.2591 1.00512 22.2441 1.88499C20.2291 2.76486 18.5131 4.21112 17.3046 6.04797L17.4204 6.04457C19.1051 6.04236 20.7569 6.51132 22.1891 7.39846Z" fill="#0364B8"/>
<path d="M22.1902 7.39742C20.7575 6.51047 19.1054 6.04181 17.4204 6.04457L17.3046 6.04797C15.6557 6.0686 14.0435 6.53822 12.6413 7.40619C11.2392 8.27417 10.1 9.50779 9.3462 10.9745C8.59242 12.4412 8.25252 14.0856 8.36302 15.731C8.47353 17.3764 9.03025 18.9605 9.97339 20.3133L16.6941 17.4841L29.8119 11.9641L22.1902 7.39742Z" fill="#0078D4"/>
<path d="M37.7787 9.46731C37.6129 9.45572 37.4467 9.44966 37.2805 9.44916C36.275 9.44834 35.2801 9.65368 34.3571 10.0528L29.8131 11.964L35.4489 15.339L43.7754 20.3256C44.3608 19.2389 44.6641 18.0228 44.6577 16.7885C44.6513 15.5543 44.3352 14.3413 43.7385 13.2609C43.1418 12.1804 42.2836 11.2669 41.2423 10.6042C40.2011 9.94136 39.0102 9.55057 37.7787 9.46731Z" fill="#1490DF"/>
<path d="M35.4489 15.339L29.8142 11.9641L16.6941 17.4841L9.97115 20.3133C10.8068 21.5146 11.9208 22.4958 13.218 23.1731C14.5152 23.8503 15.957 24.2035 17.4204 24.2025H37.2805C38.6123 24.203 39.9193 23.8428 41.0628 23.1603C42.2063 22.4777 43.1437 21.498 43.7754 20.3256L35.4489 15.339Z" fill="#28A8EA"/>
</g>
</g>
</g>
</svg>
