<svg width="24" height="24" viewBox="0 0 24 24" fill="none" xmlns="http://www.w3.org/2000/svg">
<path d="M12 14.5C13.3807 14.5 14.5 13.3807 14.5 12C14.5 10.6193 13.3807 9.5 12 9.5C10.6193 9.5 9.5 10.6193 9.5 12C9.5 13.3807 10.6193 14.5 12 14.5Z" stroke="#374151" stroke-width="1.5" stroke-miterlimit="10"/>
<path d="M19.2 13.7L21 14.7L19 18.2L17.2 17.2C15.8 16.4 14.1 17.4 14.1 18.9V21H10V18.9C10 17.4 8.3 16.4 6.9 17.2L5.1 18.2L3.1 14.7L4.9 13.7C6.2 13 6.2 11 4.8 10.3L3 9.2L5 5.7L6.8 6.7C8.2 7.6 10 6.6 10 5.1V3H14V5.1C14 6.6 15.7 7.6 17.1 6.8L18.9 5.8L20.9 9.3L19.1 10.3C17.8 11 17.8 13 19.2 13.7Z" stroke="#374151" stroke-width="1.5" stroke-miterlimit="10" stroke-linecap="round" stroke-linejoin="round"/>
</svg>
