<svg width="107" height="32" viewBox="0 0 107 32" fill="none" xmlns="http://www.w3.org/2000/svg">
<mask id="mask0_657_1629" style="mask-type:alpha" maskUnits="userSpaceOnUse" x="0" y="0" width="107" height="32">
<path d="M4.22286 31.1603C2.18351 31.1603 0.52356 29.5079 0.52356 27.4851V3.76985C0.52356 1.74627 2.18351 0.100082 4.22286 0.100082H102.371C104.41 0.100082 106.128 1.74627 106.128 3.76985V27.4851C106.128 29.5079 104.41 31.1603 102.371 31.1603H4.22286Z" fill="white"/>
</mask>
<g mask="url(#mask0_657_1629)">
<path d="M4.22304 30.8501C2.3535 30.8501 0.834345 29.335 0.834345 27.4855V3.77026C0.834345 1.9206 2.35285 0.411097 4.22304 0.411097H102.371C104.247 0.411097 105.818 1.92684 105.818 3.77026V27.4855C105.818 29.3288 104.246 30.8501 102.371 30.8501H4.22304Z" fill="white" stroke="#306FD5" stroke-width="0.621205"/>
<path fill-rule="evenodd" clip-rule="evenodd" d="M94.6306 26.0496H93.1202L94.5949 22.7788L92.0095 16.8977H93.5696L95.2927 21.1046H95.3392L96.9995 16.8977H98.61L94.6306 26.0496ZM90.5115 22.3418H90.4618C90.0647 22.9712 89.3567 23.3349 88.6137 23.291C88.0094 23.3359 87.4126 23.1343 86.9593 22.732C86.5061 22.3298 86.2349 21.7612 86.2076 21.1558C86.2076 19.7331 87.6187 18.9717 89.0018 18.9717C89.5284 18.9703 90.0472 19.0988 90.5122 19.3458V19.2464C90.4342 18.4823 89.754 17.9245 88.9894 17.9976C88.446 17.9508 87.9265 18.2302 87.666 18.7093L86.3807 18.1722C86.8694 17.2069 87.8844 16.6236 88.9646 16.6874C90.6248 16.6874 91.914 17.6483 91.914 19.3706V23.0908H90.5169V22.3418H90.5115ZM89.1881 20.1452C88.4764 20.1452 87.6528 20.4324 87.6528 21.1814C87.7474 21.7175 88.2502 22.0819 88.7891 22.0049C89.6661 21.9952 90.4014 21.3398 90.5115 20.4697C90.1074 20.2448 89.6503 20.1328 89.1881 20.1452ZM83.9575 13.4042H85.4043V23.1071H83.9559V13.405L83.9575 13.4042ZM79.9757 19.4311H77.953V23.1071H76.5055V13.405H79.9757C81.0922 13.3429 82.1515 13.9032 82.7284 14.861C83.3053 15.8189 83.3053 17.0172 82.7284 17.9751C82.1515 18.9329 81.0922 19.4932 79.9757 19.4311ZM80.013 14.7547H77.953V18.0806H80.013C80.6157 18.0936 81.1782 17.7796 81.4834 17.2597C81.7885 16.7398 81.7885 16.0955 81.4834 15.5757C81.1782 15.0558 80.6157 14.7417 80.013 14.7547ZM70.5181 22.0065C71.1829 22.0099 71.8004 21.6631 72.1434 21.0937L73.2689 21.8443C72.6565 22.7637 71.6228 23.3135 70.5181 23.3073C69.641 23.32 68.7966 22.9754 68.1787 22.3529C67.5608 21.7303 67.2226 20.8832 67.2419 20.0063C67.1969 19.1503 67.5042 18.3133 68.0923 17.6897C68.6803 17.0661 69.498 16.7104 70.3551 16.7052C71.6451 16.7414 72.7746 17.5808 73.1811 18.8056L73.3309 19.1804L68.9169 21.0068C69.1953 21.6366 69.8299 22.0328 70.5181 22.0065ZM71.6304 18.6806C71.3992 18.2227 70.9165 17.9476 70.4048 17.982C69.9189 18.004 69.4623 18.2204 69.1378 18.5826C68.8132 18.9448 68.648 19.4224 68.6794 19.9077L71.6304 18.6806ZM65.0903 13.4026H66.5433V23.1071H65.0927V13.405L65.0903 13.4026ZM60.9549 26.2708C59.6733 26.2774 58.5157 25.5058 58.0287 24.3202L59.2916 23.7948C59.5561 24.4878 60.2133 24.9522 60.9549 24.9699C62.0415 24.9699 62.7184 24.2946 62.7184 23.0295V22.5545H62.6625C62.2217 23.0479 61.5861 23.3224 60.9246 23.305C59.1572 23.2283 57.7637 21.7731 57.7637 20.004C57.7637 18.2348 59.1572 16.7796 60.9246 16.7029C61.583 16.6871 62.2163 16.9558 62.6625 17.4403H62.7129V16.9024H64.0883V22.83C64.0906 25.2703 62.6524 26.2708 60.9549 26.2708ZM61.055 18.0053C60.0165 18.0946 59.219 18.9636 59.219 20.0059C59.219 21.0482 60.0165 21.9172 61.055 22.0065C62.0583 21.8728 62.8074 21.0167 62.8066 20.0045C62.8058 18.9924 62.0554 18.1374 61.0519 18.0053H61.055ZM62.5422 9.98981L60.2758 6.35501L60.2952 7.0101V9.98981H59.5415V5.17756H60.3906L62.5523 8.63695L62.5336 7.98109V5.17756H63.2834V9.98981H62.5383H62.5422ZM56.3856 10.0938C55.7216 10.1092 55.0818 9.84437 54.6229 9.36422C53.6791 8.36483 53.6791 6.80255 54.6229 5.80315C55.0891 5.33414 55.7231 5.07042 56.3844 5.07042C57.0457 5.07042 57.6797 5.33414 58.146 5.80315C59.0918 6.80057 59.0918 8.36369 58.146 9.36112C57.6872 9.84228 57.0472 10.1082 56.3825 10.0938H56.3856ZM55.1763 6.30145C54.5184 7.02848 54.5184 8.13579 55.1763 8.86282C55.8454 9.5293 56.9274 9.5293 57.5964 8.86282C58.2536 8.13493 58.252 7.02735 57.5925 6.30145C56.9269 5.63506 55.8451 5.63506 55.1763 6.30145ZM57.1587 20.0063C57.1637 21.3476 56.3596 22.5596 55.1218 23.0764C53.8841 23.5932 52.4569 23.3127 51.5066 22.3661C50.5564 21.4194 50.2707 19.9933 50.7828 18.7536C51.2949 17.5139 52.5039 16.7052 53.8452 16.7052C54.7257 16.6915 55.5742 17.0346 56.1978 17.6564C56.8213 18.2782 57.1668 19.1258 57.1556 20.0063H57.1587ZM53.8452 18.0053C53.0231 17.9466 52.2488 18.3969 51.8931 19.1403C51.5375 19.8838 51.6728 20.7692 52.2344 21.3725C52.796 21.9757 53.6695 22.174 54.4365 21.8723C55.2035 21.5707 55.7078 20.8305 55.708 20.0063C55.7348 19.4912 55.5513 18.9872 55.1995 18.61C54.8477 18.2327 54.3578 18.0145 53.8421 18.0053H53.8452ZM50.8088 9.9122V9.98981H50.0552V5.90483H48.7543V5.17756H52.1066V5.90483H50.8057V9.9122H50.8088ZM47.479 9.98981H47.4014V5.17756H48.1543V9.98981H47.479ZM49.9271 20.0024C49.9324 21.3442 49.1283 22.5567 47.8901 23.0738C46.652 23.5909 45.2243 23.3105 44.2737 22.3635C43.3232 21.4165 43.0374 19.9899 43.5499 18.7498C44.0623 17.5098 45.2719 16.7011 46.6136 16.7014C47.4953 16.6868 48.3453 17.03 48.9696 17.6527C49.594 18.2755 49.9394 19.1246 49.9271 20.0063V20.0024ZM46.6136 18.0014C45.7915 17.9428 45.0172 18.393 44.6615 19.1365C44.3059 19.88 44.4413 20.7653 45.0028 21.3686C45.5644 21.9718 46.4379 22.1701 47.2049 21.8684C47.9719 21.5668 48.4762 20.8266 48.4764 20.0024C48.5021 19.4885 48.3186 18.986 47.9676 18.6097C47.6166 18.2334 47.1281 18.0154 46.6136 18.0053V18.0014ZM43.9405 9.9122V9.98981H43.186V5.90483H41.8852V5.17756H45.2413V5.90483H43.9405V9.9122ZM38.0144 14.4543C35.9568 14.4543 34.2888 16.1224 34.2888 18.18C34.2888 20.2376 35.9568 21.9056 38.0144 21.9056C38.9832 21.9448 39.9235 21.5727 40.603 20.881C41.0482 20.3957 41.3167 19.7744 41.3652 19.1176H38.0144V17.7205H42.7281C42.7823 18.0088 42.8083 18.3018 42.8057 18.5952C42.8453 19.8039 42.4098 20.98 41.5926 21.8714C40.6619 22.8413 39.3598 23.365 38.0168 23.3097C36.17 23.3324 34.4538 22.3602 33.5238 20.7646C32.5938 19.1689 32.5938 17.1964 33.5238 15.6008C34.4538 14.0052 36.17 13.033 38.0168 13.0557C39.3303 13.0357 40.5967 13.5451 41.5305 14.4691L40.5416 15.4541C39.864 14.8007 38.9557 14.4414 38.0144 14.4543ZM38.543 5.17756H41.4148V5.90483H39.2998V7.22432H41.2122V7.9384H39.2998V9.25789H41.421V9.98981H38.5492V5.17756H38.543ZM37.2398 9.38052C36.7788 9.85754 36.1369 10.1163 35.474 10.0923C34.0877 10.0923 32.9639 8.96844 32.9639 7.58213C32.9639 6.19583 34.0877 5.072 35.474 5.072C35.8132 5.07081 36.1489 5.13923 36.4605 5.27303C36.7523 5.39202 37.0118 5.57817 37.2181 5.81635L37.2639 5.87146L37.2134 5.92113L36.7438 6.39071L36.6895 6.32629C36.3884 5.97135 35.9389 5.77729 35.474 5.8016C34.6695 5.8015 33.9644 6.33952 33.752 7.11548C33.5396 7.89143 33.8724 8.71359 34.5648 9.12323C35.2572 9.53287 36.1381 9.42877 36.7159 8.86902C36.9222 8.64633 37.0475 8.36058 37.0714 8.05793H35.3925V7.34307H37.7917L37.8033 7.4075C37.8252 7.52787 37.8364 7.64995 37.8367 7.7723C37.8652 8.36775 37.6487 8.94891 37.2375 9.38052H37.2398Z" fill="#0F2852"/>
<path fill-rule="evenodd" clip-rule="evenodd" d="M10.459 25.5695C10.5455 25.5353 10.6295 25.4949 10.7105 25.4485L22.2471 18.8908L19.5119 16.0547L10.459 25.5695ZM22.7577 18.601L19.9044 15.6423L22.7548 12.6466L26.6801 14.8701C27.6472 15.4175 27.1525 16.1028 26.6801 16.3714L22.7577 18.601ZM22.2443 12.3578L10.7105 5.82282C10.5852 5.75376 10.4487 5.70919 10.3079 5.69131L19.5093 15.2325L22.2447 12.3576L22.2443 12.3578ZM9.63145 5.80913L19.1168 15.6448L9.67699 25.5655C9.4015 25.3841 9.25382 24.9908 9.25132 24.4816C9.24658 23.5069 9.17155 8.0337 9.16589 6.8725C9.16313 6.31653 9.3582 5.97689 9.63145 5.80913Z" fill="#0F2852"/>
</g>
</svg>
