<svg width="25" height="24" viewBox="0 0 25 24" fill="none" xmlns="http://www.w3.org/2000/svg">
<g id="Group 687">
<path id="Vector" d="M15.2893 4.07625L2.23447 17.132C2.1688 17.1978 2.12137 17.281 2.09879 17.3704L0.651791 23.1783C0.608507 23.3532 0.659883 23.5391 0.787476 23.6667C0.884018 23.7632 1.01556 23.8167 1.15012 23.8167C1.19133 23.8167 1.23349 23.8116 1.27451 23.8013L7.08245 22.3541C7.17297 22.3315 7.25521 22.2843 7.32089 22.2186L20.3768 9.16379L15.2893 4.07625Z" fill="#9BD0FF"/>
<path id="Vector_2" d="M23.6111 2.29616L22.1579 0.842954C21.1866 -0.128298 19.4939 -0.127357 18.5237 0.842954L16.7437 2.62305L21.831 7.71041L23.6111 5.93031C24.0963 5.44534 24.3635 4.79985 24.3635 4.11333C24.3635 3.42681 24.0963 2.78132 23.6111 2.29616Z" fill="#306FD5"/>
</g>
</svg>
