<svg width="16" height="17" viewBox="0 0 16 17" fill="none" xmlns="http://www.w3.org/2000/svg">
<g id="home 1" clip-path="url(#clip0_5355_9735)">
<g id="Group">
<g id="Group_2">
<path id="Vector" d="M8 0.873535L0 7.82091L0.818937 8.76391L1.56791 8.11347V14.2526C1.56791 15.2856 2.40831 16.126 3.44134 16.126H6.93841V10.0062H9.12406V16.126H12.5587C13.5917 16.126 14.4321 15.2856 14.4321 14.2526V8.1135L15.1811 8.76394L16 7.82094L8 0.873535ZM13.1832 14.2526C13.1832 14.5969 12.903 14.8771 12.5587 14.8771H10.373V8.75722H5.68944V14.8771H3.44131C3.09697 14.8771 2.81684 14.597 2.81684 14.2526V7.02888L8 2.52772L13.1832 7.02888V14.2526Z" fill="#0C1D3E"/>
</g>
</g>
</g>
<defs>
<clipPath id="clip0_5355_9735">
<rect width="16" height="16" fill="white" transform="translate(0 0.5)"/>
</clipPath>
</defs>
</svg>
