<svg width="64" height="65" viewBox="0 0 64 65" fill="none" xmlns="http://www.w3.org/2000/svg">
<g clip-path="url(#clip0_888_118)">
<path d="M10.3071 28.1539V60.1359C10.3071 62.2891 11.7708 64.052 13.561 64.052H50.4382C52.2278 64.052 53.692 62.2897 53.692 60.1359V28.1539H10.3071Z" fill="#306FD5"/>
<path d="M18.9844 35.007H24.4075C24.8565 35.007 25.2209 34.5683 25.2209 34.0279C25.2209 33.4869 24.8565 33.0489 24.4075 33.0489H18.9844C18.5348 33.0489 18.1709 33.4869 18.1709 34.0279C18.1709 34.5685 18.5348 35.007 18.9844 35.007Z" fill="#9BD0FF"/>
<path d="M39.5923 35.0072H45.0154C45.4644 35.0072 45.8289 34.5686 45.8289 34.0282C45.8289 33.4872 45.4644 33.0491 45.0154 33.0491H39.5923C39.1427 33.0491 38.7788 33.4872 38.7788 34.0282C38.7788 34.5687 39.1427 35.0072 39.5923 35.0072Z" fill="#9BD0FF"/>
<path d="M29.2881 35.0072H34.7112C35.1602 35.0072 35.5247 34.5686 35.5247 34.0282C35.5247 33.4872 35.1602 33.0491 34.7112 33.0491H29.2881C28.8386 33.0491 28.4746 33.4872 28.4746 34.0282C28.4746 34.5687 28.8386 35.0072 29.2881 35.0072Z" fill="#9BD0FF"/>
<path d="M41.7499 39.9205H22.25V64.0521H41.7499V39.9205Z" fill="#9BD0FF"/>
<path d="M46.6422 39.9205H17.3574V43.8366H46.6422V39.9205Z" fill="#0C1D3E"/>
<path d="M31.9999 0.0703888L62.7127 29.2166H0.287109L31.9999 0.0703888Z" fill="#9BD0FF"/>
</g>
<defs>
<clipPath id="clip0_888_118">
<rect width="64" height="64" fill="white" transform="translate(0 0.0703888)"/>
</clipPath>
</defs>
</svg>
