<svg width="32" height="33" viewBox="0 0 32 33" fill="none" xmlns="http://www.w3.org/2000/svg">
<g id="Scope Icons">
<path id="Vector" d="M27.9117 2.84818H4.08821C2.86994 2.84818 1.88232 3.83579 1.88232 5.05406V28.8776C1.88232 30.0959 2.86994 31.0835 4.08821 31.0835H27.9117C29.13 31.0835 30.1176 30.0959 30.1176 28.8776V5.05406C30.1176 3.83579 29.13 2.84818 27.9117 2.84818ZM26.8087 5.05417C27.4175 5.05417 27.9117 5.54828 27.9117 6.15711C27.9117 6.76593 27.4175 7.26005 26.8087 7.26005C26.1999 7.26005 25.7058 6.76593 25.7058 6.15711C25.7058 5.54828 26.1999 5.05417 26.8087 5.05417ZM5.19117 5.05417C5.8 5.05417 6.29412 5.54823 6.29412 6.15711C6.29412 6.76588 5.8 7.26005 5.19117 7.26005C4.58235 7.26005 4.08823 6.76588 4.08823 6.15711C4.08823 5.54823 4.58235 5.05417 5.19117 5.05417ZM5.19109 28.8777C4.58221 28.8777 4.08815 28.3836 4.08815 27.7748C4.08815 27.1659 4.58221 26.6718 5.19109 26.6718C5.79987 26.6718 6.29403 27.1659 6.29403 27.7748C6.29403 28.3836 5.79987 28.8777 5.19109 28.8777ZM15.9349 28.9425C9.331 28.9425 3.95804 23.5698 3.95804 16.9659C3.95804 10.3619 9.331 4.98911 15.9349 4.98911C22.5387 4.98911 27.9117 10.3619 27.9117 16.9659C27.9117 23.5698 22.5387 28.9425 15.9349 28.9425ZM26.8088 28.8777C26.2 28.8777 25.7059 28.3835 25.7059 27.7748C25.7059 27.1659 26.2 26.6718 26.8088 26.6718C27.4176 26.6718 27.9118 27.1659 27.9118 27.7748C27.9118 28.3835 27.4176 28.8777 26.8088 28.8777Z" fill="#9BD0FF"/>
<path id="Union" fill-rule="evenodd" clip-rule="evenodd" d="M17.9255 14.3675C18.8311 13.1376 19.6066 11.5804 20.3338 9.87394C20.3062 7.90159 15.5022 6.52198 13.3455 7.77304C13.0961 7.92492 12.985 8.23629 13.068 8.51586C13.0832 8.5667 13.0985 8.61754 13.1138 8.66837C13.7696 10.8517 14.417 13.0072 14.4024 14.0263C14.5306 13.961 14.6705 13.9077 14.8127 13.8615C15.915 13.5033 17.0649 13.7272 17.9255 14.3675ZM13.8688 14.3429C12.979 13.1016 11.7376 11.8828 10.3394 10.6639C8.45501 10.0807 5.65841 14.2233 6.18181 16.661C6.24917 16.9451 6.51096 17.147 6.8025 17.1545L6.9617 17.158C9.24086 17.209 11.4909 17.2593 12.4556 17.5882C12.4331 17.4461 12.4256 17.2965 12.4256 17.147C12.4256 15.988 12.9939 14.9635 13.8688 14.3429ZM17.9655 17.0947C17.9655 18.252 17.0272 19.1903 15.8699 19.1903C14.7125 19.1903 13.7743 18.252 13.7743 17.0947C13.7743 15.9373 14.7125 14.9991 15.8699 14.9991C17.0272 14.9991 17.9655 15.9373 17.9655 17.0947ZM8.00226 20.4133C9.59352 19.4602 11.1363 18.6562 12.5918 18.1935C12.9117 19.2173 13.7104 20.0744 14.8127 20.4325C14.9549 20.4787 15.0995 20.5178 15.2415 20.5404C14.6307 21.3562 13.8875 23.4806 13.1347 25.6325L13.1347 25.6325L13.0822 25.7828C12.985 26.0577 12.7121 26.2443 12.421 26.2206C9.94088 25.9651 6.86528 22.0252 8.00226 20.4133ZM15.8594 20.5978C15.8496 22.1251 16.1375 23.8408 16.5522 25.6487C17.7339 27.2282 22.4313 25.5206 23.4408 23.2408C23.5533 22.9713 23.4602 22.6541 23.2287 22.4767L23.102 22.3803C21.2881 20.9994 19.4973 19.6361 18.9102 18.803C18.8448 18.9312 18.763 19.0566 18.6751 19.1775C17.9938 20.1152 16.9319 20.61 15.8594 20.5978ZM24.1736 19.135C22.326 18.9708 20.6053 18.7144 19.1558 18.2332C19.4988 17.2169 19.3564 16.0541 18.6751 15.1164C18.5872 14.9954 18.4933 14.8788 18.3916 14.7771C19.3653 14.4761 21.2152 13.1943 23.0891 11.8958L23.22 11.8051C23.4602 11.6398 23.7907 11.6493 24.0122 11.8396C25.8685 13.504 26.0409 18.4992 24.1736 19.135Z" fill="#306FD5"/>
</g>
</svg>
