<svg width="65" height="65" viewBox="0 0 65 65" fill="none" xmlns="http://www.w3.org/2000/svg">
<g clip-path="url(#clip0_759_370)">
<path d="M59.8412 14.518C59.8412 11.8446 57.6538 9.65724 54.9804 9.65724H18.5231C15.8497 9.65724 13.6624 11.8446 13.6624 14.518V59.8851C13.6624 62.5585 15.8497 64.7458 18.5231 64.7458H46.065L59.8372 51.7838L59.8412 14.518Z" fill="#F2F8FD"/>
<path d="M13.6624 14.518C13.6624 11.8446 15.8497 9.65724 18.5231 9.65724H50.9298V5.60661C50.9298 2.93319 48.7424 0.74585 46.069 0.74585H9.61174C6.93832 0.74585 4.75098 2.93319 4.75098 5.60661V50.9737C4.75098 53.6471 6.93832 55.8345 9.61174 55.8345H13.6624V14.518Z" fill="#306FD5"/>
<path d="M50.9266 51.7838H59.838L46.0659 64.7458V56.6446C46.0659 53.9712 48.2532 51.7838 50.9266 51.7838Z" fill="#9BD0FF"/>
<path d="M25.8142 31.1256H47.6877C48.3593 31.1256 48.9029 30.5811 48.9029 29.9104C48.9029 29.2389 48.3592 28.6952 47.6877 28.6952H25.8142C25.1427 28.6952 24.5991 29.2389 24.5991 29.9104C24.5991 30.5811 25.1426 31.1256 25.8142 31.1256Z" fill="#0C1D3E"/>
<path d="M25.8142 23.0243H47.6877C48.3593 23.0243 48.9029 22.4799 48.9029 21.8091C48.9029 21.1376 48.3592 20.5939 47.6877 20.5939H25.8142C25.1427 20.5939 24.5991 21.1376 24.5991 21.8091C24.5991 22.4799 25.1426 23.0243 25.8142 23.0243Z" fill="#0C1D3E"/>
<path d="M25.8142 39.2269H47.6877C48.3593 39.2269 48.9029 38.6824 48.9029 38.0117C48.9029 37.3402 48.3592 36.7965 47.6877 36.7965H25.8142C25.1427 36.7965 24.5991 37.3402 24.5991 38.0117C24.5991 38.6824 25.1426 39.2269 25.8142 39.2269Z" fill="#0C1D3E"/>
<path d="M25.8142 47.3281H37.9661C38.6377 47.3281 39.1813 46.7837 39.1813 46.1129C39.1813 45.4413 38.6377 44.8978 37.9661 44.8978H25.8142C25.1427 44.8978 24.5991 45.4413 24.5991 46.1129C24.5991 46.7837 25.1426 47.3281 25.8142 47.3281Z" fill="#0C1D3E"/>
</g>
<defs>
<clipPath id="clip0_759_370">
<rect width="64" height="64" fill="white" transform="translate(0.296082 0.74585)"/>
</clipPath>
</defs>
</svg>
