<svg width="65" height="65" viewBox="0 0 65 65" fill="none" xmlns="http://www.w3.org/2000/svg">
<g clip-path="url(#clip0_759_310)">
<g clip-path="url(#clip1_759_310)">
<path d="M62.2114 51.4997C62.1266 50.6446 61.3632 50.0214 60.5081 50.1069L56.8798 50.4718C59.5814 46.0095 61.1391 40.7714 61.1391 35.1794C61.1391 28.3098 58.7908 21.973 54.8561 16.9551C50.9213 11.9349 45.3984 8.21881 39.0383 6.56371C38.2058 6.34745 37.3561 6.84622 37.1405 7.67795C36.9243 8.50968 37.423 9.35934 38.2547 9.57574C43.9387 11.0541 48.8833 14.3797 52.4066 18.8746C55.9282 23.3711 58.0267 29.0224 58.0275 35.1794C58.0267 40.2035 56.6292 44.8891 54.2009 48.8869L52.9856 45.2377C52.714 44.4222 51.8332 43.981 51.017 44.2526C50.2023 44.5242 49.7619 45.405 50.0327 46.2203L52.6323 54.0261L60.8201 53.2029C61.6737 53.1173 62.2978 52.3549 62.2114 51.4997Z" fill="#0C1D3E"/>
<path d="M51.4124 55.0128C50.839 54.3724 49.8547 54.318 49.2151 54.8914C44.5286 59.0861 38.3553 61.6335 31.5713 61.6343C21.7829 61.6358 13.2536 56.3106 8.67538 48.4099L12.895 48.6853C13.7531 48.7413 14.4931 48.0915 14.5492 47.2341C14.6052 46.3759 13.9563 45.636 13.0988 45.5799L4.88845 45.0438L2.56271 52.9374C2.31911 53.7621 2.79143 54.6274 3.61617 54.8701C4.4409 55.1128 5.30622 54.6414 5.54891 53.8167H5.54815L6.44918 50.758C11.6631 59.152 20.962 64.744 31.5711 64.7456C39.1419 64.7463 46.0629 61.8931 51.2908 57.2091C51.9306 56.6366 51.9858 55.6531 51.4124 55.0128Z" fill="#306FD5"/>
<path d="M35.5807 7.03845L29.7754 1.20434C29.1694 0.595097 28.1843 0.592817 27.5751 1.19887C26.9658 1.80493 26.9643 2.78999 27.5704 3.39924H27.5696L29.8261 5.66738C14.3095 6.57236 2.00483 19.4364 2.00407 35.1794C2.00407 37.6241 2.30133 40.002 2.86301 42.2772C3.06847 43.1113 3.9119 43.6216 4.74591 43.4156C5.58007 43.2093 6.09038 42.3667 5.88431 41.5327C5.38251 39.4979 5.11717 37.3714 5.11717 35.1796C5.11793 27.8695 8.07617 21.2658 12.8661 16.4729C17.4895 11.851 23.8036 8.94339 30.8079 8.7434L28.5405 12.3094C28.0784 13.0346 28.2931 13.9962 29.0176 14.4576C29.7435 14.919 30.7052 14.7043 31.1666 13.9791L35.5807 7.03845Z" fill="#9BD0FF"/>
<path d="M36.158 22.3698C36.0568 21.955 35.6321 21.5373 35.2141 21.4423L32.4986 21.0315C32.0714 21.0011 31.5424 21.2766 31.3222 21.6438C31.3222 21.6438 30.3107 23.3307 28.9071 23.6808C27.5018 24.0294 25.8197 23.0117 25.8197 23.0117C25.4531 22.79 24.8564 22.7938 24.4947 23.0209L22.2849 24.6542C21.9612 24.9335 21.7806 25.5015 21.8834 25.917C21.8834 25.917 22.3627 27.8241 21.6158 29.0636C20.8696 30.3015 18.9593 30.7723 18.9593 30.7723C18.5431 30.875 18.1268 31.3006 18.0311 31.7177L17.6211 34.4325C17.5924 34.8597 17.8662 35.3896 18.2334 35.6089C18.2334 35.6089 19.9202 36.6204 20.2666 38.0249C20.6159 39.427 19.5982 41.1108 19.5982 41.1108C19.3765 41.4772 19.3803 42.0732 19.6075 42.4366L21.2415 44.6448C21.5208 44.9693 22.0888 45.1498 22.5043 45.0463C22.5043 45.0463 24.4129 44.5693 25.6516 45.3147C26.8903 46.0609 27.3604 47.9734 27.3604 47.9734C27.4631 48.3889 27.8886 48.8059 28.305 48.9017L31.0205 49.3109C31.4477 49.3406 31.9767 49.0658 32.1969 48.6986C32.1969 48.6986 33.21 47.014 34.612 46.6654C36.0165 46.3145 37.7002 47.3346 37.7002 47.3346C38.0668 47.557 38.6626 47.5532 39.0252 47.326L41.2335 45.6936C41.5587 45.415 41.7385 44.847 41.635 44.4315C41.635 44.4315 41.158 42.5205 41.9026 41.281C42.652 40.0415 44.5621 39.5723 44.5621 39.5723C44.9783 39.4695 45.3955 39.0455 45.4903 38.6276L45.9003 35.9128C45.9307 35.4856 45.656 34.9566 45.2896 34.7364C45.2896 34.7364 43.5995 33.7234 43.2518 32.3197C42.9032 30.9161 43.9234 29.2322 43.9234 29.2322C44.1436 28.8666 44.1389 28.2698 43.9124 27.9065L42.2784 25.6982C41.9999 25.3737 41.4318 25.194 41.0156 25.2974C41.0156 25.2974 39.1078 25.7768 37.8691 25.0291C36.6273 24.2808 36.158 22.3698 36.158 22.3698Z" fill="#306FD5"/>
<path d="M34.6105 30.4354C37.2241 32.0125 38.0675 35.4081 36.4951 38.0217C34.918 40.6368 31.5239 41.4802 28.9088 39.9046C26.2952 38.3297 25.4518 34.9334 27.0242 32.3198C28.6006 29.7056 31.9985 28.8637 34.6105 30.4354Z" fill="#0C1D3E"/>
<path d="M36.0709 31.7122C37.4785 33.4684 37.7229 35.9832 36.4949 38.0217C35.4555 39.7444 33.6285 40.6983 31.7549 40.6983C30.7838 40.6983 29.8011 40.4424 28.9086 39.9048C28.6744 39.7631 28.4542 39.6067 28.2473 39.4379L35.4049 46.594C36.5782 46.6546 37.6979 47.3324 37.6979 47.3324C37.8785 47.4421 38.1142 47.4966 38.3516 47.4966C38.5952 47.4966 38.8394 47.439 39.0231 47.3238L41.2314 45.6913C41.496 45.4649 41.6648 45.0471 41.6616 44.6758C41.6616 44.5903 41.6523 44.507 41.6329 44.4292C41.6329 44.4292 41.482 43.8247 41.4827 43.0745C41.4827 42.491 41.5745 41.8203 41.9005 41.278C42.411 40.4313 43.4659 39.9443 44.0822 39.7203L36.0709 31.7122Z" fill="#306FD5"/>
</g>
</g>
<defs>
<clipPath id="clip0_759_310">
<rect width="64" height="64" fill="white" transform="translate(0.111755 0.74585)"/>
</clipPath>
<clipPath id="clip1_759_310">
<rect width="64" height="64" fill="white" transform="translate(0.111755 0.74585)"/>
</clipPath>
</defs>
</svg>
