<svg width="65" height="65" viewBox="0 0 65 65" fill="none" xmlns="http://www.w3.org/2000/svg">
<g clip-path="url(#clip0_759_320)">
<g clip-path="url(#clip1_759_320)">
<path d="M26.5616 53.354C26.7403 52.9892 26.9195 52.6468 27.1059 52.3594L46.0269 22.4619H46.0262L50.1721 15.9169C50.835 14.8711 52.0291 14.3642 53.1845 14.507V10.8395H5.82536V52.1118C5.82536 54.6731 7.92234 56.7701 10.4836 56.7701H25.3652C25.63 55.6389 26.0662 54.3827 26.5616 53.354Z" fill="#F2F8FD"/>
<path d="M26.0112 18.726C26.0112 17.0172 24.6145 15.6205 22.9057 15.6205H15.1419C13.4331 15.6205 12.0364 17.0172 12.0364 18.726V26.4898C12.0364 28.1986 13.4331 29.5953 15.1419 29.5953H22.9057C24.6145 29.5953 26.0112 28.1986 26.0112 26.4898V18.726Z" fill="#306FD5"/>
<path d="M26.0112 37.3591C26.0112 35.6511 24.6137 34.2536 22.9057 34.2536H15.1419C13.4339 34.2536 12.0364 35.6511 12.0364 37.3591V45.1229C12.0364 46.8309 13.4339 48.2284 15.1419 48.2284H22.9057C24.6137 48.2284 26.0112 46.8309 26.0112 45.1229V37.3591Z" fill="#9BD0FF"/>
<path d="M53.1845 29.6047L36.1584 56.5093L36.5862 56.7686H48.526C51.0873 56.7686 53.1843 54.6716 53.1843 52.1103V29.6047" fill="#F2F8FD"/>
<path d="M23.9879 19.9558C24.1323 20.3315 24.0803 20.771 23.8093 21.1064L19.7124 26.1444C19.5152 26.3858 19.2302 26.5388 18.9205 26.5683C18.7148 26.5885 18.5114 26.5482 18.3258 26.4635L21.4562 29.5947H22.9049C24.6137 29.5947 26.0104 28.198 26.0104 26.4892V21.9777L23.9879 19.9558Z" fill="#306FD5"/>
<path d="M15.1722 23.8944L18.0627 26.3042C18.3019 26.5037 18.6116 26.5993 18.9207 26.5689C19.2297 26.5394 19.5154 26.3865 19.7125 26.145L23.8094 21.107C24.214 20.6078 24.1394 19.8749 23.6402 19.4689C23.1403 19.0635 22.4082 19.1389 22.0021 19.6373L18.6497 23.7606L16.6645 22.1054C16.17 21.6938 15.4347 21.7607 15.0239 22.2544C14.6116 22.7485 14.6776 23.4828 15.1722 23.8944Z" fill="#0C1D3E"/>
<path d="M53.1845 0.74585H5.82536V10.8388H53.1845V0.74585Z" fill="#306FD5"/>
<path d="M46.3197 18.6444C46.3896 18.5319 46.5138 18.4675 46.6504 18.4667C46.7234 18.4675 46.7886 18.4846 46.8547 18.5264L48.0426 19.2787L49.2895 17.3106L48.0993 16.5576C47.6514 16.2742 47.1452 16.1368 46.6506 16.1376C45.7547 16.1368 44.868 16.5832 44.3501 17.4015L44.3509 17.3999L37.2657 28.5962C36.9218 29.1396 37.084 29.8585 37.6267 30.2032C38.1694 30.5471 38.8898 30.3849 39.2338 29.8422L46.3182 18.6459L46.3197 18.6444Z" fill="#0C1D3E"/>
<path d="M46.0271 22.462L54.3639 27.7406L35.4442 57.639C35.2578 57.9262 35.0327 58.2367 34.7773 58.5559L26.5616 53.3542C26.7403 52.9893 26.9195 52.6477 27.1059 52.3596L46.0271 22.462Z" fill="#0C1D3E"/>
<path d="M26.5616 53.3532L34.7758 58.555C33.775 59.8049 32.2921 61.1636 31.1276 61.8701L26.9973 64.3545C25.5376 65.2396 24.4826 64.5719 24.6527 62.8716L25.134 58.0735C25.2736 56.715 25.8637 54.8052 26.5616 53.3532Z" fill="#306FD5"/>
<path d="M57.5477 16.91C58.9917 17.8183 59.4264 19.7515 58.5096 21.1878L54.3637 27.7405L46.0262 22.4611L50.1721 15.9162C51.0882 14.4721 53.0136 14.0374 54.4576 14.9534L57.5477 16.91Z" fill="#306FD5"/>
</g>
</g>
<defs>
<clipPath id="clip0_759_320">
<rect width="64" height="64" fill="white" transform="translate(0.407837 0.74585)"/>
</clipPath>
<clipPath id="clip1_759_320">
<rect width="64" height="64" fill="white" transform="translate(0.407837 0.74585)"/>
</clipPath>
</defs>
</svg>
