<svg width="65" height="65" viewBox="0 0 65 65" fill="none" xmlns="http://www.w3.org/2000/svg">
<g clip-path="url(#clip0_759_380)">
<g clip-path="url(#clip1_759_380)">
<path d="M32.7039 11.4125C18.63 11.4125 7.18011 22.8624 7.18011 36.9363C7.18011 51.0103 18.63 62.4601 32.7039 62.4601C46.7779 62.4601 58.2277 51.0103 58.2277 36.9363C58.2277 22.8624 46.7779 11.4125 32.7039 11.4125Z" fill="#F2F8FD"/>
<path d="M18.6285 25.2396L21.3225 27.9329C21.769 28.3793 22.492 28.3793 22.9386 27.9329C23.385 27.4865 23.385 26.7627 22.9386 26.3161L20.2445 23.6228C19.7981 23.1771 19.0743 23.1771 18.6285 23.6228C18.182 24.0701 18.182 24.7939 18.6285 25.2396Z" fill="#9BD0FF"/>
<path d="M14.0998 38.4616L17.9093 38.4601C18.5408 38.4601 19.0521 37.9481 19.0521 37.3173C19.0521 36.6857 18.5401 36.1744 17.9085 36.1744L14.099 36.1759C13.4682 36.1759 12.9569 36.688 12.9569 37.3188C12.9569 37.9497 13.4688 38.4616 14.0998 38.4616Z" fill="#9BD0FF"/>
<path d="M20.2453 51.0125L22.9386 48.3177C23.385 47.8713 23.385 47.1475 22.9386 46.7009C22.4922 46.2545 21.7683 46.2552 21.3225 46.7009L18.6292 49.3957C18.1828 49.8421 18.1828 50.5659 18.6292 51.0125C19.0758 51.4589 19.7996 51.4589 20.2453 51.0125Z" fill="#9BD0FF"/>
<path d="M33.4658 55.542V51.731C33.4658 51.0994 32.9538 50.5881 32.323 50.5881C31.6922 50.5881 31.1801 51.0994 31.1801 51.731V55.542C31.1801 56.1728 31.6922 56.6848 32.323 56.6848C32.9538 56.6848 33.4658 56.1729 33.4658 55.542Z" fill="#9BD0FF"/>
<path d="M46.0182 49.3965L43.3234 46.7017C42.877 46.2552 42.1539 46.2552 41.7073 46.7017C41.2609 47.1473 41.2609 47.8712 41.7073 48.3177L44.4021 51.0125C44.8486 51.4589 45.5716 51.4589 46.0182 51.0125C46.4648 50.5661 46.4646 49.8423 46.0182 49.3965Z" fill="#9BD0FF"/>
<path d="M32.7039 11.4125C32.5759 11.4125 32.4502 11.4201 32.323 11.4225V17.1268C32.9538 17.1268 33.4658 17.6381 33.4658 18.2697V22.0807C33.4658 22.7115 32.9538 23.2235 32.323 23.2235V32.7732C32.4495 32.7618 32.5745 32.7459 32.7039 32.7459C35.0178 32.7459 36.8944 34.6225 36.8944 36.9363C36.8944 37.0651 36.8868 37.1915 36.8753 37.3173H44.8944C44.8959 36.6872 45.4065 36.1759 46.0365 36.1759L49.846 36.1744C50.4777 36.1744 50.9896 36.6857 50.9896 37.3173H58.2178C58.22 37.19 58.2277 37.0643 58.2277 36.9363C58.2277 22.8624 46.7779 11.4125 32.7039 11.4125ZM46.0175 25.2389L43.3234 27.9329C42.877 28.3793 42.1539 28.3793 41.7073 27.9329C41.2609 27.4865 41.2609 26.7627 41.7073 26.3168L44.4014 23.6228C44.8478 23.1764 45.5709 23.1764 46.0175 23.6228C46.4639 24.0692 46.4639 24.793 46.0175 25.2389Z" fill="#306FD5"/>
<path d="M55.7447 21.36L57.4431 19.6609C58.6279 18.4753 58.6279 16.5356 57.4423 15.35L54.2834 12.1911C53.0978 11.0055 51.1588 11.0063 49.9748 12.1918L48.2758 13.8917C44.227 11.1511 39.4172 9.45061 34.2277 9.17011V6.84109H38.4182C40.0944 6.84109 41.4658 5.46966 41.4658 3.79347C41.4658 2.11728 40.0944 0.74585 38.4182 0.74585H26.2277C24.5515 0.74585 23.1801 2.11728 23.1801 3.79347C23.1801 5.46966 24.5515 6.84109 26.2277 6.84109H30.4182V9.22814C16.1286 10.3915 4.89439 22.3473 4.89439 36.9363C4.89439 52.2956 17.3439 64.7458 32.7039 64.7458C48.0631 64.7458 60.5134 52.2956 60.5134 36.9363C60.5134 31.1649 58.7542 25.8042 55.7447 21.36ZM32.7039 62.4601C18.63 62.4601 7.18011 51.0103 7.18011 36.9363C7.18011 22.8624 18.63 11.4125 32.7039 11.4125C46.7779 11.4125 58.2277 22.8624 58.2277 36.9363C58.2277 51.0103 46.7779 62.4601 32.7039 62.4601Z" fill="#9BD0FF"/>
<path d="M32.7039 41.1268C35.0183 41.1268 36.8944 39.2507 36.8944 36.9363C36.8944 34.622 35.0183 32.7458 32.7039 32.7458C30.3896 32.7458 28.5134 34.622 28.5134 36.9363C28.5134 39.2507 30.3896 41.1268 32.7039 41.1268Z" fill="#0C1D3E"/>
<path d="M46.0373 38.4616L49.8468 38.4601C50.4785 38.4601 50.9896 37.9481 50.9896 37.3173C50.9896 36.6857 50.4776 36.1744 49.846 36.1744L46.0365 36.1759C45.4057 36.1759 44.8944 36.688 44.8944 37.3188C44.8944 37.9497 45.4065 38.4616 46.0373 38.4616Z" fill="#0C1D3E"/>
<path d="M33.4658 22.0807V18.2697C33.4658 17.6381 32.9538 17.1268 32.323 17.1268C31.6922 17.1268 31.1801 17.6381 31.1801 18.2697V22.0807C31.1801 22.7115 31.6922 23.2235 32.323 23.2235C32.9538 23.2235 33.4658 22.7116 33.4658 22.0807Z" fill="#0C1D3E"/>
<path d="M44.4014 23.6228L41.7073 26.3168C41.2609 26.7625 41.2609 27.4863 41.7073 27.9329C42.1538 28.3793 42.8768 28.3793 43.3233 27.9329L46.0173 25.2389C46.4638 24.7924 46.4638 24.0686 46.0173 23.6228C45.571 23.1764 44.8472 23.1764 44.4014 23.6228Z" fill="#0C1D3E"/>
</g>
</g>
<defs>
<clipPath id="clip0_759_380">
<rect width="64" height="64" fill="white" transform="translate(0.703918 0.74585)"/>
</clipPath>
<clipPath id="clip1_759_380">
<rect width="64" height="64" fill="white" transform="translate(0.703918 0.74585)"/>
</clipPath>
</defs>
</svg>
