<svg width="64" height="65" viewBox="0 0 64 65" fill="none" xmlns="http://www.w3.org/2000/svg">
<g clip-path="url(#clip0_759_294)">
<g clip-path="url(#clip1_759_294)">
<path d="M7.52941 40.6517C11.6878 40.6517 15.0588 37.2807 15.0588 33.1223C15.0588 28.9639 11.6878 25.5929 7.52941 25.5929C3.37103 25.5929 0 28.9639 0 33.1223C0 37.2807 3.37103 40.6517 7.52941 40.6517Z" fill="#9BD0FF"/>
<path d="M43.6706 18.8164C47.829 18.8164 51.2 15.4454 51.2 11.287C51.2 7.12865 47.829 3.75761 43.6706 3.75761C39.5122 3.75761 36.1412 7.12865 36.1412 11.287C36.1412 15.4454 39.5122 18.8164 43.6706 18.8164Z" fill="#9BD0FF"/>
<path d="M44.4235 60.9811C48.5819 60.9811 51.9529 57.6101 51.9529 53.4517C51.9529 49.2933 48.5819 45.9223 44.4235 45.9223C40.2651 45.9223 36.8941 49.2933 36.8941 53.4517C36.8941 57.6101 40.2651 60.9811 44.4235 60.9811Z" fill="#9BD0FF"/>
<path d="M31.6235 42.1576C37.0294 42.1576 41.4118 37.7753 41.4118 32.3694C41.4118 26.9635 37.0294 22.5811 31.6235 22.5811C26.2176 22.5811 21.8353 26.9635 21.8353 32.3694C21.8353 37.7753 26.2176 42.1576 31.6235 42.1576Z" fill="#306FD5"/>
<path d="M23.9594 48.0909L27.9508 41.4387C27.2444 41.1525 26.5827 40.7851 25.9697 40.3507L21.943 47.0609C22.6718 47.3017 23.3487 47.6519 23.9594 48.0909Z" fill="#0C1D3E"/>
<path d="M23.2065 17.4008C22.5952 17.8391 21.919 18.1892 21.1902 18.4308L25.1544 25.0364C25.7199 24.5372 26.3381 24.0967 27.009 23.7369L23.2065 17.4008Z" fill="#0C1D3E"/>
<path d="M49.0353 33.4988C48.9796 33.1291 48.9412 32.7541 48.9412 32.3694C48.9412 31.9847 48.9796 31.6089 49.0353 31.24H41.341C41.3847 31.6111 41.4118 31.9869 41.4118 32.3694C41.4118 32.7519 41.3847 33.1276 41.341 33.4988H49.0353Z" fill="#0C1D3E"/>
<path d="M18.8235 18.8164C22.9819 18.8164 26.353 15.4454 26.353 11.287C26.353 7.12865 22.9819 3.75761 18.8235 3.75761C14.6652 3.75761 11.2941 7.12865 11.2941 11.287C11.2941 15.4454 14.6652 18.8164 18.8235 18.8164Z" fill="#306FD5"/>
<path d="M56.4706 39.8988C60.629 39.8988 64 36.5278 64 32.3694C64 28.211 60.629 24.84 56.4706 24.84C52.3122 24.84 48.9412 28.211 48.9412 32.3694C48.9412 36.5278 52.3122 39.8988 56.4706 39.8988Z" fill="#306FD5"/>
<path d="M19.5765 61.7341C23.7348 61.7341 27.1059 58.3631 27.1059 54.2047C27.1059 50.0463 23.7348 46.6753 19.5765 46.6753C15.4181 46.6753 12.0471 50.0463 12.0471 54.2047C12.0471 58.3631 15.4181 61.7341 19.5765 61.7341Z" fill="#306FD5"/>
</g>
</g>
<defs>
<clipPath id="clip0_759_294">
<rect width="64" height="64" fill="white" transform="translate(0 0.74585)"/>
</clipPath>
<clipPath id="clip1_759_294">
<rect width="64" height="64" fill="white" transform="translate(0 0.74585)"/>
</clipPath>
</defs>
</svg>
