<svg width="25" height="25" viewBox="0 0 25 25" fill="none" xmlns="http://www.w3.org/2000/svg">
<g id="24 Icons">
<path id="Subtract" fill-rule="evenodd" clip-rule="evenodd" d="M12.9457 20.6976C17.4731 20.6976 21.1433 17.0274 21.1433 12.5C21.1433 7.97257 17.4731 4.30237 12.9457 4.30237C8.41825 4.30237 4.74805 7.97257 4.74805 12.5C4.74805 17.0274 8.41825 20.6976 12.9457 20.6976ZM14.8079 18.6395C15.8176 18.3333 16.7361 17.7827 17.4821 17.0367L12.9455 12.5V6.08423C11.8904 6.08423 10.8516 6.34444 9.92112 6.8418C8.99062 7.33916 8.19714 8.05833 7.61097 8.9356C7.0248 9.81286 6.66403 10.8212 6.56061 11.8712C6.45719 12.9212 6.61433 13.9805 7.01809 14.9552C7.42185 15.93 8.05978 16.7901 8.87537 17.4595C9.69096 18.1288 10.659 18.5867 11.6938 18.7925C12.7287 18.9984 13.7983 18.9458 14.8079 18.6395Z" fill="#0C1D3E"/>
</g>
</svg>
