<svg width="33" height="33" viewBox="0 0 33 33" fill="none" xmlns="http://www.w3.org/2000/svg">
<g id="Scope Icons" clip-path="url(#clip0_6875_3331)">
<path id="Subtract" fill-rule="evenodd" clip-rule="evenodd" d="M5.0951 8.44697C4.56985 8.61763 4.14404 9.2037 4.14404 9.75598V20.5697C4.14404 21.122 4.56985 21.4314 5.0951 21.2607L15.3796 17.9191C15.9048 17.7484 16.3306 17.1623 16.3306 16.6101V5.79632C16.3306 5.24404 15.9048 4.93467 15.3796 5.10534L5.0951 8.44697ZM11.8113 10.0167C12.3365 9.84599 12.7623 10.1554 12.7623 10.7076V14.0175C12.7623 14.5698 12.3365 15.1559 11.8113 15.3266L8.66337 16.3494C8.13812 16.52 7.71231 16.2107 7.71231 15.6584V12.3485C7.71231 11.7962 8.13812 11.2101 8.66337 11.0395L11.8113 10.0167Z" fill="#9BD0FF"/>
<path id="Subtract_2" fill-rule="evenodd" clip-rule="evenodd" d="M28.4494 8.44697C28.9746 8.61763 29.4004 9.2037 29.4004 9.75598V20.5697C29.4004 21.122 28.9746 21.4314 28.4494 21.2607L25.1338 20.1834V11.7205C25.1338 11.4444 24.9209 11.1513 24.6583 11.066L21.3518 9.99165C21.0891 9.90631 20.8762 10.061 20.8762 10.3371V18.8L18.1649 17.9191C17.6397 17.7484 17.2139 17.1623 17.2139 16.6101V5.79632C17.2139 5.24404 17.6397 4.93467 18.1649 5.10534L28.4494 8.44697Z" fill="#9BD0FF"/>
<path id="Rectangle 30" d="M4.55538 23.7248C4.10699 23.5737 4.09979 22.9421 4.54461 22.7809L15.815 18.6954C16.4713 18.4575 17.19 18.4559 17.8473 18.6909L29.2244 22.7582C29.6783 22.9205 29.6624 23.5678 29.2011 23.7076L17.1169 27.369C16.5195 27.55 15.8806 27.5402 15.2891 27.3409L4.55538 23.7248Z" fill="#306FD5"/>
</g>
<defs>
<clipPath id="clip0_6875_3331">
<rect width="32" height="32" fill="white" transform="translate(0.75 0.96582)"/>
</clipPath>
</defs>
</svg>
