<svg width="30" height="27" viewBox="0 0 30 27" fill="none" xmlns="http://www.w3.org/2000/svg">
<g id="Bedroom-Bed-Room-Sleep-Hotel">
<path id="Vector" d="M0.75 19.9658H4.75V23.4658H0.75V19.9658Z" fill="#9BD0FF"/>
<path id="Vector_2" d="M29.75 19.9658V23.4658H25.75V19.9658H27.75H29.75Z" fill="#9BD0FF"/>
<g id="Group">
<path id="Vector_3" d="M20.75 0.46582H9.75C9.19772 0.46582 8.75 0.913536 8.75 1.46582V4.46582C8.75 5.01811 9.19772 5.46582 9.75 5.46582H20.75C21.3023 5.46582 21.75 5.01811 21.75 4.46582V1.46582C21.75 0.913536 21.3023 0.46582 20.75 0.46582Z" fill="#9BD0FF"/>
<path id="Vector_4" d="M25.75 23.4658H29.75V26.9658H25.75V23.4658Z" fill="#9BD0FF"/>
<path id="Vector_5" d="M0.75 23.4658H4.75V26.9658H0.75V23.4658Z" fill="#9BD0FF"/>
</g>
<path id="Vector_6" d="M28.75 14.9658L29.75 17.9658H27.75H25.75L26.75 14.9658H28.75Z" fill="#306FD5"/>
<path id="Vector_7" d="M3.75 14.9658L4.75 17.9658H0.75L1.75 14.9658H3.75Z" fill="#306FD5"/>
<path id="Vector_8" d="M6.75 23.9658H23.75V26.9658H6.75V23.9658Z" fill="#9BD0FF"/>
<path id="Vector_9" d="M22.25 14.9658V19.9658H8.25V14.9658C8.25 14.1702 8.56607 13.4071 9.12868 12.8445C9.69129 12.2819 10.4544 11.9658 11.25 11.9658H19.25C20.0456 11.9658 20.8087 12.2819 21.3713 12.8445C21.9339 13.4071 22.25 14.1702 22.25 14.9658Z" fill="#9BD0FF"/>
<path id="Vector_10" d="M23.75 20.9658V23.9658H6.75V20.9658C6.75079 20.7008 6.8564 20.447 7.04377 20.2596C7.23113 20.0722 7.48503 19.9666 7.75 19.9658H22.75C23.015 19.9666 23.2689 20.0722 23.4562 20.2596C23.6436 20.447 23.7492 20.7008 23.75 20.9658Z" fill="#306FD5"/>
<path id="Vector_11" d="M19.25 16.9658H17.25C16.6977 16.9658 16.25 17.4135 16.25 17.9658V18.9658C16.25 19.5181 16.6977 19.9658 17.25 19.9658H19.25C19.8023 19.9658 20.25 19.5181 20.25 18.9658V17.9658C20.25 17.4135 19.8023 16.9658 19.25 16.9658Z" fill="#306FD5"/>
<path id="Vector_12" d="M13.25 16.9658H11.25C10.6977 16.9658 10.25 17.4135 10.25 17.9658V18.9658C10.25 19.5181 10.6977 19.9658 11.25 19.9658H13.25C13.8023 19.9658 14.25 19.5181 14.25 18.9658V17.9658C14.25 17.4135 13.8023 16.9658 13.25 16.9658Z" fill="#306FD5"/>
<path id="Vector_13" d="M10.75 3.46582H19.75V5.46582H10.75V3.46582Z" fill="#306FD5"/>
<path id="Vector_14" d="M2.25 17.9658H3.25V19.9658H2.25V17.9658Z" fill="#9BD0FF"/>
<path id="Vector_15" d="M19.25 9.46582C18.5872 9.46503 17.9518 9.20138 17.4831 8.73271C17.0144 8.26404 16.7508 7.62862 16.75 6.96582H17.75C17.75 7.36365 17.908 7.74518 18.1893 8.02648C18.4706 8.30779 18.8522 8.46582 19.25 8.46582V9.46582Z" fill="#306FD5"/>
<path id="Vector_16" d="M11.25 9.46582V8.46582C11.6478 8.46582 12.0294 8.30779 12.3107 8.02648C12.592 7.74518 12.75 7.36365 12.75 6.96582H13.75C13.7492 7.62862 13.4856 8.26404 13.0169 8.73271C12.5482 9.20138 11.9128 9.46503 11.25 9.46582Z" fill="#306FD5"/>
<path id="Vector_17" d="M14.75 6.96582H15.75V9.46582H14.75V6.96582Z" fill="#306FD5"/>
<path id="Vector_18" d="M27.25 17.9658H28.25V19.9658H27.25V17.9658Z" fill="#9BD0FF"/>
</g>
</svg>
