<svg width="61" height="38" viewBox="0 0 61 38" fill="none" xmlns="http://www.w3.org/2000/svg">
<g id="Group 724">
<g id="Group 723">
<path id="Vector" d="M17.7329 35.5835C17.713 35.5835 17.6932 35.58 17.6748 35.573C17.6563 35.5661 17.6396 35.556 17.6255 35.5432C17.6114 35.5304 17.6003 35.5153 17.5927 35.4986C17.585 35.482 17.5812 35.4641 17.5813 35.4461V33.4505C17.5796 33.3509 17.5705 33.2516 17.554 33.1532C17.5402 33.061 17.5066 32.972 17.455 32.8914C17.4042 32.8145 17.3311 32.7516 17.2438 32.7093C17.1303 32.6598 17.0049 32.6366 16.8789 32.6417C16.7485 32.6384 16.6192 32.6644 16.5027 32.7173C16.4028 32.7643 16.3168 32.8322 16.2521 32.9155C16.1876 32.9996 16.1405 33.0935 16.1131 33.1927C16.0834 33.2951 16.0669 33.4002 16.0643 33.506V35.4461C16.0643 35.4641 16.0605 35.482 16.0529 35.4986C16.0453 35.5153 16.0342 35.5304 16.02 35.5432C16.006 35.556 15.9893 35.5661 15.9708 35.573C15.9523 35.58 15.9326 35.5835 15.9126 35.5835H15.0098C14.9695 35.5835 14.931 35.5691 14.9025 35.5434C14.8741 35.5178 14.8581 35.4829 14.8581 35.4466V33.506C14.8551 33.2208 14.7864 33.0041 14.6519 32.8559C14.5852 32.7828 14.5005 32.7247 14.4046 32.6862C14.3087 32.6477 14.2042 32.6299 14.0993 32.6342C13.8362 32.6342 13.6323 32.7068 13.4877 32.8519C13.343 32.997 13.2698 33.215 13.2681 33.506L13.2713 35.4461C13.2714 35.4641 13.2675 35.482 13.2599 35.4986C13.2523 35.5153 13.2412 35.5304 13.2271 35.5432C13.213 35.556 13.1963 35.5661 13.1778 35.573C13.1594 35.58 13.1397 35.5835 13.1197 35.5835H12.1819C12.1417 35.5835 12.1031 35.5691 12.0747 35.5434C12.0463 35.5178 12.0303 35.4829 12.0303 35.4466V31.7848C12.0303 31.7485 12.0463 31.7137 12.0747 31.688C12.1031 31.6623 12.1417 31.6479 12.1819 31.6479H13.0429C13.0761 31.648 13.1085 31.658 13.1348 31.6763C13.1612 31.6946 13.1802 31.7203 13.1888 31.7493L13.2821 32.0683C13.3916 31.9003 13.5567 31.7675 13.7541 31.6886C13.9714 31.6073 14.2058 31.5703 14.4408 31.5802C14.6757 31.5901 14.9053 31.6466 15.1132 31.7458C15.3257 31.8641 15.4845 32.0469 15.5611 32.2613C15.7128 32.0506 15.9204 31.8775 16.1651 31.7579C16.4257 31.6434 16.713 31.5876 17.0027 31.5952C17.2963 31.5875 17.5889 31.6293 17.8655 31.7183C18.0804 31.7907 18.2698 31.9139 18.4137 32.0752C18.5562 32.2441 18.6545 32.4399 18.7012 32.648C18.7597 32.9022 18.7867 33.1616 18.7817 33.4212V35.4484C18.7819 35.4664 18.7781 35.4843 18.7706 35.501C18.763 35.5177 18.7518 35.5329 18.7378 35.5457C18.7236 35.5585 18.7069 35.5686 18.6883 35.5755C18.6699 35.5824 18.6501 35.5859 18.6301 35.5858L17.7329 35.5835Z" fill="#142334"/>
<path id="Vector_2" d="M58.982 35.5832C58.9623 35.5832 58.942 35.5796 58.9236 35.5727C58.9052 35.5658 58.8887 35.5556 58.8747 35.5429C58.8601 35.5301 58.8494 35.515 58.8417 35.4983C58.8341 35.4816 58.8303 35.4638 58.8303 35.4457V33.4501C58.8284 33.3506 58.8195 33.2513 58.803 33.1528C58.791 33.061 58.7599 32.9721 58.7104 32.8911C58.6596 32.8142 58.5867 32.7513 58.4991 32.7089C58.3856 32.6596 58.2599 32.6364 58.1343 32.6413C58.0036 32.638 57.8748 32.664 57.7581 32.717C57.6572 32.7635 57.5696 32.8315 57.5043 32.9151C57.4396 32.9992 57.3926 33.0932 57.3653 33.1924C57.3355 33.2947 57.319 33.3999 57.3165 33.5057V35.4457C57.3165 35.4638 57.3127 35.4816 57.305 35.4983C57.2974 35.515 57.2866 35.5301 57.272 35.5429C57.2581 35.5556 57.2416 35.5658 57.2232 35.5727C57.2048 35.5796 57.1845 35.5832 57.1648 35.5832H56.2563C56.2163 35.5832 56.1776 35.5688 56.149 35.5431C56.1205 35.5174 56.1046 35.4826 56.1046 35.4463V33.5057C56.1014 33.2204 56.0323 33.0037 55.8984 32.8556C55.8318 32.7824 55.7468 32.7243 55.651 32.6859C55.5552 32.6474 55.4505 32.6296 55.3458 32.6339C55.0825 32.6339 54.8782 32.7065 54.7341 32.8516C54.5901 32.9966 54.5165 33.2147 54.5146 33.5057L54.5178 35.4457C54.5178 35.4638 54.514 35.4817 54.5064 35.4984C54.4988 35.5151 54.4873 35.5303 54.4734 35.5431C54.4594 35.5559 54.4423 35.566 54.4239 35.5729C54.4055 35.5798 54.3858 35.5833 54.3655 35.5832H53.4309C53.4113 35.5832 53.3916 35.5796 53.3732 35.5728C53.3548 35.5659 53.3377 35.5558 53.3237 35.5431C53.3097 35.5304 53.2983 35.5153 53.2907 35.4987C53.2831 35.4821 53.2793 35.4643 53.2793 35.4463V31.7844C53.2793 31.7665 53.2831 31.7487 53.2907 31.7321C53.2983 31.7155 53.3097 31.7004 53.3237 31.6876C53.3377 31.6749 53.3548 31.6649 53.3732 31.658C53.3916 31.6511 53.4113 31.6476 53.4309 31.6476H54.2919C54.3249 31.6477 54.3573 31.6576 54.3839 31.676C54.4106 31.6943 54.429 31.7199 54.4378 31.7489L54.5337 32.068C54.6428 31.8998 54.8071 31.7666 55.0038 31.6871C55.2214 31.606 55.4555 31.5692 55.6903 31.5793C55.9257 31.5894 56.1547 31.6461 56.3628 31.7455C56.5741 31.8642 56.7315 32.0469 56.807 32.261C56.9593 32.0504 57.1667 31.8774 57.4116 31.7575C57.6724 31.6431 57.9598 31.5873 58.2491 31.5949C58.5429 31.5872 58.8354 31.6289 59.112 31.718C59.3271 31.7893 59.5175 31.9115 59.6621 32.072C59.8049 32.2409 59.9026 32.4367 59.9495 32.6448C60.0079 32.899 60.0352 33.1584 60.0301 33.418V35.4452C60.0301 35.4632 60.0263 35.4811 60.0187 35.4977C60.0111 35.5144 60.0003 35.5295 59.9857 35.5423C59.9717 35.5551 59.9552 35.5652 59.9368 35.5721C59.9184 35.5791 59.8981 35.5826 59.8785 35.5826L58.982 35.5832Z" fill="#142334"/>
<path id="Vector_3" d="M20.841 31.76L20.9044 32.2269C21.0848 32.0404 21.3014 31.8851 21.5433 31.7686C21.813 31.6462 22.1122 31.5862 22.4138 31.5939C22.976 31.5939 23.4368 31.7354 23.7964 32.0184C24.1559 32.3013 24.3858 32.699 24.486 33.2115C24.5594 33.549 24.5633 33.8957 24.4975 34.2345C24.4411 34.5206 24.3083 34.79 24.1104 35.0192C23.9088 35.2424 23.6464 35.4144 23.3491 35.5187C22.9942 35.6407 22.6164 35.6991 22.2368 35.6905C22.0016 35.6893 21.7681 35.6531 21.5459 35.5834C21.2872 35.4982 21.0559 35.3565 20.8727 35.171V37.2302C20.8727 37.2665 20.8567 37.3013 20.8283 37.327C20.7999 37.3526 20.7613 37.3671 20.7211 37.3671H19.8461C19.8058 37.3671 19.7672 37.3527 19.7386 37.327C19.7102 37.3014 19.694 37.2666 19.6938 37.2302V31.7766C19.6938 31.7586 19.6978 31.7408 19.7055 31.7241C19.7131 31.7075 19.7244 31.6924 19.7385 31.6796C19.7527 31.6669 19.7694 31.6569 19.7879 31.65C19.8063 31.6432 19.8261 31.6397 19.8461 31.6398H20.69C20.7271 31.6396 20.7629 31.6518 20.7908 31.674C20.8186 31.6962 20.8365 31.7268 20.841 31.76ZM22.1252 34.7002C22.3058 34.7034 22.4852 34.6723 22.6518 34.6091C22.7968 34.5532 22.9245 34.4661 23.0236 34.3554C23.1231 34.2403 23.1918 34.106 23.2241 33.963C23.2607 33.7954 23.2607 33.623 23.2241 33.4555C23.1908 33.2286 23.0674 33.0202 22.877 32.869C22.6956 32.7311 22.4581 32.6622 22.1645 32.6622C21.9771 32.6572 21.7912 32.694 21.6233 32.7693C21.4802 32.8351 21.3559 32.93 21.2604 33.0465C21.1686 33.1598 21.1056 33.2898 21.0757 33.4274C21.0443 33.5644 21.0419 33.7055 21.0688 33.8433C21.0907 33.9519 21.1292 34.0574 21.183 34.1566C21.2366 34.2576 21.3079 34.35 21.3942 34.4304C21.4836 34.5117 21.5888 34.5776 21.7045 34.6246C21.8369 34.6772 21.9805 34.703 22.1252 34.7002Z" fill="#142334"/>
<path id="Vector_4" d="M28.8957 35.4622L28.8449 35.1363C28.7209 35.2472 28.5864 35.3481 28.4427 35.4376C28.2169 35.5761 27.9538 35.6568 27.6813 35.6713C27.5481 35.6793 27.4026 35.6833 27.2448 35.6833C26.9923 35.6853 26.7417 35.6449 26.5056 35.5642C26.2797 35.4867 26.0724 35.371 25.8946 35.2234C25.7119 35.0701 25.5605 34.889 25.4473 34.6884C25.1744 34.1942 25.0864 33.6334 25.1967 33.0903C25.2556 32.8135 25.3832 32.5522 25.5701 32.3263C25.7569 32.1004 25.998 31.9157 26.2753 31.786C26.5899 31.6403 26.9369 31.5604 27.2905 31.5523C27.5742 31.5503 27.8572 31.5795 28.133 31.6394C28.409 31.7087 28.6547 31.8526 28.8373 32.0518L28.8817 31.7081C28.8839 31.6914 28.8928 31.676 28.9067 31.6648C28.9206 31.6537 28.9386 31.6475 28.9572 31.6474H29.8347C29.8749 31.6474 29.9135 31.6619 29.9419 31.6875C29.9704 31.7132 29.9863 31.748 29.9863 31.7843V35.4433C29.9874 35.4791 29.9728 35.5138 29.9457 35.5399C29.9187 35.5661 29.8813 35.5816 29.8417 35.5831H29.0486C29.011 35.5837 28.9746 35.5717 28.9463 35.5493C28.918 35.527 28.8999 35.496 28.8957 35.4622ZM27.6172 32.5834C27.4274 32.5805 27.2393 32.6157 27.0665 32.6865C26.9108 32.7507 26.7718 32.8438 26.6585 32.9597C26.5483 33.0752 26.4698 33.2126 26.4295 33.3606C26.3861 33.519 26.3809 33.6838 26.4142 33.8441C26.4553 34.0836 26.5834 34.3041 26.7784 34.4707C26.9713 34.6345 27.2251 34.7164 27.5398 34.7164C27.7185 34.7187 27.8963 34.6919 28.0645 34.6374C28.2133 34.5886 28.3495 34.513 28.4649 34.4152C28.5771 34.3177 28.6663 34.2007 28.7271 34.0713C28.7878 33.9418 28.8188 33.8026 28.8183 33.6619C28.8319 33.3782 28.7208 33.1012 28.5093 32.891C28.3012 32.6859 28.0038 32.5834 27.6172 32.5834Z" fill="#142334"/>
<path id="Vector_5" d="M51.2723 35.4622L51.2216 35.1363C51.0978 35.2474 50.9633 35.3482 50.8193 35.4376C50.7045 35.5079 50.5795 35.5638 50.4481 35.6037C50.3231 35.641 50.1931 35.6637 50.0617 35.6713C49.9285 35.6793 49.7832 35.6833 49.6252 35.6833C49.3727 35.6853 49.1221 35.6449 48.8861 35.5642C48.6602 35.4868 48.4527 35.3711 48.2751 35.2234C48.0936 35.0698 47.9432 34.8888 47.8309 34.6884C47.5568 34.1945 47.468 33.6337 47.5771 33.0903C47.6355 32.8133 47.763 32.552 47.9502 32.3261C48.1367 32.1001 48.3785 31.9155 48.6557 31.786C48.9704 31.6403 49.3175 31.5604 49.6709 31.5523C49.9545 31.5503 50.2375 31.5796 50.5135 31.6394C50.7895 31.7085 51.035 31.8525 51.2171 32.0518L51.2622 31.7081C51.2641 31.6914 51.2729 31.676 51.2869 31.6648C51.3009 31.6536 51.3193 31.6475 51.3377 31.6474H52.2151C52.2348 31.6474 52.2545 31.651 52.2729 31.6578C52.2913 31.6647 52.3084 31.6748 52.3224 31.6875C52.3363 31.7002 52.3477 31.7153 52.3554 31.7319C52.363 31.7485 52.3668 31.7663 52.3668 31.7843V35.4433C52.3668 35.4613 52.363 35.4791 52.3554 35.4957C52.3477 35.5123 52.3363 35.5274 52.3224 35.5401C52.3084 35.5528 52.2913 35.5629 52.2729 35.5698C52.2545 35.5767 52.2348 35.5802 52.2151 35.5802H51.4214C51.3852 35.5799 51.3497 35.5678 51.3224 35.5461C51.2952 35.5245 51.2774 35.4947 51.2723 35.4622ZM49.9945 32.5834C49.8048 32.5804 49.6163 32.6156 49.4438 32.6865C49.2883 32.7507 49.1494 32.8438 49.0358 32.9597C48.9254 33.075 48.8467 33.2125 48.8067 33.3606C48.7636 33.519 48.7585 33.6838 48.7915 33.8441C48.8328 34.0835 48.9603 34.3039 49.1551 34.4707C49.3479 34.6345 49.6017 34.7164 49.9164 34.7164C50.0954 34.7187 50.273 34.6919 50.4412 34.6374C50.5896 34.5886 50.726 34.513 50.8415 34.4152C50.9538 34.3177 51.0433 34.2007 51.1035 34.0712C51.1645 33.9418 51.1955 33.8026 51.1949 33.6619C51.2089 33.3774 51.0978 33.0995 50.8859 32.8887C50.6778 32.6851 50.3809 32.5834 49.9945 32.5834Z" fill="#142334"/>
<path id="Vector_6" d="M34.0956 35.5833C34.0553 35.5833 34.0168 35.5689 33.9883 35.5432C33.9599 35.5175 33.9439 35.4827 33.9439 35.4464V33.5138C33.9439 33.4084 33.9312 33.3024 33.9166 33.1965C33.9039 33.095 33.8669 32.9973 33.8081 32.9101C33.746 32.8217 33.6582 32.7504 33.5544 32.7039C33.4102 32.6454 33.2529 32.6183 33.095 32.6248C32.7955 32.6199 32.5557 32.7031 32.3755 32.8746C32.1953 33.046 32.1054 33.2826 32.1058 33.5843L32.102 35.4452C32.1022 35.4635 32.0984 35.4816 32.0906 35.4985C32.0829 35.5154 32.0716 35.5308 32.0572 35.5436C32.0428 35.5565 32.0258 35.5666 32.007 35.5734C31.9882 35.5803 31.9681 35.5836 31.9479 35.5833H31.0564C31.0162 35.5833 30.9776 35.5689 30.9492 35.5432C30.9208 35.5175 30.9048 35.4827 30.9048 35.4464V31.7805C30.9047 31.7625 30.9086 31.7446 30.9161 31.728C30.9238 31.7113 30.9349 31.6961 30.9489 31.6834C30.9631 31.6706 30.9798 31.6605 30.9982 31.6535C31.0167 31.6466 31.0364 31.6431 31.0564 31.6431H31.8654C31.9006 31.643 31.9347 31.654 31.9619 31.6742C31.9891 31.6943 32.0077 31.7224 32.0145 31.7536L32.0779 32.0475C32.2533 31.8786 32.4737 31.7532 32.7181 31.6832C32.9091 31.6293 33.1075 31.5998 33.3075 31.5955C33.5761 31.5915 33.8436 31.6263 34.1 31.6986C34.3217 31.7626 34.522 31.8758 34.6825 32.028C34.8523 32.1967 34.9761 32.3989 35.0441 32.6185C35.1331 32.9074 35.1737 33.2067 35.1647 33.5064V35.4464C35.1647 35.4644 35.1608 35.4823 35.1533 35.499C35.1457 35.5156 35.1346 35.5308 35.1205 35.5435C35.1064 35.5563 35.0897 35.5665 35.0712 35.5734C35.0527 35.5803 35.033 35.5839 35.013 35.5839L34.0956 35.5833Z" fill="#142334"/>
<path id="Vector_7" d="M40.2849 31.6396C40.3049 31.6396 40.3247 31.6431 40.3432 31.6499C40.3616 31.6568 40.3784 31.6668 40.3925 31.6795C40.4067 31.6923 40.4179 31.7074 40.4256 31.724C40.4333 31.7407 40.4372 31.7585 40.4372 31.7765V35.5644C40.4372 35.9463 40.3812 36.2661 40.2691 36.5238C40.1781 36.7576 40.0254 36.9679 39.8242 37.1364C39.623 37.305 39.3794 37.4268 39.1143 37.4913C38.8334 37.5617 38.543 37.5963 38.2514 37.5944C37.9701 37.596 37.6897 37.5653 37.4171 37.5027C37.1736 37.4477 36.9443 37.3505 36.742 37.2163C36.5457 37.0824 36.387 36.9085 36.2789 36.7088C36.1765 36.5188 36.1149 36.313 36.0974 36.1023C36.0954 36.0832 36.0978 36.064 36.1044 36.0459C36.1111 36.0277 36.1218 36.011 36.136 35.9969C36.1503 35.9827 36.1676 35.9713 36.1869 35.9635C36.2063 35.9557 36.2272 35.9517 36.2484 35.9516H37.1557C37.1915 35.952 37.2261 35.9637 37.2534 35.9846C37.2807 36.0055 37.2991 36.0343 37.3054 36.0662C37.3183 36.1393 37.3478 36.2091 37.3921 36.2713C37.4365 36.3336 37.4947 36.3868 37.563 36.4276C37.7594 36.5356 37.9869 36.5884 38.2166 36.5794C38.4946 36.5857 38.7647 36.4957 38.9716 36.3279C39.1789 36.1588 39.2827 35.9105 39.2831 35.5833V35.1468C39.1395 35.3155 38.9478 35.4458 38.7286 35.5237C38.4899 35.5951 38.2395 35.6286 37.9881 35.6228C37.7403 35.6233 37.4938 35.5907 37.2566 35.526C37.0285 35.4646 36.8202 35.3544 36.6494 35.2047C36.4623 35.0337 36.3212 34.8261 36.237 34.5981C36.1253 34.294 36.0719 33.975 36.079 33.6547L36.0752 31.7783C36.0752 31.7419 36.0911 31.707 36.1195 31.6813C36.148 31.6555 36.1865 31.6409 36.2268 31.6408H37.1322C37.1725 31.6409 37.2111 31.6555 37.2395 31.6813C37.2679 31.707 37.2839 31.7419 37.2839 31.7783V33.6547C37.2838 33.774 37.2925 33.8933 37.3099 34.0116C37.3242 34.1224 37.3677 34.2284 37.4368 34.3209C37.5136 34.4179 37.6179 34.4944 37.7388 34.5426C37.9137 34.6079 38.1023 34.6378 38.2914 34.6302C38.612 34.6195 38.8458 34.5191 38.9925 34.3289C39.1466 34.1174 39.2252 33.8683 39.2178 33.6152V31.7777C39.2179 31.7413 39.2341 31.7065 39.2625 31.6809C39.2911 31.6552 39.3297 31.6408 39.37 31.6408L40.2849 31.6396Z" fill="#142334"/>
<path id="Vector_8" d="M0.445801 32.7887C0.445801 31.1987 1.80485 29.9116 3.71843 29.9116C4.50962 29.9116 5.22594 30.135 5.76905 30.5268C5.7851 30.5385 5.7983 30.5531 5.80782 30.5696C5.81734 30.5862 5.82298 30.6043 5.82444 30.6229C5.82584 30.6415 5.82304 30.6601 5.81613 30.6777C5.80921 30.6953 5.79836 30.7114 5.78428 30.725L5.1644 31.3373C5.13876 31.3624 5.10374 31.378 5.06612 31.3811C5.02849 31.3841 4.99093 31.3745 4.96073 31.3539C4.62719 31.1224 4.21579 31.0011 3.7952 31.0102C2.66583 31.0102 1.84292 31.8053 1.84292 32.7905C1.84292 33.7923 2.6468 34.5959 3.74634 34.5959C4.25525 34.6021 4.74723 34.431 5.11998 34.1182C5.1347 34.1055 5.15209 34.0957 5.17112 34.0893C5.19009 34.0828 5.2104 34.0799 5.2307 34.0806C5.251 34.0814 5.27093 34.0858 5.28926 34.0936C5.30766 34.1015 5.32409 34.1125 5.33761 34.1262L5.96383 34.7632C5.99055 34.7902 6.00425 34.8258 6.00203 34.8619C5.99975 34.8981 5.98166 34.932 5.95178 34.9562C5.3706 35.419 4.60796 35.6934 3.71779 35.6934C1.80485 35.6917 0.445801 34.404 0.445801 32.7887Z" fill="#142334"/>
<path id="Vector_9" d="M41.4229 32.7886C41.4229 31.1985 42.7851 29.9126 44.6955 29.9126C45.4867 29.9126 46.203 30.136 46.7461 30.5278C46.7622 30.5395 46.7754 30.5541 46.7849 30.5706C46.7944 30.5872 46.8 30.6053 46.8015 30.6239C46.8029 30.6425 46.8001 30.6611 46.7932 30.6787C46.7863 30.6963 46.7754 30.7123 46.7613 30.726L46.1414 31.3371C46.1158 31.3622 46.0808 31.3778 46.0432 31.3809C46.0055 31.384 45.968 31.3743 45.9378 31.3537C45.6042 31.1223 45.1928 31.001 44.7722 31.0101C43.6429 31.0101 42.82 31.8051 42.82 32.7903C42.82 33.7921 43.6238 34.5957 44.7234 34.5957C45.2321 34.6019 45.7238 34.4308 46.0964 34.118C46.1111 34.1054 46.1285 34.0956 46.1475 34.0891C46.1665 34.0826 46.1868 34.0797 46.2071 34.0805C46.2274 34.0812 46.2473 34.0856 46.2657 34.0935C46.2841 34.1013 46.3005 34.1124 46.314 34.126L46.9402 34.763C46.9669 34.79 46.9809 34.8256 46.9783 34.8617C46.9764 34.8979 46.958 34.9318 46.9282 34.956C46.3476 35.4188 45.5844 35.6932 44.6942 35.6932C42.7851 35.6915 41.4229 34.4038 41.4229 32.7886Z" fill="#142334"/>
<path id="Vector_10" d="M6.54932 33.6134C6.54932 32.4598 7.58985 31.5444 8.90322 31.5444C10.2166 31.5444 11.2654 32.4609 11.2654 33.6134C11.2654 34.7658 10.2255 35.6828 8.90385 35.6828C7.58224 35.6828 6.54932 34.7675 6.54932 33.6134ZM10.058 33.6134C10.058 32.993 9.56434 32.5314 8.90322 32.5314C8.2421 32.5314 7.74847 32.993 7.74847 33.6134C7.74847 34.2434 8.2421 34.6959 8.90322 34.6959C9.56434 34.6959 10.058 34.2423 10.058 33.6134Z" fill="#142334"/>
</g>
<g id="Group 722">
<path id="Vector_11" d="M36.6533 0.879883H23.8231C20.1853 0.879883 17.2363 3.54215 17.2363 6.82623V18.4091C17.2363 21.6932 20.1853 24.3554 23.8231 24.3554H36.6533C40.291 24.3554 43.24 21.6932 43.24 18.4091V6.82623C43.24 3.54215 40.291 0.879883 36.6533 0.879883Z" fill="url(#paint0_linear_5379_8476)"/>
<path id="Vector_12" d="M25.9001 18.213H23.0007C22.8437 18.2126 22.6932 18.1561 22.5823 18.0558C22.4714 17.9554 22.4091 17.8195 22.4091 17.6777V13.647C22.4088 13.5366 22.36 13.431 22.2735 13.353C22.187 13.2752 22.0698 13.2314 21.9476 13.2314C21.8256 13.2318 21.7087 13.2756 21.6225 13.3535C21.5362 13.4313 21.4876 13.5369 21.4873 13.647V17.6777C21.4876 18.0399 21.6472 18.3873 21.931 18.6435C22.2147 18.8996 22.5994 19.0436 23.0007 19.044H25.9001V18.213Z" fill="white"/>
<path id="Vector_13" d="M38.5248 11.2442H38.0047V12.0764H38.0711V17.6776C38.0707 17.8196 38.0081 17.9555 37.897 18.0558C37.7859 18.1561 37.6354 18.2125 37.4782 18.2129H34.5684V19.0439H37.4782C37.8794 19.0436 38.2641 18.8995 38.548 18.6434C38.8317 18.3872 38.9912 18.0399 38.9916 17.6776V11.6597C38.9916 11.6046 38.9795 11.5501 38.956 11.4993C38.9324 11.4485 38.898 11.4025 38.8545 11.3638C38.8111 11.3251 38.7595 11.2946 38.7029 11.2741C38.6464 11.2536 38.5858 11.2434 38.5248 11.2442Z" fill="white"/>
<path id="Vector_14" d="M30.2038 14.9982C29.8583 14.9987 29.5162 14.9377 29.1969 14.8186C28.8777 14.6996 28.5875 14.5249 28.3432 14.3045C27.8505 13.8587 27.5737 13.2545 27.5737 12.6248C27.5737 11.995 27.8505 11.391 28.3432 10.9451C28.837 10.5003 29.5061 10.2505 30.2038 10.2505C30.9013 10.2505 31.5705 10.5003 32.0643 10.9451C32.15 11.0232 32.1982 11.1287 32.1982 11.2386C32.1982 11.3485 32.15 11.454 32.0643 11.532C31.9779 11.6094 31.861 11.6529 31.7393 11.6529C31.6174 11.6529 31.5007 11.6094 31.4142 11.532C31.0933 11.2427 30.6586 11.0803 30.2051 11.0803C29.7516 11.0803 29.3167 11.2427 28.9959 11.532C28.6754 11.8217 28.4954 12.2143 28.4954 12.6236C28.4954 13.0331 28.6754 13.4256 28.9959 13.7153C29.317 14.004 29.7518 14.1661 30.2051 14.1661C30.6583 14.1661 31.0931 14.004 31.4142 13.7153C31.4569 13.6766 31.5076 13.646 31.5634 13.6251C31.6191 13.6042 31.6788 13.5934 31.7393 13.5934C31.7996 13.5934 31.8594 13.6042 31.9152 13.6251C31.971 13.646 32.0217 13.6766 32.0643 13.7153C32.15 13.7933 32.1982 13.8987 32.1982 14.0087C32.1982 14.1187 32.15 14.2241 32.0643 14.3021C31.8201 14.5229 31.5302 14.6982 31.2109 14.8175C30.8916 14.937 30.5493 14.9984 30.2038 14.9982Z" fill="white"/>
<path id="Vector_15" d="M30.2349 20.1087C30.1601 20.1086 30.0865 20.0921 30.0204 20.0606C29.9543 20.0291 29.8976 19.9836 29.8553 19.928L26.2629 15.2C25.6525 14.3975 25.3584 13.433 25.428 12.4615C25.4975 11.49 25.9267 10.5678 26.6464 9.84288C27.0981 9.38705 27.6511 9.02228 28.2695 8.77231C28.8878 8.52234 29.5574 8.39278 30.2349 8.39209C30.9121 8.39184 31.5815 8.52063 32.1996 8.77002C32.8179 9.01942 33.3707 9.3838 33.8221 9.83936C34.5428 10.5636 34.9732 11.4855 35.0439 12.457C35.1146 13.4285 34.8217 14.3933 34.2122 15.1965L30.6198 19.928C30.577 19.9843 30.5194 20.0302 30.4523 20.0617C30.3852 20.0932 30.3106 20.1094 30.2349 20.1087ZM30.2349 9.22312C29.687 9.22379 29.1454 9.32867 28.6454 9.53091C28.1454 9.73314 27.6982 10.0282 27.3329 10.3969C26.7497 10.9829 26.402 11.729 26.3456 12.5151C26.2892 13.3012 26.5275 14.0815 27.0222 14.7305L30.2349 18.9561L33.4464 14.7305C33.9411 14.0819 34.1795 13.3018 34.1234 12.5158C34.0673 11.73 33.7198 10.984 33.1369 10.3981C32.7718 10.0292 32.3246 9.73388 31.8247 9.53144C31.3246 9.329 30.783 9.22393 30.2349 9.22312Z" fill="white"/>
<path id="Vector_16" d="M37.4719 7.23027H34.6401C34.5262 7.23002 34.4148 7.20024 34.3192 7.14447C34.2235 7.08871 34.1476 7.00929 34.1005 6.91569L33.6078 5.92855C33.4875 5.68917 33.2935 5.48608 33.0489 5.34351C32.8043 5.20095 32.5194 5.12492 32.2283 5.12451H28.2224C27.9356 5.12512 27.6549 5.19895 27.4126 5.33749C27.1704 5.47602 26.9765 5.6736 26.8533 5.90742L26.3228 6.92391C26.2747 7.01543 26.1989 7.09277 26.1041 7.14699C26.0093 7.2012 25.8994 7.23008 25.7872 7.23027H22.9983C22.5971 7.23089 22.2126 7.37503 21.9289 7.63112C21.6452 7.88722 21.4856 8.23437 21.4849 8.59654V11.6601C21.4847 11.7148 21.4965 11.7689 21.5195 11.8195C21.5426 11.87 21.5765 11.916 21.6192 11.9547C21.662 11.9934 21.7128 12.0241 21.7687 12.045C21.8246 12.066 21.8846 12.0768 21.9451 12.0768H22.5354V11.2446H22.4054V8.59654C22.4057 8.45478 22.4683 8.31895 22.5795 8.21883C22.6907 8.11871 22.8413 8.06247 22.9983 8.06247H25.7872C26.0739 8.06183 26.3546 7.98782 26.5967 7.84905C26.8388 7.71028 27.0323 7.51242 27.155 7.27839L27.6867 6.26307C27.7346 6.17125 27.8103 6.09358 27.9051 6.03913C28 5.98468 28.11 5.9557 28.2224 5.95555H32.2283C32.342 5.95607 32.4533 5.98597 32.5489 6.04171C32.6446 6.09744 32.7205 6.1767 32.7678 6.27012L33.2606 7.25844C33.3809 7.49782 33.5749 7.7009 33.8194 7.84348C34.0641 7.98605 34.349 8.06206 34.6401 8.06247H37.4719C37.629 8.06247 37.7795 8.11871 37.8907 8.21883C38.0019 8.31895 38.0644 8.45478 38.0648 8.59654V9.90178C38.0647 9.95644 38.0764 10.0106 38.0995 10.0612C38.1225 10.1117 38.1563 10.1576 38.1991 10.1964C38.2419 10.2351 38.2927 10.2658 38.3486 10.2867C38.4045 10.3077 38.4645 10.3185 38.5251 10.3185C38.5856 10.3185 38.6456 10.3077 38.7015 10.2867C38.7574 10.2658 38.8082 10.2351 38.851 10.1964C38.8938 10.1576 38.9276 10.1117 38.9506 10.0612C38.9738 10.0106 38.9855 9.95644 38.9853 9.90178V8.59654C38.9847 8.23437 38.825 7.88722 38.5413 7.63112C38.2576 7.37503 37.873 7.23089 37.4719 7.23027Z" fill="white"/>
<path id="Vector_17" d="M26.2343 11.6597C26.2343 11.5495 26.1858 11.4438 26.0995 11.3659C26.0132 11.2879 25.8961 11.2441 25.7741 11.2441H22.4092V12.0764H25.7741C25.8346 12.0764 25.8946 12.0656 25.9505 12.0446C26.0064 12.0237 26.0572 11.993 26.1 11.9543C26.1427 11.9155 26.1766 11.8696 26.1997 11.819C26.2227 11.7685 26.2345 11.7143 26.2343 11.6597Z" fill="url(#paint1_linear_5379_8476)"/>
<path id="Vector_18" d="M34.2002 11.6597C34.2002 11.5495 34.2487 11.4438 34.335 11.3658C34.4214 11.2879 34.5385 11.2441 34.6605 11.2441H38.0253V12.0763H34.6605C34.6 12.0763 34.5401 12.0656 34.484 12.0446C34.4281 12.0236 34.3774 11.9929 34.3346 11.9542C34.2919 11.9155 34.2579 11.8696 34.2349 11.819C34.2119 11.7685 34.2001 11.7143 34.2002 11.6597Z" fill="url(#paint2_linear_5379_8476)"/>
<path id="Vector_19" d="M30.7764 18.6274C30.7764 18.5172 30.8249 18.4116 30.9112 18.3336C30.9975 18.2557 31.1145 18.2119 31.2366 18.2119H34.6028V19.0429H31.2327C31.1114 19.0417 30.9956 18.9974 30.9102 18.9197C30.8247 18.8419 30.7768 18.7369 30.7764 18.6274Z" fill="url(#paint3_linear_5379_8476)"/>
<path id="Vector_20" d="M29.6843 18.6299C29.6843 18.5197 29.6359 18.414 29.5495 18.3361C29.4632 18.2581 29.3461 18.2144 29.2241 18.2144H25.8579V19.0454H29.228C29.3493 19.0441 29.4651 18.9998 29.5505 18.9221C29.6359 18.8443 29.684 18.7394 29.6843 18.6299Z" fill="url(#paint4_linear_5379_8476)"/>
</g>
</g>
<defs>
<linearGradient id="paint0_linear_5379_8476" x1="22.1692" y1="3.39646" x2="31.1812" y2="16.0325" gradientUnits="userSpaceOnUse">
<stop stop-color="#3A85DB"/>
<stop offset="1" stop-color="#0967D2"/>
</linearGradient>
<linearGradient id="paint1_linear_5379_8476" x1="22.4053" y1="11.6597" x2="26.2304" y2="11.6597" gradientUnits="userSpaceOnUse">
<stop offset="0.1" stop-color="white"/>
<stop offset="0.85" stop-color="white" stop-opacity="0"/>
</linearGradient>
<linearGradient id="paint2_linear_5379_8476" x1="38.0292" y1="11.6597" x2="34.2041" y2="11.6597" gradientUnits="userSpaceOnUse">
<stop offset="0.1" stop-color="white"/>
<stop offset="0.85" stop-color="white" stop-opacity="0"/>
</linearGradient>
<linearGradient id="paint3_linear_5379_8476" x1="34.5684" y1="18.6286" x2="30.7419" y2="18.6286" gradientUnits="userSpaceOnUse">
<stop stop-color="white"/>
<stop offset="0.85" stop-color="white" stop-opacity="0"/>
</linearGradient>
<linearGradient id="paint4_linear_5379_8476" x1="25.9002" y1="18.6287" x2="29.7266" y2="18.6287" gradientUnits="userSpaceOnUse">
<stop stop-color="white"/>
<stop offset="0.85" stop-color="white" stop-opacity="0"/>
</linearGradient>
</defs>
</svg>
