<svg width="57" height="48" viewBox="0 0 57 48" fill="none" xmlns="http://www.w3.org/2000/svg">
<g id="Frame 722">
<g id="Group 719">
<path id="Vector" d="M25.7913 41.9205V45.5997C25.7913 45.8958 25.7349 46.1143 25.6221 46.2341C25.5094 46.3539 25.3402 46.4174 25.1076 46.4174C24.6494 46.4174 24.4309 46.1777 24.4168 45.6632V41.9205H22.8309V45.635C22.838 46.2694 23.0494 46.7768 23.4583 47.1434C23.86 47.5099 24.4168 47.6931 25.1146 47.6931C25.5275 47.702 25.9371 47.6176 26.3129 47.4464C26.6583 47.2843 26.9261 47.0376 27.1094 46.7205C27.2926 46.4033 27.3842 46.0297 27.3842 45.6068V41.9205H25.7913ZM15.4371 44.7892C15.4371 46.8826 16.6847 47.7566 18.1085 47.7566C19.349 47.7566 20.2935 46.9319 20.4063 45.7266H18.8415C18.8063 46.0649 18.5314 46.5301 17.9887 46.4808C17.3402 46.4244 17.1076 45.7266 17.1217 44.7892C17.1217 43.7601 17.4318 43.0975 17.9887 43.0835C18.4961 43.0623 18.7851 43.4077 18.8415 43.8517H20.4063C20.2653 42.6042 19.3067 41.8218 17.9605 41.8218C16.445 41.8288 15.4371 43.0059 15.4371 44.7892ZM8.4239 44.7892C8.4239 46.8826 9.67148 47.7566 11.0953 47.7566C12.3358 47.7566 13.2803 46.9319 13.3931 45.7266H11.8283C11.7931 46.0649 11.5182 46.5301 10.9754 46.4808C10.327 46.4244 10.0944 45.7266 10.1085 44.7892C10.1085 43.7601 10.4186 43.0975 10.9754 43.0835C11.4829 43.0623 11.7719 43.4077 11.8283 43.8517H13.3931C13.2521 42.6042 12.2935 41.8218 10.9472 41.8218C9.43183 41.8288 8.4239 43.0059 8.4239 44.7892ZM4.61068 41.9205H3.09526L0.875 47.6368H2.55253L2.91905 46.6218H4.80099L5.17456 47.6368H6.84504L4.61068 41.9205ZM3.3913 45.3319L3.8565 44.042L4.32874 45.3319H3.3913Z" fill="#24476C"/>
<path id="Vector_2" d="M55.2188 44.7611L56.8329 41.8994H54.9933L54.1827 43.5488L53.3651 41.8994H51.5325L53.1466 44.7611L51.4902 47.6791H53.3369L54.1827 45.9875L55.0215 47.6791H56.8752L55.2188 44.7611ZM47.0215 41.9206V44.9443L45.3016 41.9206H43.7651V47.6791H45.358V44.6483L47.0849 47.6791H48.6144V41.9206H47.0215ZM39.5149 41.8994L38.5915 44.0703L37.6682 41.8994H35.9272L37.7809 45.5928V47.6791H39.4021V45.5928L41.2629 41.8994H39.5149ZM31.9025 46.3681V41.9206H30.3096V47.658H34.447V46.3681H31.9025Z" fill="#F5863B"/>
</g>
<g id="Group">
<path id="Vector_3" d="M35.0886 12.7978L35.1393 12.4688L29.5967 15.0755L31.0899 15.1768L29.9004 18.0113H27.7491L26.5596 15.1768L28.0528 15.0755L22.5103 12.4688L22.5609 12.7978C23.0417 15.5058 24.2566 16.8724 26.18 16.8977L26.3065 17.657L25.7245 17.9101C24.459 18.4163 23.5985 19.4286 23.1683 20.8965L23.143 21.023L26.2306 23.0983L26.3319 22.9718C27.0658 22.1113 27.9263 21.6051 28.8374 21.428C29.7485 21.6051 30.609 22.1113 31.343 22.9718L31.4442 23.0983L34.5318 21.023L34.5065 20.8965C34.3484 20.2314 34.034 19.6136 33.5895 19.0943C33.1449 18.575 32.583 18.169 31.9504 17.9101L31.3683 17.657L31.4948 16.8977C33.393 16.8724 34.6078 15.4805 35.0886 12.7978ZM28.6856 20.5422C27.7491 20.6434 26.914 21.099 26.18 21.9088L24.8387 20.1879C24.8133 19.4539 25.1677 18.7959 25.9269 18.1885L26.3825 17.8342L26.4837 18.3403L28.7109 20.365L28.6856 20.5422ZM31.7479 18.1885C32.5071 18.7959 32.8615 19.4539 32.8362 20.1879L31.4948 21.9088C30.7609 21.099 29.9004 20.6434 28.9893 20.5422V20.365L31.2164 18.3403L31.3176 17.8342L31.7479 18.1885Z" fill="#9B9A9B"/>
<path id="Vector_4" d="M33.9747 22.9223L34.5314 22.1631L33.7216 22.6946C32.7092 23.3526 31.8741 24.618 31.2413 26.3896H26.4074C26.0022 24.922 25.1319 23.6255 23.9272 22.6946L23.1173 22.1631L23.6741 22.9223C24.9901 24.7193 25.5469 26.3896 25.3191 27.8828L25.2938 28.1106H32.3802L32.3549 27.8828C32.1271 26.3896 32.6586 24.7193 33.9747 22.9223ZM21.7 23.7575L21.7253 22.973L21.371 23.6816C20.4346 25.5544 20.1056 27.9334 20.3586 30.7933V30.8439L20.384 30.8945C21.2951 31.9575 22.4846 32.8433 23.9525 33.5266L24.6611 33.881L24.1549 33.2735C22.4086 31.1729 21.5734 27.9841 21.7 23.7575Z" fill="#9B9A9B"/>
<path id="Vector_5" d="M43.1872 16.3151C41.5421 17.4033 39.8717 17.5552 38.2267 16.8213C38.9451 15.1519 39.3071 13.351 39.2897 11.5337C39.2723 9.71646 38.8757 7.92283 38.1254 6.26758C39.2137 4.72376 38.9606 2.69907 38.6569 1.83858L38.1001 0.244141L38.3279 1.91451C38.3279 1.93981 38.581 4.04043 37.6193 5.28055C37.2836 4.69838 36.9204 4.13251 36.531 3.58487L36.2526 3.76203C36.6069 4.42005 36.9359 5.07808 37.189 5.68548L36.9865 5.81202C36.4297 6.14104 35.7717 6.39412 35.1643 6.67252C33.823 7.2293 32.5575 7.78609 32.0514 8.84905H25.6483C25.1421 7.78609 23.8767 7.2293 22.5353 6.67252C21.9279 6.41943 21.2952 6.14104 20.7131 5.81202L20.5107 5.68548C20.7891 5.05277 21.0927 4.42005 21.4471 3.76203L21.1434 3.58487C20.7384 4.14166 20.3588 4.69845 20.0551 5.28055C19.0934 4.04043 19.3465 1.93981 19.3465 1.91451L19.5742 0.244141L19.0174 1.83858C18.7137 2.69907 18.4607 4.72376 19.5489 6.26758C18.7986 7.92283 18.4021 9.71646 18.3847 11.5337C18.3672 13.351 18.7293 15.1519 19.4477 16.8213C17.8026 17.5805 16.1323 17.4033 14.4872 16.3151L14.1582 16.0873L14.2341 16.4669C15.2718 22.541 17.0687 27.0712 19.6248 29.9058L20.0045 30.3107L19.9286 29.7539C19.473 26.2107 19.7261 23.528 20.6625 21.7311L21.3458 20.4657L20.3841 21.5286C19.4472 22.4936 18.7834 23.6902 18.4607 24.9959C17.7382 23.432 17.2194 21.782 16.9168 20.0861C18.0185 19.9736 19.0711 19.5729 19.9686 18.9242C20.8661 18.2755 21.5768 17.4018 22.0292 16.391C23.1174 13.8095 22.5353 10.4941 20.4853 7.73548L20.207 7.93794C21.8267 10.6966 22.0292 13.2527 20.7637 15.5811C19.144 13.1768 18.9162 10.241 20.131 6.84968C20.6119 7.30523 21.2193 7.63424 21.9279 7.86202C23.0415 8.21634 24.0032 10.2916 24.0032 10.2916L24.0792 10.4688L24.231 10.3929C24.7372 10.1904 26.5088 10.0639 28.7106 10.0639H29.1156C31.3174 10.0639 33.089 10.1904 33.5952 10.3929L33.747 10.4688L33.823 10.2916C33.823 10.2663 34.7847 8.21634 35.8983 7.86202C36.6069 7.63424 37.2143 7.27992 37.6952 6.84968C38.8847 10.241 38.6822 13.1768 37.0625 15.5811C35.797 13.2527 35.9742 10.6713 37.6193 7.93794L37.3409 7.73548C35.2909 10.4941 34.6835 13.8348 35.797 16.391C36.6575 18.4157 38.4797 19.7317 40.9094 20.0861C40.6563 21.6046 40.1501 23.2749 39.3655 24.9959C39.0318 23.6945 38.3695 22.5007 37.4421 21.5286L36.4804 20.4657L37.1637 21.7311C38.1254 23.528 38.3785 26.2107 37.8976 29.7539L37.8217 30.3107L38.2014 29.9058C40.7322 27.0712 42.5544 22.541 43.5921 16.4669L43.5162 16.0873L43.1872 16.3151Z" fill="#9B9A9B"/>
<path id="Vector_6" d="M35.9231 22.9473L35.9484 23.7318C36.075 27.9584 35.2398 31.1472 33.4935 33.1972L32.9873 33.8046L33.696 33.4503C35.071 32.8573 36.2918 31.9569 37.2645 30.8182L37.2898 30.7676V30.717C37.6026 28.2985 37.2527 25.8404 36.2774 23.6053L35.9231 22.9473Z" fill="#9B9A9B"/>
</g>
</g>
</svg>
