<svg width="52" height="43" viewBox="0 0 52 43" fill="none" xmlns="http://www.w3.org/2000/svg">
<g id="Frame 724">
<g id="Group">
<path id="Vector" d="M7.84817 41.6261C6.78625 41.6261 5.93571 41.2762 5.29678 40.5763C4.65785 39.8765 4.33838 38.9659 4.33838 37.8448C4.33838 36.64 4.66403 35.679 5.31508 34.9617C5.96614 34.2444 6.85239 33.8858 7.9735 33.8858C9.00754 33.8858 9.84062 34.234 10.4727 34.9304C11.1046 35.6268 11.4205 36.5373 11.4206 37.662C11.4206 38.8841 11.0967 39.8503 10.4491 40.5606C9.80146 41.271 8.93445 41.6261 7.84817 41.6261ZM7.91086 34.6797C7.12396 34.6797 6.48503 34.9635 5.99407 35.5311C5.5031 36.0986 5.25762 36.8438 5.25762 37.7664C5.25762 38.6891 5.49698 39.4316 5.97576 39.994C6.45455 40.5563 7.07868 40.8374 7.84823 40.8374C8.66989 40.8374 9.3175 40.5693 9.79106 40.0331C10.2646 39.4969 10.5013 38.7466 10.5014 37.7821C10.5014 36.7932 10.2715 36.0289 9.81191 35.4892C9.35227 34.9496 8.71856 34.6797 7.91092 34.6797H7.91086ZM17.218 41.5008H16.3615V38.4507C16.3615 37.3155 15.9471 36.748 15.1184 36.748C14.6901 36.748 14.3358 36.9091 14.0555 37.2311C13.7752 37.5532 13.6351 37.9597 13.6351 38.4507V41.5008H12.7786V36.1526H13.6351V37.0404H13.656C14.0599 36.365 14.6449 36.0272 15.4109 36.0272C15.9959 36.0272 16.4433 36.2161 16.7532 36.5939C17.063 36.9716 17.2179 37.5174 17.218 38.2313V41.5008ZM23.1355 39.0409H19.3594C19.3733 39.6363 19.5335 40.0959 19.8399 40.4197C20.1463 40.7435 20.5676 40.9054 21.1038 40.9054C21.7062 40.9054 22.2598 40.7069 22.7647 40.31V41.1143C22.2947 41.4555 21.6731 41.6261 20.9001 41.6261C20.1445 41.6261 19.5509 41.3833 19.1192 40.8975C18.6874 40.4118 18.4715 39.7285 18.4715 38.8475C18.4715 38.0154 18.7074 37.3373 19.1792 36.8133C19.6511 36.2893 20.2368 36.0272 20.9367 36.0272C21.6365 36.0272 22.178 36.2535 22.561 36.7062C22.9439 37.1588 23.1354 37.7873 23.1355 38.5917V39.0409ZM22.258 38.3149C22.2545 37.8205 22.1353 37.4357 21.9003 37.1606C21.6653 36.8855 21.3388 36.748 20.921 36.748C20.5171 36.748 20.1741 36.8925 19.8921 37.1815C19.6101 37.4705 19.436 37.8483 19.3698 38.3149H22.258ZM24.5509 41.5008V34.0112H26.6191C29.2584 34.0112 30.5781 35.2282 30.5781 37.662C30.5781 38.818 30.2116 39.7468 29.4787 40.4484C28.7456 41.1501 27.7646 41.5009 26.5356 41.5009H24.5509V41.5008ZM25.4283 34.8051V40.7069H26.5461C27.5279 40.7069 28.2922 40.444 28.8389 39.9183C29.3855 39.3925 29.6589 38.6473 29.6589 37.6829C29.6589 35.7644 28.6387 34.8051 26.5983 34.8051H25.4283ZM34.725 37.0196C34.5753 36.9047 34.3594 36.8473 34.0774 36.8473C33.7118 36.8473 33.4063 37.0196 33.1608 37.3643C32.9153 37.709 32.7926 38.1791 32.7926 38.7745V41.5008H31.936V36.1526H32.7926V37.2546H32.8135C32.9354 36.8786 33.1217 36.5852 33.3723 36.3745C33.623 36.1639 33.9033 36.0586 34.2132 36.0586C34.436 36.0586 34.6066 36.0829 34.725 36.1317V37.0196ZM36.0934 34.7947C35.9402 34.7947 35.8096 34.7424 35.7016 34.638C35.5937 34.5335 35.5397 34.4012 35.5397 34.241C35.5397 34.0808 35.5937 33.9476 35.7016 33.8414C35.8096 33.7353 35.9402 33.6821 36.0934 33.6821C36.2501 33.6821 36.3832 33.7353 36.4929 33.8414C36.6026 33.9476 36.6576 34.0808 36.6576 34.241C36.6576 34.3942 36.6026 34.5248 36.4929 34.6327C36.3832 34.7407 36.2501 34.7947 36.0934 34.7947ZM36.5112 41.5008H35.6547V36.1526H36.5112V41.5008ZM42.4496 36.1526L40.3187 41.5008H39.4778L37.4513 36.1526H38.3914L39.7494 40.0384C39.8504 40.324 39.9131 40.5729 39.9374 40.7853H39.9583C39.9932 40.5171 40.0489 40.2752 40.1255 40.0593L41.5461 36.1526H42.4496ZM47.662 39.0409H43.8859C43.8998 39.6363 44.06 40.0959 44.3664 40.4197C44.6728 40.7435 45.0941 40.9054 45.6304 40.9054C46.2327 40.9054 46.7863 40.7069 47.2913 40.31V41.1143C46.8212 41.4555 46.1996 41.6261 45.4267 41.6261C44.6711 41.6261 44.0774 41.3833 43.6457 40.8975C43.214 40.4118 42.998 39.7285 42.998 38.8475C42.998 38.0154 43.2339 37.3373 43.7058 36.8133C44.1776 36.2893 44.7634 36.0272 45.4632 36.0272C46.163 36.0272 46.7046 36.2535 47.0875 36.7062C47.4704 37.1588 47.662 37.7873 47.662 38.5917V39.0409ZM46.7846 38.3149C46.7811 37.8205 46.6618 37.4357 46.4268 37.1606C46.1918 36.8855 45.8653 36.748 45.4475 36.748C45.0436 36.748 44.7007 36.8925 44.4186 37.1815C44.1366 37.4705 43.9625 37.8483 43.8964 38.3149H46.7846Z" fill="#094AB1"/>
</g>
<g id="Group 718">
<g id="Vector_2">
<path d="M21.6893 7.11559L29.3133 11.6811L33.8561 9.7689C34.7795 9.37006 35.7749 9.16495 36.7807 9.16629C36.9486 9.16629 37.1143 9.17423 37.2789 9.18445C36.7329 7.05459 35.58 5.1292 33.9603 3.6423C32.3406 2.1554 30.3238 1.17103 28.1551 0.808846C25.9864 0.446658 23.7592 0.722249 21.7442 1.60212C19.7293 2.48199 18.0132 3.92825 16.8048 5.7651L16.9206 5.7617C18.6053 5.75949 20.257 6.22845 21.6893 7.11559Z" fill="#0364B8"/>
<path d="M21.6904 7.11455C20.2577 6.22761 18.6055 5.75894 16.9206 5.7617L16.8048 5.7651C15.1559 5.78573 13.5436 6.25535 12.1415 7.12333C10.7393 7.9913 9.60013 9.22493 8.84635 10.6916C8.09257 12.1584 7.75267 13.8028 7.86317 15.4481C7.97368 17.0935 8.53041 18.6777 9.47354 20.0304L16.1942 17.2012L29.3121 11.6812L21.6904 7.11455Z" fill="#0078D4"/>
<path d="M37.2789 9.18445C37.1131 9.17285 36.9469 9.16679 36.7807 9.16629C35.7752 9.16547 34.7802 9.37081 33.8573 9.7699L29.3133 11.6811L34.949 15.0561L43.2755 20.0427C43.8609 18.9561 44.1643 17.7399 44.1578 16.5056C44.1514 15.2714 43.8354 14.0585 43.2387 12.978C42.642 11.8975 41.7837 10.9841 40.7425 10.3213C39.7013 9.65849 38.5103 9.2677 37.2789 9.18445Z" fill="#1490DF"/>
<path d="M34.949 15.0561L29.3144 11.6812L16.1942 17.2012L9.4713 20.0304C10.3069 21.2318 11.4209 22.2129 12.7181 22.8902C14.0153 23.5675 15.4572 23.9207 16.9205 23.9196H36.7807C38.1124 23.9201 39.4194 23.56 40.563 22.8774C41.7065 22.1948 42.6439 21.2151 43.2755 20.0427L34.949 15.0561Z" fill="#28A8EA"/>
</g>
</g>
</g>
</svg>
