<svg width="221" height="62" viewBox="0 0 221 62" fill="none" xmlns="http://www.w3.org/2000/svg">
<path d="M87.7456 17.1798V20.3842H81.4242V39.0779H77.7193V20.3842H71.3652V17.1798H87.7456Z" fill="#303030"/>
<path d="M101.251 32.1282C101.251 36.3495 99.1763 39.3634 94.481 39.3634C89.7856 39.3634 87.6807 36.5074 87.6807 32.1282V30.1291C87.6807 25.4643 90.1709 22.9242 94.481 22.9242C98.791 22.9242 101.251 25.4621 101.251 30.1291V32.1282ZM97.8659 32.033V30.1918C97.8659 27.431 96.7492 25.8754 94.481 25.8754C92.2127 25.8754 91.0634 27.4613 91.0634 30.1918V32.033C91.0634 34.5082 91.8928 36.4447 94.481 36.4447C96.9081 36.4447 97.8659 34.5082 97.8659 32.033Z" fill="#303030"/>
<path d="M103.421 23.21H105.465V19.7179H108.85V23.21H112.234V26.1287H108.85V33.3963C108.85 35.2375 109.137 36.0294 110.924 36.0294H112.232V39.0758H110.667C106.836 39.0758 105.462 37.7755 105.462 34.0302V26.1287H103.418V23.21H103.421Z" fill="#303030"/>
<path d="M120.663 29.7158H124.111V28.383C124.111 26.3838 123.345 25.8429 120.95 25.8429C119.226 25.8429 118.364 26.0333 117.598 27.2709L115.141 25.5573C116.29 23.6858 118.014 22.9242 121.175 22.9242C125.263 22.9242 127.466 24.1942 127.466 28.4155V39.08H124.113V37.6195C123.347 38.8571 122.357 39.3656 120.411 39.3656C116.897 39.3656 114.727 37.5892 114.727 34.4152C114.727 31.0183 117.25 29.718 120.665 29.718L120.663 29.7158ZM124.111 32.3186H120.918C118.906 32.3186 118.077 33.0175 118.077 34.413C118.077 35.8086 119.163 36.475 120.792 36.475C122.866 36.475 124.111 35.841 124.111 33.0802V32.3186Z" fill="#303030"/>
<path d="M131.582 17.1798H134.997V33.301C134.997 35.0146 135.317 36.0942 137.424 36.0942V39.0779C133.273 39.0779 131.582 37.7451 131.582 34.095V17.1798Z" fill="#303030"/>
<path d="M153.134 22.4786C152.048 20.9879 150.868 20.0986 148.376 20.0986C146.11 20.0986 144.767 21.1134 144.767 22.9546C144.767 25.049 146.428 25.8755 149.492 26.5419C153.931 27.4939 156.23 29.1447 156.23 33.0804C156.23 36.3496 154.027 39.3635 148.726 39.3635C144.958 39.3635 142.309 38.2211 140.489 35.7763L143.395 33.7771C144.704 35.3327 146.014 36.1571 148.537 36.1571C151.569 36.1571 152.529 34.8243 152.529 33.2383C152.529 31.4923 151.539 30.4148 147.708 29.5883C143.461 28.699 141.066 26.6696 141.066 22.9546C141.066 19.6529 143.236 16.8922 148.411 16.8922C151.924 16.8922 154.382 18.067 155.947 20.4794L153.136 22.4786H153.134Z" fill="#303030"/>
<path d="M171.876 36.6654C170.823 38.5369 168.937 39.3634 166.192 39.3634C161.721 39.3634 159.168 36.5074 159.168 32.191V30.0339C159.168 25.4643 161.754 22.9242 166.321 22.9242C168.748 22.9242 170.759 23.8134 171.876 25.4946L169.257 27.3034C168.65 26.4466 167.629 25.8754 166.256 25.8754C163.765 25.8754 162.553 27.4613 162.553 30.1918V32.033C162.553 34.5082 163.448 36.4447 166.256 36.4447C167.597 36.4447 168.683 35.9687 169.29 34.889L171.876 36.6654Z" fill="#303030"/>
<path d="M187.299 32.1282C187.299 36.3495 185.222 39.3634 180.529 39.3634C175.836 39.3634 173.729 36.5074 173.729 32.1282V30.1291C173.729 25.4643 176.219 22.9242 180.529 22.9242C184.839 22.9242 187.299 25.4621 187.299 30.1291V32.1282ZM183.914 32.033V30.1918C183.914 27.431 182.798 25.8754 180.529 25.8754C178.261 25.8754 177.112 27.4613 177.112 30.1918V32.033C177.112 34.5082 177.941 36.4447 180.529 36.4447C182.956 36.4447 183.914 34.5082 183.914 32.033Z" fill="#303030"/>
<path d="M204.317 32.191C204.317 36.317 202.273 39.3634 198.026 39.3634C196.173 39.3634 194.961 38.9199 194.162 38.0631V45.1078H190.747V23.2098H194.162V24.4798C194.961 23.4954 196.239 22.9242 198.058 22.9242C201.89 22.9242 204.317 25.4946 204.317 30.0339V32.191ZM200.932 32.033V30.1918C200.932 27.431 199.815 25.8754 197.547 25.8754C195.279 25.8754 194.195 27.3986 194.162 30.0014V32.033C194.162 34.5082 194.961 36.4447 197.547 36.4447C199.974 36.4447 200.932 34.5082 200.932 32.033Z" fill="#303030"/>
<path d="M219.833 36.6654C218.716 38.6018 216.927 39.3634 214.117 39.3634C209.55 39.3634 207.125 36.4122 207.125 32.191V30.0339C207.125 25.3691 209.424 22.9242 213.607 22.9242C217.791 22.9242 220.057 25.527 220.057 30.2243V31.9703H210.51V32.033C210.51 34.5082 211.468 36.4447 213.991 36.4447C215.874 36.4447 216.64 35.8735 217.28 34.889L219.833 36.6654ZM210.543 29.3653H216.642C216.514 27.0481 215.556 25.8754 213.61 25.8754C211.664 25.8754 210.704 27.2082 210.545 29.3653H210.543Z" fill="#303030"/>
<path d="M14.9551 28.927H10.4265V49.262H14.9551V28.927Z" fill="#303030"/>
<path d="M47.7512 28.927H43.2227V49.262H47.7512V28.927Z" fill="#303030"/>
<path d="M44.4286 14.9871H39.7312V26.6182H44.4286V14.9871Z" fill="#303030"/>
<path d="M28.8084 31.0898H24.7671V35.7457H28.8084V31.0898Z" fill="#303030"/>
<path d="M33.5503 31.0898H29.509V35.7457H33.5503V31.0898Z" fill="#303030"/>
<path d="M28.8084 36.377H24.7671V41.0328H28.8084V36.377Z" fill="#303030"/>
<path d="M33.5503 36.377H29.509V41.0328H33.5503V36.377Z" fill="#303030"/>
<path d="M10.0701 33.9727L29.0457 19.7594L48.7201 33.9727H58.5167L28.9837 12.6379L0.5 33.9727H10.0701Z" fill="#303030"/>
<path d="M42.9094 1.78418C34.1386 -2.11123 23.1665 2.24172 15.2356 11.7547C22.4485 4.43831 31.6809 1.44527 38.8851 4.98482C48.7908 9.85037 51.1074 25.2202 44.0591 39.3106C37.0109 53.401 23.2691 60.8804 13.3635 56.0128C10.8631 54.7842 8.84561 52.8863 7.34106 50.5075C9.24098 54.9198 12.3313 58.3682 16.488 60.2153C27.9302 65.299 43.1209 56.339 50.4171 40.2024C57.7133 24.0679 54.3494 6.8658 42.9072 1.78418H42.9094Z" fill="#306FD5"/>
</svg>
