<svg width="44" height="44" viewBox="0 0 44 44" fill="none" xmlns="http://www.w3.org/2000/svg">
<g filter="url(#filter0_d_4705_429)">
<rect x="2" y="1" width="40" height="40" rx="20" fill="white"/>
<rect x="2.5" y="1.5" width="39" height="39" rx="19.5" stroke="#D1D5DB"/>
<path d="M26.8333 22.6667L26.3333 17.8333C26.2499 16.75 25.4999 15.75 24.4166 15.25L23.3333 14.75C22.9999 14.5833 22.7499 14.3333 22.6666 13.9167L22.4166 13.5H21.5833L21.4166 14.0833C21.3333 14.4167 21.0833 14.75 20.7499 14.9167L19.6666 15.3333C18.5833 15.8333 17.8333 16.75 17.6666 17.9167L17.1666 22.6667C17.1666 23 16.9166 23.25 16.5833 23.3333L15.9999 23.5833C15.5833 23.8333 15.3333 24.1667 15.3333 24.5833V25.1667H28.6666V24.5833C28.6666 24.1667 28.4166 23.8333 27.9999 23.6667L27.4166 23.4167C27.0833 23.25 26.8333 23 26.8333 22.6667Z" stroke="#374151" stroke-width="1.5" stroke-linecap="round" stroke-linejoin="round"/>
<path d="M19.5 28.5H24.5" stroke="#374151" stroke-width="1.5" stroke-linecap="round" stroke-linejoin="round"/>
</g>
<defs>
<filter id="filter0_d_4705_429" x="0" y="0" width="44" height="44" filterUnits="userSpaceOnUse" color-interpolation-filters="sRGB">
<feFlood flood-opacity="0" result="BackgroundImageFix"/>
<feColorMatrix in="SourceAlpha" type="matrix" values="0 0 0 0 0 0 0 0 0 0 0 0 0 0 0 0 0 0 127 0" result="hardAlpha"/>
<feOffset dy="1"/>
<feGaussianBlur stdDeviation="1"/>
<feColorMatrix type="matrix" values="0 0 0 0 0.0627451 0 0 0 0 0.0941176 0 0 0 0 0.156863 0 0 0 0.05 0"/>
<feBlend mode="normal" in2="BackgroundImageFix" result="effect1_dropShadow_4705_429"/>
<feBlend mode="normal" in="SourceGraphic" in2="effect1_dropShadow_4705_429" result="shape"/>
</filter>
</defs>
</svg>
