<svg width="1240" height="48" viewBox="0 0 1240 48" fill="none" xmlns="http://www.w3.org/2000/svg">
<g clip-path="url(#clip0_3824_7416)">
<path d="M567.5 24C567.5 37.2548 578.245 48 591.5 48H647.5C660.755 48 671.5 37.2548 671.5 24V0H567.5V24Z" fill="#0C1D3E"/>
<path d="M602.35 34.9172C602.35 37.3812 600.546 39.0532 598.104 39.0532C595.673 39.0532 593.869 37.3812 593.869 34.9172C593.869 32.4202 595.673 30.8472 598.104 30.8472C600.546 30.8472 602.35 32.4202 602.35 34.9172ZM600.337 34.9172C600.337 33.5532 599.424 32.5412 598.104 32.5412C596.784 32.5412 595.882 33.5532 595.882 34.9172C595.882 36.3252 596.795 37.3372 598.104 37.3372C599.413 37.3372 600.337 36.3252 600.337 34.9172ZM609.033 33.3662L606.877 38.8442H604.93L602.774 33.3662H604.765L605.92 36.9192H605.953L607.108 33.3662H609.033ZM611.182 35.4782H613.503C613.503 34.9062 613.14 34.4332 612.425 34.4332C611.732 34.4332 611.226 34.9172 611.182 35.4782ZM615.164 36.1712C615.164 36.3142 615.164 36.4682 615.153 36.6002H611.182C611.237 37.2052 611.842 37.6342 612.491 37.6342C613.063 37.6342 613.459 37.3922 613.701 37.0622L614.955 37.8542C614.438 38.6022 613.58 39.0202 612.469 39.0202C610.819 39.0202 609.455 37.9752 609.455 36.1272C609.455 34.3342 610.753 33.1902 612.414 33.1902C614.031 33.1902 615.164 34.3012 615.164 36.1712ZM619.913 33.2562L619.836 34.8402C619.671 34.7962 619.517 34.7852 619.374 34.7852C618.406 34.7852 618.087 35.5772 618.087 36.0282V38.8442H616.283V33.3662H618.021V34.1582H618.043C618.318 33.6082 618.857 33.2122 619.528 33.2122C619.671 33.2122 619.825 33.2232 619.913 33.2562ZM626.188 33.3662L624.032 38.8442H622.085L619.929 33.3662H621.92L623.075 36.9192H623.108L624.263 33.3662H626.188ZM628.844 31.6172C628.844 32.1782 628.382 32.6072 627.81 32.6072C627.227 32.6072 626.776 32.1562 626.776 31.6172C626.776 31.0892 627.227 30.6272 627.81 30.6272C628.382 30.6272 628.844 31.0672 628.844 31.6172ZM628.712 38.8442H626.908V33.3662H628.712V38.8442ZM631.593 35.4782H633.914C633.914 34.9062 633.551 34.4332 632.836 34.4332C632.143 34.4332 631.637 34.9172 631.593 35.4782ZM635.575 36.1712C635.575 36.3142 635.575 36.4682 635.564 36.6002H631.593C631.648 37.2052 632.253 37.6342 632.902 37.6342C633.474 37.6342 633.87 37.3922 634.112 37.0622L635.366 37.8542C634.849 38.6022 633.991 39.0202 632.88 39.0202C631.23 39.0202 629.866 37.9752 629.866 36.1272C629.866 34.3342 631.164 33.1902 632.825 33.1902C634.442 33.1902 635.575 34.3012 635.575 36.1712ZM645.57 33.3662L643.667 38.8442H641.852L640.774 35.4342H640.752L639.696 38.8442H637.881L635.989 33.3662H637.936L638.882 36.8312H638.915L639.894 33.3662H641.709L642.721 36.8312H642.743L643.7 33.3662H645.57Z" fill="white"/>
<rect x="611.5" y="26.8442" width="16" height="16" rx="8" transform="rotate(-90 611.5 26.8442)" fill="white"/>
<path d="M622.954 17.1174L619.5 20.5712L616.046 17.1174" stroke="#306FD5" stroke-width="1.5" stroke-linecap="round" stroke-linejoin="round"/>
<path d="M550.866 25.0713C557.389 25.0713 563.872 24.061 570.086 22.0763L595.623 13.9195C603.342 11.454 611.397 10.1989 619.5 10.1989C627.603 10.1989 635.658 11.454 643.377 13.9195L668.914 22.0763C675.128 24.061 681.611 25.0713 688.134 25.0713H1604V0.500122H-355V25.0713H550.866Z" fill="white" stroke="#D7D7D7"/>
</g>
<defs>
<clipPath id="clip0_3824_7416">
<rect width="1416" height="48" fill="white" transform="translate(-88.5)"/>
</clipPath>
</defs>
</svg>
