<svg width="105" height="48" viewBox="0 0 105 48" fill="none" xmlns="http://www.w3.org/2000/svg">
<path d="M0.5 24C0.5 37.2548 11.2452 48 24.5 48H80.5C93.7548 48 104.5 37.2548 104.5 24V0H0.5V24Z" fill="#0C1D3E"/>
<path d="M35.3497 34.9172C35.3497 37.3812 33.5457 39.0532 31.1037 39.0532C28.6727 39.0532 26.8687 37.3812 26.8687 34.9172C26.8687 32.4202 28.6727 30.8472 31.1037 30.8472C33.5457 30.8472 35.3497 32.4202 35.3497 34.9172ZM33.3367 34.9172C33.3367 33.5532 32.4237 32.5412 31.1037 32.5412C29.7837 32.5412 28.8817 33.5532 28.8817 34.9172C28.8817 36.3252 29.7947 37.3372 31.1037 37.3372C32.4127 37.3372 33.3367 36.3252 33.3367 34.9172ZM42.0332 33.3662L39.8772 38.8442H37.9302L35.7742 33.3662H37.7652L38.9202 36.9192H38.9532L40.1082 33.3662H42.0332ZM44.1824 35.4782H46.5034C46.5034 34.9062 46.1404 34.4332 45.4254 34.4332C44.7324 34.4332 44.2264 34.9172 44.1824 35.4782ZM48.1644 36.1712C48.1644 36.3142 48.1644 36.4682 48.1534 36.6002H44.1824C44.2374 37.2052 44.8424 37.6342 45.4914 37.6342C46.0634 37.6342 46.4594 37.3922 46.7014 37.0622L47.9554 37.8542C47.4384 38.6022 46.5804 39.0202 45.4694 39.0202C43.8194 39.0202 42.4554 37.9752 42.4554 36.1272C42.4554 34.3342 43.7534 33.1902 45.4144 33.1902C47.0314 33.1902 48.1644 34.3012 48.1644 36.1712ZM52.9131 33.2562L52.8361 34.8402C52.6711 34.7962 52.5171 34.7852 52.3741 34.7852C51.4061 34.7852 51.0871 35.5772 51.0871 36.0282V38.8442H49.2831V33.3662H51.0211V34.1582H51.0431C51.3181 33.6082 51.8571 33.2122 52.5281 33.2122C52.6711 33.2122 52.8251 33.2232 52.9131 33.2562ZM59.1884 33.3662L57.0324 38.8442H55.0854L52.9294 33.3662H54.9204L56.0754 36.9192H56.1084L57.2634 33.3662H59.1884ZM61.8436 31.6172C61.8436 32.1782 61.3816 32.6072 60.8096 32.6072C60.2266 32.6072 59.7756 32.1562 59.7756 31.6172C59.7756 31.0892 60.2266 30.6272 60.8096 30.6272C61.3816 30.6272 61.8436 31.0672 61.8436 31.6172ZM61.7116 38.8442H59.9076V33.3662H61.7116V38.8442ZM64.5925 35.4782H66.9135C66.9135 34.9062 66.5505 34.4332 65.8355 34.4332C65.1425 34.4332 64.6365 34.9172 64.5925 35.4782ZM68.5745 36.1712C68.5745 36.3142 68.5745 36.4682 68.5635 36.6002H64.5925C64.6475 37.2052 65.2525 37.6342 65.9015 37.6342C66.4735 37.6342 66.8695 37.3922 67.1115 37.0622L68.3655 37.8542C67.8485 38.6022 66.9905 39.0202 65.8795 39.0202C64.2295 39.0202 62.8655 37.9752 62.8655 36.1272C62.8655 34.3342 64.1635 33.1902 65.8245 33.1902C67.4415 33.1902 68.5745 34.3012 68.5745 36.1712ZM78.5703 33.3662L76.6673 38.8442H74.8523L73.7743 35.4342H73.7523L72.6963 38.8442H70.8813L68.9893 33.3662H70.9363L71.8823 36.8312H71.9153L72.8943 33.3662H74.7093L75.7213 36.8312H75.7433L76.7003 33.3662H78.5703Z" fill="white"/>
<rect x="44.5" y="26.8442" width="16" height="16" rx="8" transform="rotate(-90 44.5 26.8442)" fill="white"/>
<path d="M55.9536 17.1174L52.4999 20.5712L49.0461 17.1174" stroke="#306FD5" stroke-width="1.5" stroke-linecap="round" stroke-linejoin="round"/>
</svg>
