<svg xmlns="http://www.w3.org/2000/svg" version="1.2" viewBox="0 0 142 48" width="142" height="48">
	<title>overview-button-svg</title>
	<defs>
		<clipPath clipPathUnits="userSpaceOnUse" id="cp1">
			<path d="m0 0h142v48h-142z"/>
		</clipPath>
		<clipPath clipPathUnits="userSpaceOnUse" id="cp2">
			<path d="m-549 0h1240v48h-1240z"/>
		</clipPath>
	</defs>
	<style>
		.s0 { fill: #0c1d3e } 
		.s1 { fill: #ffffff } 
		.s2 { fill: none;stroke: #306fd5;stroke-linecap: round;stroke-linejoin: round;stroke-width: 1.5 } 
		.s3 { fill: #ffffff;stroke: #d7d7d7 } 
	</style>
	<g id="Clip-Path" clip-path="url(#cp1)">
		<g id="Layer">
			<g id="Clip-Path" clip-path="url(#cp2)">
				<g id="Layer">
					<path id="Layer" class="s0" d="m127.5 24.5c0 13.3-10.7 24-24 24h-56c-13.3 0-24-10.7-24-24v-24h104z"/>
					<path id="Layer" fill-rule="evenodd" class="s1" d="m57.8 35.2c0 2.5-1.8 4.2-4.2 4.2-2.4 0-4.2-1.7-4.2-4.2 0-2.5 1.8-4 4.2-4 2.4 0 4.2 1.5 4.2 4zm-2 0c0-1.3-0.9-2.3-2.2-2.3-1.3 0-2.2 1-2.2 2.3 0 1.4 0.9 2.4 2.2 2.4 1.3 0 2.2-1 2.2-2.4zm8.7-1.5l-2.1 5.5h-2l-2.1-5.5h2l1.1 3.5h0.1l1.1-3.5zm6.1 2.8q0 0.2 0 0.4h-3.9c0 0.6 0.6 1 1.3 1 0.5 0 0.9-0.2 1.2-0.5l1.2 0.8c-0.5 0.7-1.3 1.1-2.5 1.1-1.6 0-3-1-3-2.9 0-1.8 1.3-2.9 3-2.9 1.6 0 2.7 1.1 2.7 3zm-3.9-0.7h2.3c0-0.6-0.4-1.1-1.1-1.1-0.7 0-1.2 0.5-1.2 1.1zm8.7-2.2l-0.1 1.6q-0.2-0.1-0.5-0.1c-0.9 0-1.2 0.8-1.2 1.2v2.9h-1.8v-5.5h1.7v0.8c0.3-0.6 0.8-1 1.5-1 0.1 0 0.3 0 0.4 0.1zm6.3 0.1l-2.2 5.5h-1.9l-2.2-5.5h2l1.2 3.5 1.1-3.5zm2.7-1.8c0 0.6-0.5 1-1 1-0.6 0-1.1-0.4-1.1-1 0-0.5 0.5-1 1.1-1 0.5 0 1 0.5 1 1zm-0.1 7.3h-1.8v-5.5h1.8zm6.8-2.7q0 0.2 0 0.4h-4c0.1 0.6 0.7 1.1 1.4 1.1 0.5 0 0.9-0.3 1.2-0.6l1.2 0.8c-0.5 0.7-1.4 1.2-2.5 1.2-1.6 0-3-1.1-3-2.9 0-1.8 1.3-3 3-3 1.6 0 2.7 1.1 2.7 3zm-4-0.7h2.4c0-0.6-0.4-1-1.1-1-0.7 0-1.2 0.5-1.3 1zm14-2.1l-1.9 5.5h-1.8l-1.1-3.4-1.1 3.4h-1.8l-1.9-5.5h2l0.9 3.5h0.1l0.9-3.5h1.9l1 3.5 1-3.5z"/>
					<g id="Folder 1">
						<path id="Layer" class="s1" d="m76 11.2c-4.4 0-8 3.5-8 8 0 4.4 3.6 8 8 8 4.4 0 8-3.6 8-8 0-4.5-3.6-8-8-8z"/>
						<path id="Layer" fill-rule="evenodd" class="s2" d="m72.5 17.4l3.5 3.5 3.5-3.5"/>
					</g>
					<path id="Layer" class="s3" d="m144.1 20.6c-6.5 0-13-1-19.2-3l-25.5-8.2c-7.7-2.4-15.8-3.7-23.9-3.7-8.1 0-16.2 1.3-23.9 3.7l-25.5 8.2c-6.2 2-12.7 3-19.2 3h-915.9v-24.6h1959v24.6z"/>
				</g>
			</g>
		</g>
	</g>
</svg>