<svg width="1241" height="48" viewBox="0 0 1241 48" fill="none" xmlns="http://www.w3.org/2000/svg">
<g clip-path="url(#clip0_2896_13397)">
<path d="M568.111 24C568.111 10.7452 578.856 0 592.111 0H648.111C661.366 0 672.111 10.7452 672.111 24V48H568.111V24Z" fill="#0C1D3E"/>
<path d="M602.961 12.2288C602.961 14.6928 601.157 16.3648 598.715 16.3648C596.284 16.3648 594.48 14.6928 594.48 12.2288C594.48 9.73176 596.284 8.15876 598.715 8.15876C601.157 8.15876 602.961 9.73176 602.961 12.2288ZM600.948 12.2288C600.948 10.8648 600.035 9.85276 598.715 9.85276C597.395 9.85276 596.493 10.8648 596.493 12.2288C596.493 13.6368 597.406 14.6488 598.715 14.6488C600.024 14.6488 600.948 13.6368 600.948 12.2288ZM609.644 10.6778L607.488 16.1558H605.541L603.385 10.6778H605.376L606.531 14.2308H606.564L607.719 10.6778H609.644ZM611.794 12.7898H614.115C614.115 12.2178 613.752 11.7448 613.037 11.7448C612.344 11.7448 611.838 12.2288 611.794 12.7898ZM615.776 13.4828C615.776 13.6258 615.776 13.7798 615.765 13.9118H611.794C611.849 14.5168 612.454 14.9458 613.103 14.9458C613.675 14.9458 614.071 14.7038 614.313 14.3738L615.567 15.1658C615.05 15.9138 614.192 16.3318 613.081 16.3318C611.431 16.3318 610.067 15.2868 610.067 13.4388C610.067 11.6458 611.365 10.5018 613.026 10.5018C614.643 10.5018 615.776 11.6128 615.776 13.4828ZM620.524 10.5678L620.447 12.1518C620.282 12.1078 620.128 12.0968 619.985 12.0968C619.017 12.0968 618.698 12.8888 618.698 13.3398V16.1558H616.894V10.6778H618.632V11.4698H618.654C618.929 10.9198 619.468 10.5238 620.139 10.5238C620.282 10.5238 620.436 10.5348 620.524 10.5678ZM626.8 10.6778L624.644 16.1558H622.697L620.541 10.6778H622.532L623.687 14.2308H623.72L624.875 10.6778H626.8ZM629.455 8.92876C629.455 9.48976 628.993 9.91876 628.421 9.91876C627.838 9.91876 627.387 9.46776 627.387 8.92876C627.387 8.40076 627.838 7.93876 628.421 7.93876C628.993 7.93876 629.455 8.37876 629.455 8.92876ZM629.323 16.1558H627.519V10.6778H629.323V16.1558ZM632.204 12.7898H634.525C634.525 12.2178 634.162 11.7448 633.447 11.7448C632.754 11.7448 632.248 12.2288 632.204 12.7898ZM636.186 13.4828C636.186 13.6258 636.186 13.7798 636.175 13.9118H632.204C632.259 14.5168 632.864 14.9458 633.513 14.9458C634.085 14.9458 634.481 14.7038 634.723 14.3738L635.977 15.1658C635.46 15.9138 634.602 16.3318 633.491 16.3318C631.841 16.3318 630.477 15.2868 630.477 13.4388C630.477 11.6458 631.775 10.5018 633.436 10.5018C635.053 10.5018 636.186 11.6128 636.186 13.4828ZM646.182 10.6778L644.279 16.1558H642.464L641.386 12.7458H641.364L640.308 16.1558H638.493L636.601 10.6778H638.548L639.494 14.1428H639.527L640.506 10.6778H642.321L643.333 14.1428H643.355L644.312 10.6778H646.182Z" fill="white"/>
<rect width="16" height="16" rx="8" transform="matrix(0 1 1 0 612.111 21.1558)" fill="white"/>
<path d="M623.565 30.8826L620.111 27.4288L616.657 30.8826" stroke="#306FD5" stroke-width="1.5" stroke-linecap="round" stroke-linejoin="round"/>
<path d="M551.477 27.9288C558 27.9288 564.483 28.9391 570.697 30.9238L596.234 39.0806C603.953 41.5462 612.008 42.8012 620.111 42.8012C628.214 42.8012 636.269 41.5462 643.988 39.0806L669.525 30.9238C675.739 28.9391 682.222 27.9288 688.745 27.9288H1604.61V52.5H-354.389V27.9288H551.477Z" fill="white" stroke="#D7D7D7"/>
</g>
<defs>
<clipPath id="clip0_2896_13397">
<rect width="1240" height="48" fill="white" transform="translate(0.111084)"/>
</clipPath>
</defs>
</svg>
