<svg width="142" height="48" viewBox="0 0 142 48" fill="none" xmlns="http://www.w3.org/2000/svg">
<g clip-path="url(#clip0_3068_8825)">
<g clip-path="url(#clip1_3068_8825)">
<path d="M19 24C19 10.7452 29.7452 0 43 0H99C112.255 0 123 10.7452 123 24V48H19V24Z" fill="#0C1D3E"/>
<path d="M53.8497 12.2288C53.8497 14.6928 52.0457 16.3648 49.6037 16.3648C47.1727 16.3648 45.3687 14.6928 45.3687 12.2288C45.3687 9.73176 47.1727 8.15876 49.6037 8.15876C52.0457 8.15876 53.8497 9.73176 53.8497 12.2288ZM51.8367 12.2288C51.8367 10.8648 50.9237 9.85276 49.6037 9.85276C48.2837 9.85276 47.3817 10.8648 47.3817 12.2288C47.3817 13.6368 48.2947 14.6488 49.6037 14.6488C50.9127 14.6488 51.8367 13.6368 51.8367 12.2288ZM60.5332 10.6778L58.3772 16.1558H56.4302L54.2742 10.6778H56.2652L57.4202 14.2308H57.4532L58.6082 10.6778H60.5332ZM62.6824 12.7898H65.0034C65.0034 12.2178 64.6404 11.7448 63.9254 11.7448C63.2324 11.7448 62.7264 12.2288 62.6824 12.7898ZM66.6644 13.4828C66.6644 13.6258 66.6644 13.7798 66.6534 13.9118H62.6824C62.7374 14.5168 63.3424 14.9458 63.9914 14.9458C64.5634 14.9458 64.9594 14.7038 65.2014 14.3738L66.4554 15.1658C65.9384 15.9138 65.0804 16.3318 63.9694 16.3318C62.3194 16.3318 60.9554 15.2868 60.9554 13.4388C60.9554 11.6458 62.2534 10.5018 63.9144 10.5018C65.5314 10.5018 66.6644 11.6128 66.6644 13.4828ZM71.4131 10.5678L71.3361 12.1518C71.1711 12.1078 71.0171 12.0968 70.8741 12.0968C69.9061 12.0968 69.5871 12.8888 69.5871 13.3398V16.1558H67.7831V10.6778H69.5211V11.4698H69.5431C69.8181 10.9198 70.3571 10.5238 71.0281 10.5238C71.1711 10.5238 71.3251 10.5348 71.4131 10.5678ZM77.6884 10.6778L75.5324 16.1558H73.5854L71.4294 10.6778H73.4204L74.5754 14.2308H74.6084L75.7634 10.6778H77.6884ZM80.3436 8.92876C80.3436 9.48976 79.8816 9.91876 79.3096 9.91876C78.7266 9.91876 78.2756 9.46776 78.2756 8.92876C78.2756 8.40076 78.7266 7.93876 79.3096 7.93876C79.8816 7.93876 80.3436 8.37876 80.3436 8.92876ZM80.2116 16.1558H78.4076V10.6778H80.2116V16.1558ZM83.0925 12.7898H85.4135C85.4135 12.2178 85.0505 11.7448 84.3355 11.7448C83.6425 11.7448 83.1365 12.2288 83.0925 12.7898ZM87.0745 13.4828C87.0745 13.6258 87.0745 13.7798 87.0635 13.9118H83.0925C83.1475 14.5168 83.7525 14.9458 84.4015 14.9458C84.9735 14.9458 85.3695 14.7038 85.6115 14.3738L86.8655 15.1658C86.3485 15.9138 85.4905 16.3318 84.3795 16.3318C82.7295 16.3318 81.3655 15.2868 81.3655 13.4388C81.3655 11.6458 82.6635 10.5018 84.3245 10.5018C85.9415 10.5018 87.0745 11.6128 87.0745 13.4828ZM97.0703 10.6778L95.1673 16.1558H93.3523L92.2743 12.7458H92.2523L91.1963 16.1558H89.3813L87.4893 10.6778H89.4363L90.3823 14.1428H90.4153L91.3943 10.6778H93.2093L94.2213 14.1428H94.2433L95.2003 10.6778H97.0703Z" fill="white"/>
<rect width="16" height="16" rx="8" transform="matrix(0 1 1 0 63 21.1558)" fill="white"/>
<path d="M74.4536 30.8826L70.9999 27.4288L67.5461 30.8826" stroke="#306FD5" stroke-width="1.5" stroke-linecap="round" stroke-linejoin="round"/>
<path d="M2.36603 27.9287C8.88885 27.9287 15.3723 28.939 21.5859 30.9237L47.1234 39.0805C54.8424 41.546 62.8968 42.8011 71 42.8011C79.1032 42.8011 87.1576 41.546 94.8766 39.0805L120.414 30.9237C126.628 28.939 133.111 27.9287 139.634 27.9287H1055.5V52.4999H-903.5V27.9287H2.36603Z" fill="white" stroke="#D7D7D7"/>
</g>
</g>
<defs>
<clipPath id="clip0_3068_8825">
<rect width="142" height="48" fill="white"/>
</clipPath>
<clipPath id="clip1_3068_8825">
<rect width="1240" height="48" fill="white" transform="translate(-549)"/>
</clipPath>
</defs>
</svg>
