<svg width="21" height="28" viewBox="0 0 21 28" fill="none" xmlns="http://www.w3.org/2000/svg">
<g id="brush">
<path id="Vector" d="M19.8365 3.02206V12.1688H0.958595V3.02206C0.913574 2.72388 0.939206 2.4193 1.03343 2.13284C1.12765 1.84638 1.28783 1.58605 1.50106 1.37282C1.71429 1.15959 1.97462 0.99941 2.26108 0.905189C2.54754 0.810967 2.85212 0.785335 3.1503 0.830356H13.7874V5.21376C13.7874 5.5044 13.9028 5.78313 14.1083 5.98864C14.3138 6.19416 14.5926 6.30961 14.8832 6.30961C15.1738 6.30961 15.4526 6.19416 15.6581 5.98864C15.8636 5.78313 15.9791 5.5044 15.9791 5.21376V0.830356H17.6448C17.9425 0.78788 18.246 0.815288 18.5313 0.91041C18.8165 1.00553 19.0758 1.16576 19.2884 1.3784C19.5011 1.59105 19.6613 1.85027 19.7564 2.13555C19.8515 2.42084 19.8789 2.72435 19.8365 3.02206Z" fill="#306FD5"/>
<path id="Vector_2" d="M20.7279 12.8993V13.8783C20.7269 14.4747 20.5448 15.0568 20.2055 15.5473C19.8663 16.0379 19.3861 16.4138 18.8284 16.6252L14.0505 18.1156C13.5947 18.2887 13.2088 18.6073 12.9525 19.0221C12.6963 19.4368 12.584 19.9245 12.6332 20.4096L13.0715 24.3546C13.1081 24.6918 13.0757 25.0329 12.9762 25.3571C12.8768 25.6814 12.7123 25.982 12.4929 26.2406C12.2735 26.4992 12.0038 26.7105 11.7001 26.8615C11.3964 27.0125 11.0652 27.1001 10.7266 27.119C10.3879 27.1379 10.049 27.0876 9.73045 26.9713C9.41188 26.8549 9.12033 26.6749 8.87356 26.4423C8.62679 26.2096 8.42998 25.9291 8.2951 25.618C8.16023 25.3068 8.09012 24.9714 8.08904 24.6322C8.08662 24.5395 8.0915 24.4466 8.10365 24.3546L8.52738 20.4242C8.58456 19.938 8.47565 19.4468 8.21834 19.0303C7.96104 18.6138 7.57046 18.2966 7.11008 18.1302L2.20067 16.6106C1.63682 16.405 1.1496 16.0314 0.804726 15.5402C0.459848 15.049 0.273904 14.4639 0.271973 13.8637V12.8993C0.271973 12.7056 0.348943 12.5198 0.485951 12.3827C0.622959 12.2457 0.808782 12.1688 1.00254 12.1688H19.9973C20.191 12.1688 20.3769 12.2457 20.5139 12.3827C20.6509 12.5198 20.7279 12.7056 20.7279 12.8993Z" fill="#9BD0FF"/>
</g>
</svg>
