<svg width="78" height="78" viewBox="0 0 78 78" fill="none" xmlns="http://www.w3.org/2000/svg">
<path d="M51.0237 38.5835H62.7641V47.9758C62.7641 53.1563 58.5523 57.3681 53.3718 57.3681H52.1978C50.246 57.3681 48.6756 58.9383 48.6756 60.8903V67.9345C48.6756 69.8863 50.2459 71.4567 52.1978 71.4567H53.3718C66.3449 71.4567 76.8525 60.949 76.8525 47.9759V12.7546C76.8525 8.86563 73.6973 5.71042 69.8083 5.71042H51.0237C47.1347 5.71042 43.9795 8.86563 43.9795 12.7546V31.5392C43.9795 35.4283 47.1347 38.5835 51.0237 38.5835Z" fill="#F2F8FD"/>
<path d="M8.75809 38.5835H20.4985V47.9758C20.4985 53.1563 16.2867 57.3681 11.1062 57.3681H9.93221C7.98041 57.3681 6.41002 58.9383 6.41002 60.8903V67.9345C6.41002 69.8863 7.98026 71.4567 9.93221 71.4567H11.1062C24.0793 71.4567 34.5869 60.949 34.5869 47.9759V12.7546C34.5869 8.86563 31.4317 5.71042 27.5427 5.71042H8.75809C4.86908 5.71042 1.71387 8.86563 1.71387 12.7546V31.5392C1.71387 35.4283 4.86908 38.5835 8.75809 38.5835Z" fill="#F2F8FD"/>
</svg>
