<svg width="78" height="78" viewBox="0 0 78 78" fill="none" xmlns="http://www.w3.org/2000/svg">
<path d="M26.9841 39.1126H15.2437V48.5049C15.2437 53.6854 19.4555 57.8972 24.636 57.8972H25.81C27.7618 57.8972 29.3322 59.4675 29.3322 61.4194V68.4636C29.3322 70.4154 27.7619 71.9858 25.81 71.9858H24.636C11.6629 71.9858 1.15527 61.4782 1.15527 48.5051V13.2838C1.15527 9.3948 4.31048 6.23959 8.19949 6.23959H26.9841C30.8731 6.23959 34.0283 9.3948 34.0283 13.2838V32.0684C34.0283 35.9574 30.8731 39.1126 26.9841 39.1126Z" fill="#F2F8FD"/>
<path d="M69.2497 39.1126H57.5093V48.5049C57.5093 53.6854 61.7212 57.8972 66.9016 57.8972H68.0756C70.0274 57.8972 71.5978 59.4675 71.5978 61.4194V68.4636C71.5978 70.4154 70.0276 71.9858 68.0756 71.9858H66.9016C53.9285 71.9858 43.4209 61.4782 43.4209 48.5051V13.2838C43.4209 9.3948 46.5761 6.23959 50.4651 6.23959H69.2497C73.1387 6.23959 76.2939 9.3948 76.2939 13.2838V32.0684C76.2939 35.9574 73.1387 39.1126 69.2497 39.1126Z" fill="#F2F8FD"/>
</svg>
