<svg width="172" height="40" viewBox="0 0 172 40" fill="none" xmlns="http://www.w3.org/2000/svg">
<rect x="0.5" width="171" height="40" rx="8" fill="#306FD5"/>
<path d="M36.3334 15.8333L28.5834 24.1666L24.6667 19.9999" stroke="white" stroke-width="1.5" stroke-linecap="round" stroke-linejoin="round"/>
<path d="M55.0968 15.68L53.9768 16.768C53.5288 16.144 52.7128 15.712 51.7688 15.712C50.7448 15.712 49.5608 16.272 49.5608 17.552C49.5608 18.784 50.6008 19.12 51.8808 19.536C53.4008 20.016 55.2088 20.592 55.2088 22.848C55.2088 25.2 53.3048 26.288 51.2888 26.288C49.8648 26.288 48.4248 25.728 47.5608 24.64L48.7928 23.6C49.3207 24.384 50.2808 24.928 51.3208 24.928C52.3768 24.928 53.5928 24.336 53.5928 22.992C53.5928 21.616 52.3448 21.248 50.9048 20.8C49.4648 20.352 47.9608 19.696 47.9608 17.616C47.9608 15.36 49.9768 14.384 51.8488 14.384C53.1608 14.384 54.3928 14.896 55.0968 15.68ZM62.0941 21.296V21.088C62.0941 19.968 61.3421 19.424 60.2221 19.424C59.3741 19.424 58.5741 19.792 58.0621 20.304L57.2621 19.344C57.9981 18.64 59.1341 18.208 60.3661 18.208C62.5421 18.208 63.5341 19.504 63.5341 21.184V24.496C63.5341 25.008 63.5661 25.632 63.6461 26H62.2861C62.2061 25.664 62.1581 25.264 62.1581 24.912H62.1101C61.5661 25.728 60.7021 26.192 59.5661 26.192C58.3661 26.192 56.8141 25.6 56.8141 23.856C56.8141 21.568 59.5341 21.296 62.0941 21.296ZM62.0941 22.384H61.7261C60.2381 22.384 58.3501 22.544 58.3501 23.824C58.3501 24.72 59.1501 25.008 59.9021 25.008C61.3101 25.008 62.0941 24.064 62.0941 22.784V22.384ZM72.654 18.416L69.614 26H67.982L64.894 18.416H66.558L68.782 24.384H68.814L71.054 18.416H72.654ZM75.1485 21.536H79.6605C79.6285 20.336 78.9245 19.392 77.5325 19.392C76.2365 19.392 75.2445 20.352 75.1485 21.536ZM81.1805 22.144C81.1805 22.304 81.1805 22.48 81.1645 22.656H75.1485C75.1965 23.952 76.2845 24.96 77.6125 24.96C78.6365 24.96 79.3885 24.448 79.8205 23.808L80.8765 24.656C80.0605 25.712 78.9565 26.208 77.6125 26.208C75.3085 26.208 73.6125 24.608 73.6125 22.224C73.6125 19.856 75.3085 18.208 77.5325 18.208C79.7725 18.208 81.1805 19.728 81.1805 22.144ZM95.8084 23.376L97.0724 24.24C96.1924 25.44 94.7364 26.288 92.7524 26.288C89.2804 26.288 86.7844 23.808 86.7844 20.32C86.7844 16.784 89.3764 14.384 92.8164 14.384C94.3684 14.384 96.0484 14.992 96.8804 16.144L95.6324 17.104C95.0884 16.336 93.9844 15.776 92.8164 15.776C90.1924 15.776 88.5124 17.84 88.5124 20.32C88.5124 22.864 90.1604 24.88 92.7684 24.88C94.0324 24.88 95.1364 24.352 95.8084 23.376ZM100.145 19.568H100.177C100.529 18.816 101.489 18.208 102.577 18.208C104.529 18.208 105.409 19.6 105.409 21.296V26H103.905V21.808C103.905 20.576 103.585 19.488 102.193 19.488C101.009 19.488 100.145 20.48 100.145 21.984V26H98.6405V13.904H100.145V19.568ZM112.672 21.296V21.088C112.672 19.968 111.92 19.424 110.8 19.424C109.952 19.424 109.152 19.792 108.64 20.304L107.84 19.344C108.576 18.64 109.712 18.208 110.944 18.208C113.12 18.208 114.112 19.504 114.112 21.184V24.496C114.112 25.008 114.144 25.632 114.224 26H112.864C112.784 25.664 112.736 25.264 112.736 24.912H112.688C112.144 25.728 111.28 26.192 110.144 26.192C108.944 26.192 107.392 25.6 107.392 23.856C107.392 21.568 110.112 21.296 112.672 21.296ZM112.672 22.384H112.304C110.816 22.384 108.928 22.544 108.928 23.824C108.928 24.72 109.728 25.008 110.48 25.008C111.888 25.008 112.672 24.064 112.672 22.784V22.384ZM116.56 18.416H117.984C118.016 18.8 118.048 19.344 118.048 19.664H118.096C118.464 18.848 119.472 18.208 120.56 18.208C122.512 18.208 123.392 19.6 123.392 21.296V26H121.888V21.792C121.888 20.56 121.552 19.472 120.16 19.472C118.976 19.472 118.128 20.464 118.128 21.968V26H116.624V20.048C116.624 19.648 116.608 18.912 116.56 18.416ZM125.569 28.464L126.529 27.296C127.185 28.032 128.257 28.528 129.297 28.528C131.297 28.528 131.969 27.296 131.969 25.728V24.752H131.937C131.377 25.6 130.337 26.064 129.265 26.064C126.945 26.064 125.441 24.336 125.441 22.16C125.441 19.984 126.929 18.208 129.249 18.208C130.337 18.208 131.409 18.688 131.985 19.632H132.017V18.416H133.473V25.616C133.473 27.824 132.433 29.84 129.281 29.84C127.969 29.84 126.513 29.328 125.569 28.464ZM126.993 22.128C126.993 23.52 127.921 24.8 129.505 24.8C131.057 24.8 132.081 23.632 132.081 22.128C132.081 20.688 131.041 19.456 129.505 19.456C127.921 19.456 126.993 20.672 126.993 22.128ZM137.086 21.536H141.598C141.566 20.336 140.862 19.392 139.47 19.392C138.174 19.392 137.182 20.352 137.086 21.536ZM143.118 22.144C143.118 22.304 143.118 22.48 143.102 22.656H137.086C137.134 23.952 138.222 24.96 139.55 24.96C140.574 24.96 141.326 24.448 141.758 23.808L142.814 24.656C141.998 25.712 140.894 26.208 139.55 26.208C137.246 26.208 135.55 24.608 135.55 22.224C135.55 19.856 137.246 18.208 139.47 18.208C141.71 18.208 143.118 19.728 143.118 22.144ZM150.354 19.456L149.314 20.336C148.978 19.792 148.322 19.392 147.554 19.392C146.866 19.392 146.146 19.664 146.146 20.384C146.146 21.024 146.722 21.264 147.874 21.52C149.314 21.84 150.418 22.432 150.418 23.76C150.418 25.552 148.93 26.208 147.394 26.208C146.242 26.208 145.058 25.76 144.338 24.848L145.41 23.936C145.81 24.528 146.578 24.992 147.426 24.992C148.178 24.992 148.93 24.72 148.93 23.888C148.93 23.184 148.242 22.928 146.946 22.624C145.938 22.384 144.738 21.952 144.738 20.528C144.738 18.896 146.162 18.208 147.602 18.208C148.674 18.208 149.81 18.64 150.354 19.456Z" fill="white"/>
</svg>
