<svg width="49" height="49" viewBox="0 0 49 49" fill="none" xmlns="http://www.w3.org/2000/svg">
<g id="speaker 1">
<g id="g1440">
<g id="g1442">
<g id="Clip path group">
<mask id="mask0_6079_20835" style="mask-type:luminance" maskUnits="userSpaceOnUse" x="0" y="0" width="49" height="49">
<g id="clipPath1448">
<path id="path1446" d="M0.416992 0.456547H48.417V48.4565H0.416992V0.456547Z" fill="white"/>
</g>
</mask>
<g mask="url(#mask0_6079_20835)">
<g id="g1444">
<path id="path1450" d="M10.167 34.9565H1.82324V13.9565H10.167V34.9565Z" stroke="#0C1D3E" stroke-width="1.5" stroke-miterlimit="10" stroke-linecap="round" stroke-linejoin="round"/>
<g id="g1452">
<path id="path1454" d="M23.1421 42.8546L10.167 34.9566V13.9566L23.1421 6.05874C25.0163 4.91789 27.417 6.26696 27.417 8.46117V40.4521C27.417 42.6463 25.0163 43.9954 23.1421 42.8546Z" stroke="#0C1D3E" stroke-width="1.5" stroke-miterlimit="10" stroke-linecap="round" stroke-linejoin="round"/>
</g>
<g id="g1456">
<path id="path1458" d="M33.8188 21.8051C35.2833 23.2696 35.2833 25.6439 33.8188 27.1084" stroke="#0C1D3E" stroke-width="1.5" stroke-miterlimit="10" stroke-linecap="round" stroke-linejoin="round"/>
</g>
<g id="g1460">
<path id="path1462" d="M38.0615 17.5625C41.8691 21.3701 41.8691 27.5435 38.0615 31.3511" stroke="#0C1D3E" stroke-width="1.5" stroke-miterlimit="10" stroke-linecap="round" stroke-linejoin="round"/>
</g>
<g id="g1464">
<path id="path1466" d="M42.3037 13.3199C48.5794 19.5956 48.5794 29.3179 42.3037 35.5938" stroke="#0C1D3E" stroke-width="1.5" stroke-miterlimit="10" stroke-linecap="round" stroke-linejoin="round"/>
</g>
</g>
</g>
</g>
</g>
</g>
</g>
</svg>
