<svg width="136" height="40" viewBox="0 0 136 40" fill="none" xmlns="http://www.w3.org/2000/svg">
<rect width="136" height="40" rx="8" fill="#306FD5"/>
<path d="M35.8332 15.8333L28.0832 24.1667L24.1665 20" stroke="white" stroke-width="1.5" stroke-linecap="round" stroke-linejoin="round"/>
<path d="M49.3979 23.216L48.2619 26H46.5019L51.4139 14.672H52.8539L57.7179 26H55.9259L54.7739 23.216H49.3979ZM52.0859 16.512L49.9579 21.824H54.1979L52.0859 16.512ZM65.1409 24.8C64.5649 25.712 63.4769 26.208 62.4049 26.208C60.0689 26.208 58.5809 24.416 58.5809 22.192C58.5809 19.952 60.1169 18.208 62.3889 18.208C63.6209 18.208 64.5649 18.816 65.0929 19.552H65.1249V13.904H66.6289V26H65.1729V24.8H65.1409ZM60.1489 22.192C60.1489 23.616 61.0129 24.944 62.6609 24.944C64.1969 24.944 65.2209 23.664 65.2209 22.208C65.2209 20.752 64.1969 19.456 62.6609 19.456C61.0129 19.456 60.1489 20.768 60.1489 22.192ZM75.2971 24.8C74.7211 25.712 73.6331 26.208 72.5611 26.208C70.2251 26.208 68.7371 24.416 68.7371 22.192C68.7371 19.952 70.2731 18.208 72.5451 18.208C73.7771 18.208 74.7211 18.816 75.2491 19.552H75.2811V13.904H76.7851V26H75.3291V24.8H75.2971ZM70.3051 22.192C70.3051 23.616 71.1691 24.944 72.8171 24.944C74.3531 24.944 75.3771 23.664 75.3771 22.208C75.3771 20.752 74.3531 19.456 72.8171 19.456C71.1691 19.456 70.3051 20.768 70.3051 22.192ZM87.8054 26.288C84.8134 26.288 83.4054 24.128 83.4054 21.808V14.672H84.9894V21.712C84.9894 23.264 85.6934 24.864 87.8054 24.864C89.9174 24.864 90.6214 23.264 90.6214 21.712V14.672H92.2054V21.808C92.2054 24.128 90.7974 26.288 87.8054 26.288ZM99.932 19.456L98.892 20.336C98.556 19.792 97.9 19.392 97.132 19.392C96.444 19.392 95.724 19.664 95.724 20.384C95.724 21.024 96.3 21.264 97.452 21.52C98.892 21.84 99.996 22.432 99.996 23.76C99.996 25.552 98.508 26.208 96.972 26.208C95.82 26.208 94.636 25.76 93.916 24.848L94.988 23.936C95.388 24.528 96.156 24.992 97.004 24.992C97.756 24.992 98.508 24.72 98.508 23.888C98.508 23.184 97.82 22.928 96.524 22.624C95.516 22.384 94.316 21.952 94.316 20.528C94.316 18.896 95.74 18.208 97.18 18.208C98.252 18.208 99.388 18.64 99.932 19.456ZM102.945 21.536H107.457C107.425 20.336 106.721 19.392 105.329 19.392C104.033 19.392 103.041 20.352 102.945 21.536ZM108.977 22.144C108.977 22.304 108.977 22.48 108.961 22.656H102.945C102.993 23.952 104.081 24.96 105.409 24.96C106.433 24.96 107.185 24.448 107.617 23.808L108.673 24.656C107.857 25.712 106.753 26.208 105.409 26.208C103.105 26.208 101.409 24.608 101.409 22.224C101.409 19.856 103.105 18.208 105.329 18.208C107.569 18.208 108.977 19.728 108.977 22.144ZM111.077 20.048C111.077 19.648 111.061 18.912 111.013 18.416H112.437C112.469 18.8 112.501 19.376 112.501 19.696H112.549C112.965 18.816 113.845 18.208 114.869 18.208C115.077 18.208 115.285 18.224 115.461 18.272L115.397 19.664C115.205 19.616 114.949 19.584 114.709 19.584C113.269 19.584 112.581 20.752 112.581 22.016V26H111.077V20.048Z" fill="white"/>
</svg>
