<svg width="122" height="44" viewBox="0 0 122 44" fill="none" xmlns="http://www.w3.org/2000/svg">
<g filter="url(#filter0_d_7176_835)">
<rect x="2.67627" y="1" width="117" height="40" rx="8" fill="white"/>
<rect x="3.17627" y="1.5" width="116" height="39" rx="7.5" stroke="#D1D5DB"/>
<path d="M28.5095 25.0833L36.7595 16.8333" stroke="#374151" stroke-width="1.5" stroke-linecap="round" stroke-linejoin="round"/>
<path d="M36.7595 25.0833L28.5095 16.8333" stroke="#374151" stroke-width="1.5" stroke-linecap="round" stroke-linejoin="round"/>
<path d="M58.8675 24.376L60.1315 25.24C59.2515 26.44 57.7955 27.288 55.8115 27.288C52.3395 27.288 49.8435 24.808 49.8435 21.32C49.8435 17.784 52.4355 15.384 55.8755 15.384C57.4275 15.384 59.1075 15.992 59.9395 17.144L58.6915 18.104C58.1475 17.336 57.0435 16.776 55.8755 16.776C53.2515 16.776 51.5715 18.84 51.5715 21.32C51.5715 23.864 53.2195 25.88 55.8275 25.88C57.0915 25.88 58.1955 25.352 58.8675 24.376ZM66.1063 22.296V22.088C66.1063 20.968 65.3543 20.424 64.2343 20.424C63.3863 20.424 62.5863 20.792 62.0743 21.304L61.2743 20.344C62.0103 19.64 63.1463 19.208 64.3783 19.208C66.5543 19.208 67.5463 20.504 67.5463 22.184V25.496C67.5463 26.008 67.5783 26.632 67.6583 27H66.2983C66.2183 26.664 66.1703 26.264 66.1703 25.912H66.1223C65.5783 26.728 64.7143 27.192 63.5783 27.192C62.3783 27.192 60.8263 26.6 60.8263 24.856C60.8263 22.568 63.5463 22.296 66.1063 22.296ZM66.1063 23.384H65.7383C64.2503 23.384 62.3623 23.544 62.3623 24.824C62.3623 25.72 63.1623 26.008 63.9143 26.008C65.3223 26.008 66.1063 25.064 66.1063 23.784V23.384ZM69.9942 19.416H71.4182C71.4502 19.8 71.4822 20.344 71.4822 20.664H71.5302C71.8982 19.848 72.9062 19.208 73.9942 19.208C75.9462 19.208 76.8262 20.6 76.8262 22.296V27H75.3222V22.792C75.3222 21.56 74.9862 20.472 73.5942 20.472C72.4102 20.472 71.5622 21.464 71.5622 22.968V27H70.0582V21.048C70.0582 20.648 70.0422 19.912 69.9942 19.416ZM85.7707 20.456L84.6827 21.336C84.3627 20.84 83.6587 20.472 82.9387 20.472C81.3707 20.472 80.4587 21.752 80.4587 23.208C80.4587 24.648 81.3707 25.944 82.9547 25.944C83.7227 25.944 84.3787 25.624 84.7787 25.112L85.7867 26.024C85.1467 26.76 84.1707 27.208 82.9547 27.208C80.6187 27.208 78.8747 25.624 78.8747 23.208C78.8747 20.824 80.6027 19.208 82.9227 19.208C83.9947 19.208 85.1467 19.64 85.7707 20.456ZM88.317 22.536H92.829C92.797 21.336 92.093 20.392 90.701 20.392C89.405 20.392 88.413 21.352 88.317 22.536ZM94.349 23.144C94.349 23.304 94.349 23.48 94.333 23.656H88.317C88.365 24.952 89.453 25.96 90.781 25.96C91.805 25.96 92.557 25.448 92.989 24.808L94.045 25.656C93.229 26.712 92.125 27.208 90.781 27.208C88.477 27.208 86.781 25.608 86.781 23.224C86.781 20.856 88.477 19.208 90.701 19.208C92.941 19.208 94.349 20.728 94.349 23.144ZM97.9848 14.904V27H96.4808V14.904H97.9848Z" fill="#374151"/>
</g>
<defs>
<filter id="filter0_d_7176_835" x="0.67627" y="0" width="121" height="44" filterUnits="userSpaceOnUse" color-interpolation-filters="sRGB">
<feFlood flood-opacity="0" result="BackgroundImageFix"/>
<feColorMatrix in="SourceAlpha" type="matrix" values="0 0 0 0 0 0 0 0 0 0 0 0 0 0 0 0 0 0 127 0" result="hardAlpha"/>
<feOffset dy="1"/>
<feGaussianBlur stdDeviation="1"/>
<feColorMatrix type="matrix" values="0 0 0 0 0.0627451 0 0 0 0 0.0941176 0 0 0 0 0.156863 0 0 0 0.05 0"/>
<feBlend mode="normal" in2="BackgroundImageFix" result="effect1_dropShadow_7176_835"/>
<feBlend mode="normal" in="SourceGraphic" in2="effect1_dropShadow_7176_835" result="shape"/>
</filter>
</defs>
</svg>
