<svg width="79" height="24" viewBox="0 0 79 24" fill="none" xmlns="http://www.w3.org/2000/svg">
<rect width="79" height="24" rx="12" fill="#4CAF50"/>
<path d="M24 12C24 15.3333 21.3333 18 18 18C14.6667 18 12 15.3333 12 12C12 8.66667 14.6667 6 18 6C21.3333 6 24 8.66667 24 12Z" stroke="white" stroke-width="1.5" stroke-linecap="round" stroke-linejoin="round"/>
<path d="M20.3333 12C20.3333 13.2667 19.2666 14.3333 18 14.3333C16.7333 14.3333 15.6666 13.2667 15.6666 12C15.6666 10.7333 16.7333 9.66666 18 9.66666C19.2666 9.66666 20.3333 10.7333 20.3333 12Z" stroke="white" stroke-width="1.5" stroke-linecap="round" stroke-linejoin="round"/>
<path d="M31.0132 14.564L30.0192 17H28.4792L32.7772 7.088H34.0372L38.2932 17H36.7252L35.7172 14.564H31.0132ZM33.3652 8.698L31.5032 13.346H35.2132L33.3652 8.698ZM45.0963 11.274L44.1443 12.044C43.8643 11.61 43.2483 11.288 42.6183 11.288C41.2463 11.288 40.4483 12.408 40.4483 13.682C40.4483 14.942 41.2463 16.076 42.6323 16.076C43.3043 16.076 43.8783 15.796 44.2283 15.348L45.1103 16.146C44.5503 16.79 43.6963 17.182 42.6323 17.182C40.5883 17.182 39.0623 15.796 39.0623 13.682C39.0623 11.596 40.5743 10.182 42.6043 10.182C43.5423 10.182 44.5503 10.56 45.0963 11.274ZM49.6623 10.364V11.442H47.8983V14.9C47.8983 15.698 48.1783 16.02 48.8363 16.02C49.0743 16.02 49.3823 15.964 49.6063 15.852L49.6483 16.93C49.3403 17.042 48.9343 17.112 48.5283 17.112C47.2823 17.112 46.5963 16.412 46.5963 15.04V11.442H45.3223V10.364H46.5963V8.46H47.8983V10.364H49.6623ZM52.3517 10.364V17H51.0357V10.364H52.3517ZM52.5757 7.97C52.5757 8.446 52.1697 8.81 51.6937 8.81C51.2177 8.81 50.8257 8.432 50.8257 7.97C50.8257 7.494 51.2177 7.116 51.6937 7.116C52.1697 7.116 52.5757 7.48 52.5757 7.97ZM60.4267 10.364L57.7667 17H56.3387L53.6367 10.364H55.0927L57.0387 15.586H57.0667L59.0267 10.364H60.4267ZM62.6094 13.094H66.5574C66.5294 12.044 65.9134 11.218 64.6954 11.218C63.5614 11.218 62.6934 12.058 62.6094 13.094ZM67.8874 13.626C67.8874 13.766 67.8874 13.92 67.8734 14.074H62.6094C62.6514 15.208 63.6034 16.09 64.7654 16.09C65.6614 16.09 66.3194 15.642 66.6974 15.082L67.6214 15.824C66.9074 16.748 65.9414 17.182 64.7654 17.182C62.7494 17.182 61.2654 15.782 61.2654 13.696C61.2654 11.624 62.7494 10.182 64.6954 10.182C66.6554 10.182 67.8874 11.512 67.8874 13.626Z" fill="white"/>
</svg>
