<svg width="119" height="36" viewBox="0 0 119 36" fill="none" xmlns="http://www.w3.org/2000/svg">
<rect width="119" height="36" rx="8" fill="#306FD5"/>
<path d="M20.1666 18H31.8333" stroke="white" stroke-width="1.5" stroke-linecap="round" stroke-linejoin="round"/>
<path d="M26 23.8333V12.1667" stroke="white" stroke-width="1.5" stroke-linecap="round" stroke-linejoin="round"/>
<path d="M44.8481 20.564L43.8541 23H42.3141L46.6121 13.088H47.8721L52.1281 23H50.5601L49.5521 20.564H44.8481ZM47.2001 14.698L45.3381 19.346H49.0481L47.2001 14.698ZM58.6233 21.95C58.1193 22.748 57.1673 23.182 56.2293 23.182C54.1853 23.182 52.8833 21.614 52.8833 19.668C52.8833 17.708 54.2273 16.182 56.2153 16.182C57.2933 16.182 58.1193 16.714 58.5813 17.358H58.6093V12.416H59.9253V23H58.6513V21.95H58.6233ZM54.2553 19.668C54.2553 20.914 55.0113 22.076 56.4533 22.076C57.7973 22.076 58.6933 20.956 58.6933 19.682C58.6933 18.408 57.7973 17.274 56.4533 17.274C55.0113 17.274 54.2553 18.422 54.2553 19.668ZM67.51 21.95C67.006 22.748 66.054 23.182 65.116 23.182C63.072 23.182 61.77 21.614 61.77 19.668C61.77 17.708 63.114 16.182 65.102 16.182C66.18 16.182 67.006 16.714 67.468 17.358H67.496V12.416H68.812V23H67.538V21.95H67.51ZM63.142 19.668C63.142 20.914 63.898 22.076 65.34 22.076C66.684 22.076 67.58 20.956 67.58 19.682C67.58 18.408 66.684 17.274 65.34 17.274C63.898 17.274 63.142 18.422 63.142 19.668ZM78.4547 23.252C75.8367 23.252 74.6047 21.362 74.6047 19.332V13.088H75.9907V19.248C75.9907 20.606 76.6067 22.006 78.4547 22.006C80.3027 22.006 80.9187 20.606 80.9187 19.248V13.088H82.3047V19.332C82.3047 21.362 81.0727 23.252 78.4547 23.252ZM89.0655 17.274L88.1555 18.044C87.8615 17.568 87.2875 17.218 86.6155 17.218C86.0135 17.218 85.3835 17.456 85.3835 18.086C85.3835 18.646 85.8875 18.856 86.8955 19.08C88.1555 19.36 89.1215 19.878 89.1215 21.04C89.1215 22.608 87.8195 23.182 86.4755 23.182C85.4675 23.182 84.4315 22.79 83.8015 21.992L84.7395 21.194C85.0895 21.712 85.7615 22.118 86.5035 22.118C87.1615 22.118 87.8195 21.88 87.8195 21.152C87.8195 20.536 87.2175 20.312 86.0835 20.046C85.2015 19.836 84.1515 19.458 84.1515 18.212C84.1515 16.784 85.3975 16.182 86.6575 16.182C87.5955 16.182 88.5895 16.56 89.0655 17.274ZM91.7022 19.094H95.6502C95.6222 18.044 95.0062 17.218 93.7882 17.218C92.6542 17.218 91.7862 18.058 91.7022 19.094ZM96.9802 19.626C96.9802 19.766 96.9802 19.92 96.9662 20.074H91.7022C91.7442 21.208 92.6962 22.09 93.8582 22.09C94.7542 22.09 95.4122 21.642 95.7902 21.082L96.7142 21.824C96.0002 22.748 95.0342 23.182 93.8582 23.182C91.8422 23.182 90.3582 21.782 90.3582 19.696C90.3582 17.624 91.8422 16.182 93.7882 16.182C95.7482 16.182 96.9802 17.512 96.9802 19.626ZM98.8176 17.792C98.8176 17.442 98.8036 16.798 98.7616 16.364H100.008C100.036 16.7 100.064 17.204 100.064 17.484H100.106C100.47 16.714 101.24 16.182 102.136 16.182C102.318 16.182 102.5 16.196 102.654 16.238L102.598 17.456C102.43 17.414 102.206 17.386 101.996 17.386C100.736 17.386 100.134 18.408 100.134 19.514V23H98.8176V17.792Z" fill="white"/>
</svg>
