<svg width="88" height="24" viewBox="0 0 88 24" fill="none" xmlns="http://www.w3.org/2000/svg">
<rect width="88" height="24" rx="12" fill="#111827"/>
<path d="M24 12C24 15.3333 21.3333 18 18 18C14.6667 18 12 15.3333 12 12C12 8.66667 14.6667 6 18 6C21.3333 6 24 8.66667 24 12Z" stroke="white" stroke-width="1.5" stroke-linecap="round" stroke-linejoin="round"/>
<path d="M20.3333 12C20.3333 13.2667 19.2666 14.3333 18 14.3333C16.7333 14.3333 15.6666 13.2667 15.6666 12C15.6666 10.7333 16.7333 9.66667 18 9.66667C19.2666 9.66667 20.3333 10.7333 20.3333 12Z" stroke="white" stroke-width="1.5" stroke-linecap="round" stroke-linejoin="round"/>
<path d="M30.7072 7.088V17H29.3212V7.088H30.7072ZM32.996 10.364H34.242C34.27 10.7 34.298 11.176 34.298 11.456H34.34C34.662 10.742 35.544 10.182 36.496 10.182C38.204 10.182 38.974 11.4 38.974 12.884V17H37.658V13.318C37.658 12.24 37.364 11.288 36.146 11.288C35.11 11.288 34.368 12.156 34.368 13.472V17H33.052V11.792C33.052 11.442 33.038 10.798 32.996 10.364ZM45.3304 12.884V12.702C45.3304 11.722 44.6724 11.246 43.6924 11.246C42.9504 11.246 42.2504 11.568 41.8024 12.016L41.1024 11.176C41.7464 10.56 42.7404 10.182 43.8184 10.182C45.7224 10.182 46.5904 11.316 46.5904 12.786V15.684C46.5904 16.132 46.6184 16.678 46.6884 17H45.4984C45.4284 16.706 45.3864 16.356 45.3864 16.048H45.3444C44.8684 16.762 44.1124 17.168 43.1184 17.168C42.0684 17.168 40.7104 16.65 40.7104 15.124C40.7104 13.122 43.0904 12.884 45.3304 12.884ZM45.3304 13.836H45.0084C43.7064 13.836 42.0544 13.976 42.0544 15.096C42.0544 15.88 42.7544 16.132 43.4124 16.132C44.6444 16.132 45.3304 15.306 45.3304 14.186V13.836ZM54.3883 11.274L53.4363 12.044C53.1563 11.61 52.5403 11.288 51.9103 11.288C50.5383 11.288 49.7403 12.408 49.7403 13.682C49.7403 14.942 50.5383 16.076 51.9243 16.076C52.5963 16.076 53.1703 15.796 53.5203 15.348L54.4023 16.146C53.8423 16.79 52.9883 17.182 51.9243 17.182C49.8803 17.182 48.3543 15.796 48.3543 13.682C48.3543 11.596 49.8663 10.182 51.8963 10.182C52.8343 10.182 53.8423 10.56 54.3883 11.274ZM58.9543 10.364V11.442H57.1903V14.9C57.1903 15.698 57.4703 16.02 58.1283 16.02C58.3663 16.02 58.6743 15.964 58.8983 15.852L58.9403 16.93C58.6323 17.042 58.2263 17.112 57.8203 17.112C56.5743 17.112 55.8883 16.412 55.8883 15.04V11.442H54.6143V10.364H55.8883V8.46H57.1903V10.364H58.9543ZM61.6437 10.364V17H60.3277V10.364H61.6437ZM61.8677 7.97C61.8677 8.446 61.4617 8.81 60.9857 8.81C60.5097 8.81 60.1177 8.432 60.1177 7.97C60.1177 7.494 60.5097 7.116 60.9857 7.116C61.4617 7.116 61.8677 7.48 61.8677 7.97ZM69.7187 10.364L67.0587 17H65.6307L62.9287 10.364H64.3847L66.3307 15.586H66.3587L68.3187 10.364H69.7187ZM71.9014 13.094H75.8494C75.8214 12.044 75.2054 11.218 73.9874 11.218C72.8534 11.218 71.9854 12.058 71.9014 13.094ZM77.1794 13.626C77.1794 13.766 77.1794 13.92 77.1654 14.074H71.9014C71.9434 15.208 72.8954 16.09 74.0574 16.09C74.9534 16.09 75.6114 15.642 75.9894 15.082L76.9134 15.824C76.1994 16.748 75.2334 17.182 74.0574 17.182C72.0414 17.182 70.5574 15.782 70.5574 13.696C70.5574 11.624 72.0414 10.182 73.9874 10.182C75.9474 10.182 77.1794 11.512 77.1794 13.626Z" fill="white"/>
</svg>
